Monoto-ExtendedBold.ufo
<glyph name="exclam" format="2">
  <advance width="720"/>
  <unicode hex="0021"/>
  <outline>
    <contour>
      <point x="281" y="258" type="line"/>
      <point x="447" y="258" type="line"/>
      <point x="475" y="714" type="line"/>
      <point x="252" y="714" type="line"/>
    </contour>
    <contour>
      <point x="363" y="-12" type="curve" smooth="yes"/>
      <point x="425" y="-12"/>
      <point x="474" y="17"/>
      <point x="474" y="83" type="curve" smooth="yes"/>
      <point x="474" y="152"/>
      <point x="426" y="180"/>
      <point x="363" y="180" type="curve" smooth="yes"/>
      <point x="298" y="180"/>
      <point x="250" y="152"/>
      <point x="250" y="83" type="curve" smooth="yes"/>
      <point x="250" y="17"/>
      <point x="299" y="-12"/>
    </contour>
  </outline>
</glyph>
<glyph name="quotedbl" format="2">
  <advance width="720"/>
  <unicode hex="0022"/>
  <outline>
    <contour>
      <point x="431" y="456" type="line"/>
      <point x="568" y="456" type="line"/>
      <point x="595" y="714" type="line"/>
      <point x="404" y="714" type="line"/>
    </contour>
    <contour>
      <point x="153" y="456" type="line"/>
      <point x="290" y="456" type="line"/>
      <point x="317" y="714" type="line"/>
      <point x="126" y="714" type="line"/>
    </contour>
  </outline>
</glyph>
<glyph name="numbersign" format="2">
  <advance width="720"/>
  <unicode hex="0023"/>
  <outline>
    <contour>
      <point x="90" y="0" type="line"/>
      <point x="223" y="0" type="line"/>
      <point x="266" y="189" type="line"/>
      <point x="383" y="189" type="line"/>
      <point x="338" y="0" type="line"/>
      <point x="473" y="0" type="line"/>
      <point x="518" y="189" type="line"/>
      <point x="689" y="189" type="line"/>
      <point x="689" y="311" type="line"/>
      <point x="538" y="311" type="line"/>
      <point x="566" y="402" type="line"/>
      <point x="727" y="402" type="line"/>
      <point x="727" y="527" type="line"/>
      <point x="587" y="527" type="line"/>
      <point x="632" y="714" type="line"/>
      <point x="498" y="714" type="line"/>
      <point x="454" y="527" type="line"/>
      <point x="338" y="527" type="line"/>
      <point x="382" y="714" type="line"/>
      <point x="248" y="714" type="line"/>
      <point x="204" y="527" type="line"/>
      <point x="35" y="527" type="line"/>
      <point x="35" y="402" type="line"/>
      <point x="182" y="402" type="line"/>
      <point x="155" y="311" type="line"/>
      <point x="-5" y="311" type="line"/>
      <point x="-5" y="189" type="line"/>
      <point x="133" y="189" type="line"/>
    </contour>
    <contour>
      <point x="288" y="311" type="line"/>
      <point x="316" y="402" type="line"/>
      <point x="432" y="402" type="line"/>
      <point x="405" y="311" type="line"/>
    </contour>
  </outline>
</glyph>
<glyph name="dollar" format="2">
  <advance width="720"/>
  <unicode hex="0024"/>
  <outline>
    <contour>
      <point x="315" y="-58" type="line"/>
      <point x="410" y="-58" type="line"/>
      <point x="410" y="28" type="line"/>
      <point x="568" y="47"/>
      <point x="652" y="128"/>
      <point x="652" y="235" type="curve" smooth="yes"/>
      <point x="652" y="339"/>
      <point x="571" y="386"/>
      <point x="410" y="429" type="curve"/>
      <point x="410" y="557" type="line"/>
      <point x="469" y="552"/>
      <point x="532" y="540"/>
      <point x="587" y="517" type="curve"/>
      <point x="633" y="649" type="line"/>
      <point x="563" y="674"/>
      <point x="494" y="692"/>
      <point x="410" y="696" type="curve"/>
      <point x="410" y="760" type="line"/>
      <point x="315" y="760" type="line"/>
      <point x="315" y="695" type="line"/>
      <point x="168" y="684"/>
      <point x="71" y="623"/>
      <point x="71" y="506" type="curve" smooth="yes"/>
      <point x="71" y="396"/>
      <point x="158" y="341"/>
      <point x="315" y="299" type="curve"/>
      <point x="315" y="161" type="line"/>
      <point x="236" y="164"/>
      <point x="143" y="190"/>
      <point x="77" y="222" type="curve"/>
      <point x="77" y="68" type="line"/>
      <point x="142" y="44"/>
      <point x="226" y="28"/>
      <point x="315" y="25" type="curve"/>
    </contour>
    <contour>
      <point x="410" y="167" type="curve"/>
      <point x="410" y="270" type="line"/>
      <point x="474" y="257"/>
      <point x="497" y="244"/>
      <point x="497" y="220" type="curve" smooth="yes"/>
      <point x="497" y="192"/>
      <point x="470" y="177"/>
    </contour>
    <contour>
      <point x="315" y="458" type="line"/>
      <point x="252" y="473"/>
      <point x="229" y="484"/>
      <point x="229" y="507" type="curve" smooth="yes"/>
      <point x="229" y="535"/>
      <point x="254" y="549"/>
      <point x="315" y="557" type="curve"/>
    </contour>
  </outline>
</glyph>
<glyph name="percent" format="2">
  <advance width="720"/>
  <unicode hex="0025"/>
  <outline>
    <contour>
      <point x="44" y="35" type="line"/>
      <point x="191" y="35" type="line"/>
      <point x="676" y="679" type="line"/>
      <point x="529" y="679" type="line"/>
    </contour>
    <contour>
      <point x="555" y="-10" type="curve" smooth="yes"/>
      <point x="676" y="-10"/>
      <point x="744" y="52"/>
      <point x="744" y="159" type="curve" smooth="yes"/>
      <point x="744" y="267"/>
      <point x="674" y="329"/>
      <point x="555" y="329" type="curve" smooth="yes"/>
      <point x="438" y="329"/>
      <point x="368" y="268"/>
      <point x="368" y="159" type="curve" smooth="yes"/>
      <point x="368" y="50"/>
      <point x="440" y="-10"/>
    </contour>
    <contour>
      <point x="558" y="99" type="curve" smooth="yes"/>
      <point x="522" y="99"/>
      <point x="505" y="115"/>
      <point x="505" y="159" type="curve" smooth="yes"/>
      <point x="505" y="203"/>
      <point x="522" y="220"/>
      <point x="558" y="220" type="curve" smooth="yes"/>
      <point x="591" y="220"/>
      <point x="606" y="203"/>
      <point x="606" y="159" type="curve" smooth="yes"/>
      <point x="606" y="115"/>
      <point x="591" y="99"/>
    </contour>
    <contour>
      <point x="164" y="385" type="curve" smooth="yes"/>
      <point x="285" y="385"/>
      <point x="354" y="447"/>
      <point x="354" y="554" type="curve" smooth="yes"/>
      <point x="354" y="662"/>
      <point x="283" y="724"/>
      <point x="165" y="724" type="curve" smooth="yes"/>
      <point x="48" y="724"/>
      <point x="-22" y="664"/>
      <point x="-22" y="554" type="curve" smooth="yes"/>
      <point x="-22" y="446"/>
      <point x="50" y="385"/>
    </contour>
    <contour>
      <point x="166" y="495" type="curve" smooth="yes"/>
      <point x="131" y="495"/>
      <point x="115" y="511"/>
      <point x="115" y="554" type="curve" smooth="yes"/>
      <point x="115" y="599"/>
      <point x="131" y="616"/>
      <point x="166" y="616" type="curve" smooth="yes"/>
      <point x="200" y="616"/>
      <point x="216" y="599"/>
      <point x="216" y="554" type="curve" smooth="yes"/>
      <point x="216" y="511"/>
      <point x="200" y="495"/>
    </contour>
  </outline>
</glyph>
<glyph name="ampersand" format="2">
  <advance width="720"/>
  <unicode hex="0026"/>
  <outline>
    <contour>
      <point x="262" y="-10" type="curve" smooth="yes"/>
      <point x="518" y="-10"/>
      <point x="670" y="228"/>
      <point x="697" y="401" type="curve"/>
      <point x="548" y="401" type="line"/>
      <point x="533" y="313"/>
      <point x="433" y="138"/>
      <point x="287" y="138" type="curve" smooth="yes"/>
      <point x="218" y="138"/>
      <point x="177" y="165"/>
      <point x="177" y="206" type="curve" smooth="yes"/>
      <point x="177" y="249"/>
      <point x="232" y="278"/>
      <point x="308" y="327" type="curve" smooth="yes"/>
      <point x="418" y="400"/>
      <point x="521" y="446"/>
      <point x="521" y="558" type="curve" smooth="yes"/>
      <point x="521" y="656"/>
      <point x="445" y="723"/>
      <point x="308" y="723" type="curve" smooth="yes"/>
      <point x="173" y="723"/>
      <point x="90" y="659"/>
      <point x="90" y="552" type="curve" smooth="yes"/>
      <point x="90" y="463"/>
      <point x="153" y="393"/>
      <point x="201" y="342" type="curve" smooth="yes"/>
      <point x="537" y="0" type="line"/>
      <point x="724" y="0" type="line"/>
      <point x="316" y="434" type="line" smooth="yes"/>
      <point x="286" y="466"/>
      <point x="241" y="508"/>
      <point x="241" y="555" type="curve" smooth="yes"/>
      <point x="241" y="586"/>
      <point x="268" y="601"/>
      <point x="309" y="601" type="curve" smooth="yes"/>
      <point x="348" y="601"/>
      <point x="374" y="586"/>
      <point x="374" y="562" type="curve" smooth="yes"/>
      <point x="374" y="510"/>
      <point x="284" y="467"/>
      <point x="228" y="435" type="curve" smooth="yes"/>
      <point x="118" y="371"/>
      <point x="13" y="305"/>
      <point x="13" y="183" type="curve" smooth="yes"/>
      <point x="13" y="76"/>
      <point x="99" y="-10"/>
    </contour>
  </outline>
</glyph>
<glyph name="quotesingle" format="2">
  <advance width="720"/>
  <unicode hex="0027"/>
  <outline>
    <contour>
      <point x="292" y="456" type="line"/>
      <point x="430" y="456" type="line"/>
      <point x="456" y="714" type="line"/>
      <point x="266" y="714" type="line"/>
    </contour>
  </outline>
</glyph>
<glyph name="parenleft" format="2">
  <advance width="720"/>
  <unicode hex="0028"/>
  <outline>
    <contour>
      <point x="399" y="-180" type="curve"/>
      <point x="565" y="-180" type="line"/>
      <point x="451" y="-47"/>
      <point x="391" y="100"/>
      <point x="391" y="264" type="curve" smooth="yes"/>
      <point x="391" y="433"/>
      <point x="447" y="586"/>
      <point x="565" y="714" type="curve"/>
      <point x="399" y="714" type="line"/>
      <point x="279" y="600"/>
      <point x="215" y="443"/>
      <point x="215" y="263" type="curve" smooth="yes"/>
      <point x="215" y="84"/>
      <point x="277" y="-65"/>
    </contour>
  </outline>
</glyph>
<glyph name="asterisk" format="2">
  <advance width="720"/>
  <unicode hex="002A"/>
  <outline>
    <contour>
      <point x="463" y="304" type="line"/>
      <point x="593" y="383" type="line"/>
      <point x="460" y="501" type="line"/>
      <point x="655" y="523" type="line"/>
      <point x="624" y="657" type="line"/>
      <point x="419" y="610" type="line"/>
      <point x="439" y="765" type="line"/>
      <point x="280" y="765" type="line"/>
      <point x="302" y="610" type="line"/>
      <point x="100" y="656" type="line"/>
      <point x="67" y="521" type="line"/>
      <point x="263" y="501" type="line"/>
      <point x="130" y="379" type="line"/>
      <point x="261" y="306" type="line"/>
      <point x="359" y="433" type="line"/>
    </contour>
  </outline>
</glyph>
<glyph name="plus" format="2">
  <advance width="720"/>
  <unicode hex="002B"/>
  <outline>
    <contour>
      <point x="288" y="110" type="line"/>
      <point x="434" y="110" type="line"/>
      <point x="434" y="284" type="line"/>
      <point x="655" y="284" type="line"/>
      <point x="655" y="422" type="line"/>
      <point x="434" y="422" type="line"/>
      <point x="434" y="599" type="line"/>
      <point x="288" y="599" type="line"/>
      <point x="288" y="422" type="line"/>
      <point x="67" y="422" type="line"/>
      <point x="67" y="284" type="line"/>
      <point x="288" y="284" type="line"/>
    </contour>
  </outline>
</glyph>
<glyph name="comma" format="2">
  <advance width="720"/>
  <unicode hex="002C"/>
  <outline>
    <contour>
      <point x="226" y="-157" type="curve"/>
      <point x="374" y="-157" type="line"/>
      <point x="418" y="-138"/>
      <point x="464" y="62"/>
      <point x="488" y="142" type="curve"/>
      <point x="478" y="148" type="line"/>
      <point x="307" y="198" type="line"/>
      <point x="278" y="72"/>
      <point x="251" y="-137"/>
    </contour>
  </outline>
</glyph>
<glyph name="period" format="2">
  <advance width="720"/>
  <unicode hex="002E"/>
  <outline>
    <contour>
      <point x="362" y="-7" type="curve" smooth="yes"/>
      <point x="424" y="-7"/>
      <point x="472" y="21"/>
      <point x="472" y="86" type="curve" smooth="yes"/>
      <point x="472" y="153"/>
      <point x="424" y="181"/>
      <point x="362" y="181" type="curve" smooth="yes"/>
      <point x="298" y="181"/>
      <point x="250" y="153"/>
      <point x="250" y="86" type="curve" smooth="yes"/>
      <point x="250" y="21"/>
      <point x="299" y="-7"/>
    </contour>
  </outline>
</glyph>
<glyph name="slash" format="2">
  <advance width="720"/>
  <unicode hex="002F"/>
  <outline>
    <contour>
      <point x="93" y="-11" type="line"/>
      <point x="260" y="-11" type="line"/>
      <point x="629" y="725" type="line"/>
      <point x="462" y="725" type="line"/>
    </contour>
  </outline>
</glyph>
<glyph name="zero" format="2">
  <advance width="720"/>
  <unicode hex="0030"/>
  <outline>
    <contour>
      <point x="359" y="-10" type="curve" smooth="yes"/>
      <point x="607" y="-10"/>
      <point x="688" y="144"/>
      <point x="688" y="356" type="curve" smooth="yes"/>
      <point x="688" y="596"/>
      <point x="582" y="724"/>
      <point x="359" y="724" type="curve" smooth="yes"/>
      <point x="129" y="724"/>
      <point x="33" y="603"/>
      <point x="33" y="356" type="curve" smooth="yes"/>
      <point x="33" y="118"/>
      <point x="137" y="-10"/>
    </contour>
    <contour>
      <point x="228" y="110" type="line"/>
      <point x="578" y="522" type="line"/>
      <point x="480" y="594" type="line"/>
      <point x="130" y="181" type="line"/>
    </contour>
    <contour>
      <point x="359" y="149" type="curve" smooth="yes"/>
      <point x="244" y="149"/>
      <point x="206" y="215"/>
      <point x="206" y="356" type="curve" smooth="yes"/>
      <point x="206" y="495"/>
      <point x="247" y="566"/>
      <point x="359" y="566" type="curve" smooth="yes"/>
      <point x="474" y="566"/>
      <point x="516" y="496"/>
      <point x="516" y="356" type="curve" smooth="yes"/>
      <point x="516" y="213"/>
      <point x="474" y="149"/>
    </contour>
  </outline>
</glyph>
<glyph name="one" format="2">
  <advance width="720"/>
  <unicode hex="0031"/>
  <outline>
    <contour>
      <point x="294" y="0" type="line"/>
      <point x="482" y="0" type="line"/>
      <point x="482" y="714" type="line"/>
      <point x="319" y="714" type="line"/>
      <point x="51" y="589" type="line"/>
      <point x="130" y="448" type="line"/>
      <point x="217" y="478" type="line" smooth="yes"/>
      <point x="249" y="489"/>
      <point x="269" y="502"/>
      <point x="298" y="517" type="curve"/>
      <point x="295" y="473"/>
      <point x="294" y="386"/>
      <point x="294" y="355" type="curve" smooth="yes"/>
    </contour>
    <contour>
      <point x="111" y="0" type="line"/>
      <point x="664" y="0" type="line"/>
      <point x="664" y="138" type="line"/>
      <point x="482" y="151" type="line"/>
      <point x="295" y="151" type="line"/>
      <point x="111" y="138" type="line"/>
    </contour>
  </outline>
</glyph>
<glyph name="two" format="2">
  <advance width="720"/>
  <unicode hex="0032"/>
  <outline>
    <contour>
      <point x="48" y="0" type="line"/>
      <point x="686" y="0" type="line"/>
      <point x="686" y="160" type="line"/>
      <point x="304" y="160" type="line"/>
      <point x="304" y="165" type="line"/>
      <point x="451" y="254" type="line" smooth="yes"/>
      <point x="613" y="354"/>
      <point x="666" y="428"/>
      <point x="666" y="508" type="curve" smooth="yes"/>
      <point x="666" y="652"/>
      <point x="535" y="724"/>
      <point x="358" y="724" type="curve" smooth="yes"/>
      <point x="231" y="724"/>
      <point x="133" y="690"/>
      <point x="42" y="604" type="curve"/>
      <point x="143" y="480" type="line"/>
      <point x="211" y="539"/>
      <point x="270" y="565"/>
      <point x="344" y="565" type="curve" smooth="yes"/>
      <point x="419" y="565"/>
      <point x="468" y="544"/>
      <point x="468" y="497" type="curve" smooth="yes"/>
      <point x="468" y="440"/>
      <point x="410" y="393"/>
      <point x="255" y="282" type="curve" smooth="yes"/>
      <point x="47" y="129" type="line"/>
    </contour>
  </outline>
</glyph>
<glyph name="three" format="2">
  <advance width="720"/>
  <unicode hex="0033"/>
  <outline>
    <contour>
      <point x="305" y="-9" type="curve" smooth="yes"/>
      <point x="533" y="-9"/>
      <point x="664" y="77"/>
      <point x="664" y="208" type="curve" smooth="yes"/>
      <point x="664" y="306"/>
      <point x="584" y="352"/>
      <point x="462" y="368" type="curve"/>
      <point x="462" y="371" type="line"/>
      <point x="560" y="400"/>
      <point x="636" y="453"/>
      <point x="636" y="548" type="curve" smooth="yes"/>
      <point x="636" y="665"/>
      <point x="533" y="724"/>
      <point x="351" y="724" type="curve" smooth="yes"/>
      <point x="233" y="724"/>
      <point x="134" y="700"/>
      <point x="59" y="656" type="curve"/>
      <point x="138" y="525" type="line"/>
      <point x="193" y="551"/>
      <point x="263" y="568"/>
      <point x="333" y="568" type="curve" smooth="yes"/>
      <point x="408" y="568"/>
      <point x="453" y="554"/>
      <point x="453" y="509" type="curve" smooth="yes"/>
      <point x="453" y="457"/>
      <point x="394" y="436"/>
      <point x="251" y="436" type="curve" smooth="yes"/>
      <point x="184" y="436" type="line"/>
      <point x="184" y="284" type="line"/>
      <point x="251" y="284" type="line" smooth="yes"/>
      <point x="407" y="284"/>
      <point x="469" y="263"/>
      <point x="469" y="215" type="curve" smooth="yes"/>
      <point x="469" y="168"/>
      <point x="415" y="141"/>
      <point x="301" y="141" type="curve" smooth="yes"/>
      <point x="228" y="141"/>
      <point x="136" y="158"/>
      <point x="59" y="188" type="curve"/>
      <point x="59" y="28" type="line"/>
      <point x="143" y="2"/>
      <point x="229" y="-9"/>
    </contour>
  </outline>
</glyph>
<glyph name="four" format="2">
  <advance width="720"/>
  <unicode hex="0034"/>
  <outline>
    <contour>
      <point x="396" y="0" type="line"/>
      <point x="577" y="0" type="line"/>
      <point x="577" y="138" type="line"/>
      <point x="698" y="138" type="line"/>
      <point x="698" y="285" type="line"/>
      <point x="577" y="285" type="line"/>
      <point x="577" y="713" type="line"/>
      <point x="391" y="713" type="line"/>
      <point x="24" y="282" type="line"/>
      <point x="24" y="138" type="line"/>
      <point x="396" y="138" type="line"/>
    </contour>
    <contour>
      <point x="190" y="285" type="line"/>
      <point x="335" y="391" type="line" smooth="yes"/>
      <point x="355" y="407"/>
      <point x="379" y="436"/>
      <point x="394" y="466" type="curve"/>
      <point x="400" y="466" type="line"/>
      <point x="399" y="420"/>
      <point x="396" y="379"/>
      <point x="396" y="368" type="curve" smooth="yes"/>
      <point x="396" y="285" type="line"/>
    </contour>
  </outline>
</glyph>
<glyph name="five" format="2">
  <advance width="720"/>
  <unicode hex="0035"/>
  <outline>
    <contour>
      <point x="300" y="-10" type="curve" smooth="yes"/>
      <point x="528" y="-10"/>
      <point x="661" y="77"/>
      <point x="661" y="246" type="curve" smooth="yes"/>
      <point x="661" y="382"/>
      <point x="551" y="473"/>
      <point x="385" y="473" type="curve" smooth="yes"/>
      <point x="352" y="473"/>
      <point x="310" y="471"/>
      <point x="269" y="464" type="curve"/>
      <point x="285" y="554" type="line"/>
      <point x="607" y="554" type="line"/>
      <point x="607" y="714" type="line"/>
      <point x="108" y="714" type="line"/>
      <point x="76" y="336" type="line"/>
      <point x="147" y="300" type="line"/>
      <point x="189" y="311"/>
      <point x="244" y="317"/>
      <point x="289" y="317" type="curve" smooth="yes"/>
      <point x="398" y="317"/>
      <point x="462" y="286"/>
      <point x="462" y="234" type="curve" smooth="yes"/>
      <point x="462" y="179"/>
      <point x="398" y="148"/>
      <point x="291" y="148" type="curve" smooth="yes"/>
      <point x="206" y="148"/>
      <point x="124" y="171"/>
      <point x="60" y="193" type="curve"/>
      <point x="60" y="28" type="line"/>
      <point x="126" y="3"/>
      <point x="213" y="-10"/>
    </contour>
  </outline>
</glyph>
<glyph name="six" format="2">
  <advance width="720"/>
  <unicode hex="0036"/>
  <outline>
    <contour>
      <point x="372" y="-10" type="curve" smooth="yes"/>
      <point x="559" y="-10"/>
      <point x="681" y="88"/>
      <point x="681" y="246" type="curve" smooth="yes"/>
      <point x="681" y="394"/>
      <point x="581" y="480"/>
      <point x="424" y="480" type="curve" smooth="yes"/>
      <point x="330" y="480"/>
      <point x="263" y="450"/>
      <point x="231" y="397" type="curve"/>
      <point x="225" y="397" type="line"/>
      <point x="233" y="520"/>
      <point x="309" y="569"/>
      <point x="496" y="569" type="curve" smooth="yes"/>
      <point x="536" y="569"/>
      <point x="580" y="566"/>
      <point x="618" y="560" type="curve"/>
      <point x="618" y="716" type="line"/>
      <point x="576" y="721"/>
      <point x="520" y="724"/>
      <point x="479" y="724" type="curve" smooth="yes"/>
      <point x="120" y="724"/>
      <point x="41" y="513"/>
      <point x="41" y="301" type="curve" smooth="yes"/>
      <point x="41" y="100"/>
      <point x="173" y="-10"/>
    </contour>
    <contour>
      <point x="368" y="150" type="curve" smooth="yes"/>
      <point x="284" y="150"/>
      <point x="237" y="179"/>
      <point x="237" y="236" type="curve" smooth="yes"/>
      <point x="237" y="285"/>
      <point x="287" y="325"/>
      <point x="371" y="325" type="curve" smooth="yes"/>
      <point x="452" y="325"/>
      <point x="489" y="294"/>
      <point x="489" y="237" type="curve" smooth="yes"/>
      <point x="489" y="177"/>
      <point x="439" y="150"/>
    </contour>
  </outline>
</glyph>
<glyph name="seven" format="2">
  <advance width="720"/>
  <unicode hex="0037"/>
  <outline>
    <contour>
      <point x="150" y="0" type="line"/>
      <point x="355" y="0" type="line"/>
      <point x="682" y="592" type="line"/>
      <point x="682" y="714" type="line"/>
      <point x="38" y="714" type="line"/>
      <point x="38" y="553" type="line"/>
      <point x="482" y="553" type="line"/>
    </contour>
  </outline>
</glyph>
<glyph name="eight" format="2">
  <advance width="720"/>
  <unicode hex="0038"/>
  <outline>
    <contour>
      <point x="355" y="-10" type="curve" smooth="yes"/>
      <point x="559" y="-10"/>
      <point x="673" y="68"/>
      <point x="673" y="185" type="curve" smooth="yes"/>
      <point x="673" y="268"/>
      <point x="601" y="322"/>
      <point x="484" y="375" type="curve"/>
      <point x="588" y="415"/>
      <point x="650" y="471"/>
      <point x="650" y="549" type="curve" smooth="yes"/>
      <point x="650" y="663"/>
      <point x="533" y="724"/>
      <point x="362" y="724" type="curve" smooth="yes"/>
      <point x="192" y="724"/>
      <point x="76" y="663"/>
      <point x="76" y="550" type="curve" smooth="yes"/>
      <point x="76" y="478"/>
      <point x="132" y="422"/>
      <point x="216" y="373" type="curve"/>
      <point x="114" y="327"/>
      <point x="47" y="272"/>
      <point x="47" y="189" type="curve" smooth="yes"/>
      <point x="47" y="66"/>
      <point x="157" y="-10"/>
    </contour>
    <contour>
      <point x="360" y="135" type="curve" smooth="yes"/>
      <point x="271" y="135"/>
      <point x="230" y="153"/>
      <point x="230" y="195" type="curve" smooth="yes"/>
      <point x="230" y="229"/>
      <point x="277" y="256"/>
      <point x="350" y="283" type="curve"/>
      <point x="437" y="253"/>
      <point x="492" y="232"/>
      <point x="492" y="190" type="curve" smooth="yes"/>
      <point x="492" y="154"/>
      <point x="441" y="135"/>
    </contour>
    <contour>
      <point x="361" y="466" type="curve"/>
      <point x="304" y="488"/>
      <point x="258" y="507"/>
      <point x="258" y="534" type="curve" smooth="yes"/>
      <point x="258" y="561"/>
      <point x="300" y="580"/>
      <point x="362" y="580" type="curve" smooth="yes"/>
      <point x="421" y="580"/>
      <point x="467" y="566"/>
      <point x="467" y="534" type="curve" smooth="yes"/>
      <point x="467" y="508"/>
      <point x="425" y="489"/>
    </contour>
  </outline>
</glyph>
<glyph name="nine" format="2">
  <advance width="720"/>
  <unicode hex="0039"/>
  <outline>
    <contour>
      <point x="246" y="-10" type="curve" smooth="yes"/>
      <point x="598" y="-10"/>
      <point x="680" y="196"/>
      <point x="680" y="413" type="curve" smooth="yes"/>
      <point x="680" y="613"/>
      <point x="547" y="724"/>
      <point x="350" y="724" type="curve" smooth="yes"/>
      <point x="160" y="724"/>
      <point x="40" y="626"/>
      <point x="40" y="467" type="curve" smooth="yes"/>
      <point x="40" y="321"/>
      <point x="141" y="234"/>
      <point x="298" y="234" type="curve" smooth="yes"/>
      <point x="389" y="234"/>
      <point x="458" y="264"/>
      <point x="490" y="317" type="curve"/>
      <point x="497" y="317" type="line"/>
      <point x="489" y="194"/>
      <point x="411" y="145"/>
      <point x="228" y="145" type="curve" smooth="yes"/>
      <point x="188" y="145"/>
      <point x="145" y="148"/>
      <point x="107" y="154" type="curve"/>
      <point x="107" y="-2" type="line"/>
      <point x="148" y="-7"/>
      <point x="202" y="-10"/>
    </contour>
    <contour>
      <point x="349" y="389" type="curve" smooth="yes"/>
      <point x="273" y="389"/>
      <point x="231" y="421"/>
      <point x="231" y="476" type="curve" smooth="yes"/>
      <point x="231" y="538"/>
      <point x="280" y="564"/>
      <point x="353" y="564" type="curve" smooth="yes"/>
      <point x="439" y="564"/>
      <point x="484" y="537"/>
      <point x="484" y="477" type="curve" smooth="yes"/>
      <point x="484" y="434"/>
      <point x="433" y="389"/>
    </contour>
  </outline>
</glyph>
<glyph name="colon" format="2">
  <advance width="720"/>
  <unicode hex="003A"/>
  <outline>
    <contour>
      <point x="363" y="372" type="curve" smooth="yes"/>
      <point x="424" y="372"/>
      <point x="472" y="400"/>
      <point x="472" y="466" type="curve" smooth="yes"/>
      <point x="472" y="532"/>
      <point x="424" y="561"/>
      <point x="363" y="561" type="curve" smooth="yes"/>
      <point x="299" y="561"/>
      <point x="251" y="532"/>
      <point x="251" y="466" type="curve" smooth="yes"/>
      <point x="251" y="400"/>
      <point x="300" y="372"/>
    </contour>
    <contour>
      <point x="362" y="-7" type="curve" smooth="yes"/>
      <point x="424" y="-7"/>
      <point x="471" y="21"/>
      <point x="471" y="86" type="curve" smooth="yes"/>
      <point x="471" y="153"/>
      <point x="424" y="181"/>
      <point x="362" y="181" type="curve" smooth="yes"/>
      <point x="298" y="181"/>
      <point x="250" y="153"/>
      <point x="250" y="86" type="curve" smooth="yes"/>
      <point x="250" y="21"/>
      <point x="299" y="-7"/>
    </contour>
  </outline>
</glyph>
<glyph name="semicolon" format="2">
  <advance width="720"/>
  <unicode hex="003B"/>
  <outline>
    <contour>
      <point x="220" y="-158" type="curve" smooth="yes"/>
      <point x="370" y="-158" type="line"/>
      <point x="413" y="-139"/>
      <point x="459" y="61"/>
      <point x="483" y="141" type="curve"/>
      <point x="473" y="147" type="line"/>
      <point x="302" y="197" type="line"/>
      <point x="273" y="71"/>
      <point x="246" y="-158"/>
    </contour>
    <contour>
      <point x="385" y="371" type="curve" smooth="yes"/>
      <point x="447" y="371"/>
      <point x="496" y="400"/>
      <point x="496" y="467" type="curve" smooth="yes"/>
      <point x="496" y="535"/>
      <point x="448" y="564"/>
      <point x="385" y="564" type="curve" smooth="yes"/>
      <point x="320" y="564"/>
      <point x="272" y="535"/>
      <point x="272" y="467" type="curve" smooth="yes"/>
      <point x="272" y="400"/>
      <point x="321" y="371"/>
    </contour>
  </outline>
</glyph>
<glyph name="equal" format="2">
  <advance width="720"/>
  <unicode hex="003D"/>
  <outline>
    <contour>
      <point x="65" y="387" type="line"/>
      <point x="656" y="387" type="line"/>
      <point x="656" y="534" type="line"/>
      <point x="65" y="534" type="line"/>
    </contour>
    <contour>
      <point x="65" y="150" type="line"/>
      <point x="656" y="150" type="line"/>
      <point x="656" y="297" type="line"/>
      <point x="65" y="297" type="line"/>
    </contour>
  </outline>
</glyph>
<glyph name="greater" format="2">
  <advance width="720"/>
  <unicode hex="003E"/>
  <outline>
    <contour>
      <point x="77" y="101" type="line"/>
      <point x="645" y="314" type="line"/>
      <point x="645" y="401" type="line"/>
      <point x="77" y="620" type="line"/>
      <point x="77" y="468" type="line"/>
      <point x="449" y="360" type="line"/>
      <point x="77" y="253" type="line"/>
    </contour>
  </outline>
</glyph>
<glyph name="question" format="2">
  <advance width="720"/>
  <unicode hex="003F"/>
  <outline>
    <contour>
      <point x="245" y="258" type="line"/>
      <point x="412" y="258" type="line"/>
      <point x="412" y="285" type="line" smooth="yes"/>
      <point x="412" y="313"/>
      <point x="427" y="331"/>
      <point x="506" y="366" type="curve" smooth="yes"/>
      <point x="604" y="410"/>
      <point x="643" y="470"/>
      <point x="643" y="546" type="curve" smooth="yes"/>
      <point x="643" y="653"/>
      <point x="539" y="724"/>
      <point x="361" y="724" type="curve" smooth="yes"/>
      <point x="250" y="724"/>
      <point x="162" y="698"/>
      <point x="78" y="653" type="curve"/>
      <point x="146" y="515" type="line"/>
      <point x="221" y="553"/>
      <point x="284" y="571"/>
      <point x="351" y="571" type="curve" smooth="yes"/>
      <point x="419" y="571"/>
      <point x="457" y="556"/>
      <point x="457" y="529" type="curve" smooth="yes"/>
      <point x="457" y="506"/>
      <point x="440" y="480"/>
      <point x="363" y="444" type="curve" smooth="yes"/>
      <point x="273" y="403"/>
      <point x="245" y="362"/>
      <point x="245" y="302" type="curve" smooth="yes"/>
    </contour>
    <contour>
      <point x="331" y="-12" type="curve" smooth="yes"/>
      <point x="394" y="-12"/>
      <point x="443" y="17"/>
      <point x="443" y="83" type="curve" smooth="yes"/>
      <point x="443" y="152"/>
      <point x="394" y="180"/>
      <point x="331" y="180" type="curve" smooth="yes"/>
      <point x="267" y="180"/>
      <point x="218" y="152"/>
      <point x="218" y="83" type="curve" smooth="yes"/>
      <point x="218" y="17"/>
      <point x="268" y="-12"/>
    </contour>
  </outline>
</glyph>
<glyph name="at" format="2">
  <advance width="720"/>
  <unicode hex="0040"/>
  <outline>
    <contour>
      <point x="386" y="-87" type="curve" smooth="yes"/>
      <point x="467" y="-87"/>
      <point x="543" y="-73"/>
      <point x="606" y="-47" type="curve"/>
      <point x="606" y="52" type="line"/>
      <point x="536" y="25"/>
      <point x="465" y="13"/>
      <point x="389" y="13" type="curve" smooth="yes"/>
      <point x="191" y="13"/>
      <point x="98" y="128"/>
      <point x="98" y="292" type="curve" smooth="yes"/>
      <point x="98" y="486"/>
      <point x="209" y="612"/>
      <point x="385" y="612" type="curve" smooth="yes"/>
      <point x="536" y="612"/>
      <point x="625" y="519"/>
      <point x="625" y="362" type="curve" smooth="yes"/>
      <point x="625" y="275"/>
      <point x="607" y="206"/>
      <point x="571" y="206" type="curve" smooth="yes"/>
      <point x="555" y="206"/>
      <point x="543" y="223"/>
      <point x="543" y="258" type="curve" smooth="yes"/>
      <point x="543" y="266"/>
      <point x="543" y="287"/>
      <point x="544" y="300" type="curve" smooth="yes"/>
      <point x="555" y="492" type="line"/>
      <point x="515" y="507"/>
      <point x="453" y="522"/>
      <point x="393" y="522" type="curve" smooth="yes"/>
      <point x="251" y="522"/>
      <point x="167" y="430"/>
      <point x="167" y="298" type="curve" smooth="yes"/>
      <point x="167" y="184"/>
      <point x="226" y="107"/>
      <point x="329" y="107" type="curve" smooth="yes"/>
      <point x="387" y="107"/>
      <point x="429" y="125"/>
      <point x="456" y="157" type="curve"/>
      <point x="461" y="157" type="line"/>
      <point x="477" y="119"/>
      <point x="515" y="107"/>
      <point x="566" y="107" type="curve" smooth="yes"/>
      <point x="686" y="107"/>
      <point x="738" y="230"/>
      <point x="738" y="371" type="curve" smooth="yes"/>
      <point x="738" y="578"/>
      <point x="598" y="714"/>
      <point x="383" y="714" type="curve" smooth="yes"/>
      <point x="138" y="714"/>
      <point x="-16" y="548"/>
      <point x="-16" y="286" type="curve" smooth="yes"/>
      <point x="-16" y="56"/>
      <point x="126" y="-87"/>
    </contour>
    <contour>
      <point x="351" y="206" type="curve" smooth="yes"/>
      <point x="314" y="206"/>
      <point x="290" y="237"/>
      <point x="290" y="299" type="curve" smooth="yes"/>
      <point x="290" y="372"/>
      <point x="320" y="422"/>
      <point x="391" y="422" type="curve" smooth="yes"/>
      <point x="406" y="422"/>
      <point x="418" y="421"/>
      <point x="431" y="420" type="curve"/>
      <point x="426" y="352" type="line" smooth="yes"/>
      <point x="417" y="244"/>
      <point x="400" y="206"/>
    </contour>
  </outline>
</glyph>
<glyph name="A" format="2">
  <advance width="720"/>
  <unicode hex="0041"/>
  <anchor x="361" y="0" name="bottom"/>
  <anchor x="668" y="10" name="ogonek"/>
  <anchor x="361" y="714" name="top"/>
  <anchor x="718" y="714" name="topright"/>
  <outline>
    <contour>
      <point x="-9" y="0" type="line"/>
      <point x="176" y="0" type="line"/>
      <point x="318" y="414" type="line" smooth="yes"/>
      <point x="336" y="466"/>
      <point x="352" y="547"/>
      <point x="362" y="592" type="curve"/>
      <point x="371" y="547"/>
      <point x="388" y="465"/>
      <point x="406" y="414" type="curve" smooth="yes"/>
      <point x="544" y="0" type="line"/>
      <point x="730" y="0" type="line"/>
      <point x="481" y="717" type="line"/>
      <point x="239" y="717" type="line"/>
    </contour>
    <contour>
      <point x="190" y="137" type="line"/>
      <point x="526" y="137" type="line"/>
      <point x="504" y="287" type="line"/>
      <point x="216" y="287" type="line"/>
    </contour>
  </outline>
</glyph>
<glyph name="B" format="2">
  <advance width="720"/>
  <unicode hex="0042"/>
  <anchor x="361" y="0" name="bottom"/>
  <anchor x="361" y="714" name="top"/>
  <anchor x="718" y="714" name="topright"/>
  <outline>
    <contour>
      <point x="69" y="0" type="line"/>
      <point x="384" y="0" type="line" smooth="yes"/>
      <point x="575" y="0"/>
      <point x="695" y="79"/>
      <point x="695" y="213" type="curve" smooth="yes"/>
      <point x="695" y="305"/>
      <point x="626" y="354"/>
      <point x="531" y="374" type="curve"/>
      <point x="531" y="379" type="line"/>
      <point x="612" y="394"/>
      <point x="675" y="447"/>
      <point x="675" y="539" type="curve" smooth="yes"/>
      <point x="675" y="654"/>
      <point x="565" y="714"/>
      <point x="353" y="714" type="curve" smooth="yes"/>
      <point x="69" y="714" type="line"/>
    </contour>
    <contour>
      <point x="242" y="147" type="line"/>
      <point x="242" y="301" type="line"/>
      <point x="361" y="301" type="line" smooth="yes"/>
      <point x="472" y="301"/>
      <point x="513" y="269"/>
      <point x="513" y="226" type="curve" smooth="yes"/>
      <point x="513" y="184"/>
      <point x="473" y="147"/>
      <point x="366" y="147" type="curve" smooth="yes"/>
    </contour>
    <contour>
      <point x="242" y="436" type="line"/>
      <point x="242" y="567" type="line"/>
      <point x="346" y="567" type="line" smooth="yes"/>
      <point x="452" y="567"/>
      <point x="496" y="543"/>
      <point x="496" y="506" type="curve" smooth="yes"/>
      <point x="496" y="468"/>
      <point x="452" y="436"/>
      <point x="356" y="436" type="curve" smooth="yes"/>
    </contour>
  </outline>
</glyph>
<glyph name="C" format="2">
  <advance width="720"/>
  <unicode hex="0043"/>
  <anchor x="423" y="0" name="bottom"/>
  <anchor x="435" y="714" name="top"/>
  <anchor x="718" y="714" name="topright"/>
  <outline>
    <contour>
      <point x="423" y="-10" type="curve" smooth="yes"/>
      <point x="504" y="-10"/>
      <point x="585" y="4"/>
      <point x="660" y="33" type="curve"/>
      <point x="660" y="202" type="line"/>
      <point x="593" y="170"/>
      <point x="515" y="152"/>
      <point x="449" y="152" type="curve" smooth="yes"/>
      <point x="298" y="152"/>
      <point x="230" y="206"/>
      <point x="230" y="347" type="curve" smooth="yes"/>
      <point x="230" y="478"/>
      <point x="301" y="561"/>
      <point x="462" y="561" type="curve" smooth="yes"/>
      <point x="517" y="561"/>
      <point x="584" y="552"/>
      <point x="641" y="528" type="curve"/>
      <point x="697" y="683" type="line"/>
      <point x="620" y="712"/>
      <point x="543" y="724"/>
      <point x="454" y="724" type="curve" smooth="yes"/>
      <point x="193" y="724"/>
      <point x="40" y="584"/>
      <point x="40" y="345" type="curve" smooth="yes"/>
      <point x="40" y="126"/>
      <point x="164" y="-10"/>
    </contour>
  </outline>
</glyph>
<glyph name="D" format="2">
  <advance width="720"/>
  <unicode hex="0044"/>
  <anchor x="303" y="0" name="bottom"/>
  <anchor x="366" y="357" name="center"/>
  <anchor x="339" y="714" name="top"/>
  <anchor x="743" y="714" name="topright"/>
  <outline>
    <contour>
      <point x="40" y="0" type="line"/>
      <point x="285" y="0" type="line" smooth="yes"/>
      <point x="543" y="0"/>
      <point x="708" y="133"/>
      <point x="708" y="373" type="curve" smooth="yes"/>
      <point x="708" y="590"/>
      <point x="556" y="714"/>
      <point x="303" y="714" type="curve" smooth="yes"/>
      <point x="40" y="714" type="line"/>
    </contour>
    <contour>
      <point x="222" y="155" type="line"/>
      <point x="222" y="559" type="line"/>
      <point x="294" y="559" type="line" smooth="yes"/>
      <point x="437" y="559"/>
      <point x="517" y="496"/>
      <point x="517" y="364" type="curve" smooth="yes"/>
      <point x="517" y="230"/>
      <point x="441" y="155"/>
      <point x="277" y="155" type="curve" smooth="yes"/>
    </contour>
  </outline>
</glyph>
<glyph name="E" format="2">
  <advance width="720"/>
  <unicode hex="0045"/>
  <anchor x="366" y="0" name="bottom"/>
  <anchor x="571" y="10" name="ogonek"/>
  <anchor x="366" y="714" name="top"/>
  <anchor x="4" y="714" name="topleft"/>
  <anchor x="718" y="714" name="topright"/>
  <outline>
    <contour>
      <point x="69" y="0" type="line"/>
      <point x="659" y="0" type="line"/>
      <point x="659" y="159" type="line"/>
      <point x="254" y="159" type="line"/>
      <point x="254" y="285" type="line"/>
      <point x="638" y="285" type="line"/>
      <point x="638" y="444" type="line"/>
      <point x="254" y="444" type="line"/>
      <point x="254" y="555" type="line"/>
      <point x="659" y="555" type="line"/>
      <point x="659" y="714" type="line"/>
      <point x="69" y="714" type="line"/>
    </contour>
  </outline>
</glyph>
<glyph name="F" format="2">
  <advance width="720"/>
  <unicode hex="0046"/>
  <anchor x="377" y="0" name="bottom"/>
  <anchor x="377" y="714" name="top"/>
  <anchor x="718" y="714" name="topright"/>
  <outline>
    <contour>
      <point x="69" y="0" type="line"/>
      <point x="254" y="0" type="line"/>
      <point x="254" y="259" type="line"/>
      <point x="638" y="259" type="line"/>
      <point x="638" y="418" type="line"/>
      <point x="254" y="418" type="line"/>
      <point x="254" y="556" type="line"/>
      <point x="659" y="556" type="line"/>
      <point x="659" y="714" type="line"/>
      <point x="69" y="714" type="line"/>
    </contour>
  </outline>
</glyph>
<glyph name="G" format="2">
  <advance width="720"/>
  <unicode hex="0047"/>
  <anchor x="414" y="0" name="bottom"/>
  <anchor x="399" y="714" name="top"/>
  <anchor x="718" y="714" name="topright"/>
  <outline>
    <contour>
      <point x="426" y="-10" type="curve" smooth="yes"/>
      <point x="516" y="-10"/>
      <point x="599" y="1"/>
      <point x="682" y="33" type="curve"/>
      <point x="682" y="424" type="line"/>
      <point x="386" y="424" type="line"/>
      <point x="386" y="276" type="line"/>
      <point x="510" y="276" type="line"/>
      <point x="510" y="159" type="line"/>
      <point x="481" y="153"/>
      <point x="450" y="151"/>
      <point x="417" y="151" type="curve" smooth="yes"/>
      <point x="263" y="151"/>
      <point x="202" y="232"/>
      <point x="202" y="353" type="curve" smooth="yes"/>
      <point x="202" y="494"/>
      <point x="284" y="565"/>
      <point x="447" y="565" type="curve" smooth="yes"/>
      <point x="511" y="565"/>
      <point x="567" y="554"/>
      <point x="619" y="530" type="curve"/>
      <point x="676" y="679" type="line"/>
      <point x="611" y="704"/>
      <point x="531" y="724"/>
      <point x="432" y="724" type="curve" smooth="yes"/>
      <point x="162" y="724"/>
      <point x="14" y="586"/>
      <point x="14" y="347" type="curve" smooth="yes"/>
      <point x="14" y="124"/>
      <point x="147" y="-10"/>
    </contour>
  </outline>
</glyph>
<glyph name="H" format="2">
  <advance width="720"/>
  <unicode hex="0048"/>
  <anchor x="360" y="0" name="bottom"/>
  <anchor x="360" y="373" name="center"/>
  <anchor x="360" y="714" name="top"/>
  <anchor x="4" y="714" name="topleft"/>
  <anchor x="743" y="714" name="topright"/>
  <outline>
    <contour>
      <point x="40" y="0" type="line"/>
      <point x="228" y="0" type="line"/>
      <point x="228" y="291" type="line"/>
      <point x="493" y="291" type="line"/>
      <point x="493" y="0" type="line"/>
      <point x="681" y="0" type="line"/>
      <point x="681" y="714" type="line"/>
      <point x="493" y="714" type="line"/>
      <point x="493" y="450" type="line"/>
      <point x="228" y="450" type="line"/>
      <point x="228" y="714" type="line"/>
      <point x="40" y="714" type="line"/>
    </contour>
  </outline>
</glyph>
<glyph name="I" format="2">
  <advance width="720"/>
  <unicode hex="0049"/>
  <anchor x="360" y="0" name="bottom"/>
  <anchor x="477" y="10" name="ogonek"/>
  <anchor x="360" y="714" name="top"/>
  <anchor x="4" y="714" name="topleft"/>
  <anchor x="718" y="714" name="topright"/>
  <outline>
    <contour>
      <point x="84" y="0" type="line"/>
      <point x="637" y="0" type="line"/>
      <point x="637" y="133" type="line"/>
      <point x="452" y="149" type="line"/>
      <point x="452" y="565" type="line"/>
      <point x="637" y="581" type="line"/>
      <point x="637" y="714" type="line"/>
      <point x="84" y="714" type="line"/>
      <point x="84" y="581" type="line"/>
      <point x="269" y="565" type="line"/>
      <point x="269" y="149" type="line"/>
      <point x="84" y="133" type="line"/>
    </contour>
  </outline>
</glyph>
<glyph name="J" format="2">
  <advance width="720"/>
  <unicode hex="004A"/>
  <anchor x="361" y="0" name="bottom"/>
  <anchor x="520" y="714" name="top"/>
  <anchor x="718" y="714" name="topright"/>
  <outline>
    <contour>
      <point x="283" y="-10" type="curve" smooth="yes"/>
      <point x="514" y="-10"/>
      <point x="614" y="81"/>
      <point x="614" y="270" type="curve" smooth="yes"/>
      <point x="614" y="714" type="line"/>
      <point x="428" y="714" type="line"/>
      <point x="428" y="300" type="line" smooth="yes"/>
      <point x="428" y="200"/>
      <point x="375" y="149"/>
      <point x="254" y="149" type="curve" smooth="yes"/>
      <point x="209" y="149"/>
      <point x="140" y="150"/>
      <point x="73" y="164" type="curve"/>
      <point x="73" y="6" type="line"/>
      <point x="139" y="-6"/>
      <point x="219" y="-10"/>
    </contour>
  </outline>
</glyph>
<glyph name="K" format="2">
  <advance width="720"/>
  <unicode hex="004B"/>
  <anchor x="368" y="0" name="bottom"/>
  <anchor x="360" y="714" name="top"/>
  <anchor x="718" y="714" name="topright"/>
  <outline>
    <contour>
      <point x="40" y="0" type="line"/>
      <point x="224" y="0" type="line"/>
      <point x="224" y="217" type="line"/>
      <point x="302" y="252" type="line"/>
      <point x="491" y="0" type="line"/>
      <point x="703" y="0" type="line"/>
      <point x="435" y="394" type="line"/>
      <point x="701" y="714" type="line"/>
      <point x="496" y="714" type="line"/>
      <point x="296" y="484" type="line" smooth="yes"/>
      <point x="271" y="454"/>
      <point x="247" y="427"/>
      <point x="224" y="395" type="curve"/>
      <point x="224" y="714" type="line"/>
      <point x="40" y="714" type="line"/>
    </contour>
  </outline>
</glyph>
<glyph name="L" format="2">
  <advance width="720"/>
  <unicode hex="004C"/>
  <anchor x="392" y="0" name="bottom"/>
  <anchor x="361" y="357" name="center"/>
  <anchor x="181" y="714" name="top"/>
  <anchor x="562" y="714" name="topright"/>
  <outline>
    <contour>
      <point x="90" y="0" type="line"/>
      <point x="659" y="0" type="line"/>
      <point x="659" y="163" type="line"/>
      <point x="278" y="163" type="line"/>
      <point x="278" y="714" type="line"/>
      <point x="90" y="714" type="line"/>
    </contour>
  </outline>
</glyph>
<glyph name="M" format="2">
  <advance width="720"/>
  <unicode hex="004D"/>
  <anchor x="361" y="0" name="bottom"/>
  <anchor x="364" y="714" name="top"/>
  <anchor x="744" y="714" name="topright"/>
  <outline>
    <contour>
      <point x="21" y="0" type="line"/>
      <point x="184" y="0" type="line"/>
      <point x="183" y="122" type="line" smooth="yes"/>
      <point x="183" y="165"/>
      <point x="157" y="529"/>
      <point x="152" y="553" type="curve"/>
      <point x="159" y="553" type="line"/>
      <point x="271" y="159" type="line"/>
      <point x="451" y="159" type="line"/>
      <point x="562" y="552" type="line"/>
      <point x="568" y="552" type="line"/>
      <point x="564" y="533"/>
      <point x="538" y="164"/>
      <point x="538" y="122" type="curve" smooth="yes"/>
      <point x="537" y="0" type="line"/>
      <point x="701" y="0" type="line"/>
      <point x="701" y="714" type="line"/>
      <point x="450" y="714" type="line"/>
      <point x="363" y="305" type="line"/>
      <point x="358" y="305" type="line"/>
      <point x="272" y="714" type="line"/>
      <point x="21" y="714" type="line"/>
    </contour>
  </outline>
</glyph>
<glyph name="N" format="2">
  <advance width="720"/>
  <unicode hex="004E"/>
  <anchor x="360" y="0" name="bottom"/>
  <anchor x="367" y="714" name="top"/>
  <anchor x="743" y="714" name="topright"/>
  <outline>
    <contour>
      <point x="40" y="0" type="line"/>
      <point x="212" y="0" type="line"/>
      <point x="212" y="312" type="line" smooth="yes"/>
      <point x="212" y="371"/>
      <point x="205" y="410"/>
      <point x="194" y="549" type="curve"/>
      <point x="201" y="549" type="line"/>
      <point x="436" y="0" type="line"/>
      <point x="681" y="0" type="line"/>
      <point x="681" y="714" type="line"/>
      <point x="509" y="714" type="line"/>
      <point x="509" y="392" type="line" smooth="yes"/>
      <point x="509" y="330"/>
      <point x="517" y="248"/>
      <point x="525" y="159" type="curve"/>
      <point x="520" y="159" type="line"/>
      <point x="295" y="714" type="line"/>
      <point x="40" y="714" type="line"/>
    </contour>
  </outline>
</glyph>
<glyph name="O" format="2">
  <advance width="720"/>
  <unicode hex="004F"/>
  <anchor x="361" y="0" name="bottom"/>
  <anchor x="361" y="357" name="center"/>
  <anchor x="362" y="10" name="ogonek"/>
  <anchor x="361" y="714" name="top"/>
  <anchor x="4" y="714" name="topleft"/>
  <anchor x="744" y="714" name="topright"/>
  <outline>
    <contour>
      <point x="361" y="-9" type="curve" smooth="yes"/>
      <point x="602" y="-9"/>
      <point x="708" y="122"/>
      <point x="708" y="357" type="curve" smooth="yes"/>
      <point x="708" y="595"/>
      <point x="601" y="725"/>
      <point x="361" y="725" type="curve" smooth="yes"/>
      <point x="121" y="725"/>
      <point x="14" y="598"/>
      <point x="14" y="359" type="curve" smooth="yes"/>
      <point x="14" y="119"/>
      <point x="121" y="-9"/>
    </contour>
    <contour>
      <point x="362" y="150" type="curve" smooth="yes"/>
      <point x="246" y="150"/>
      <point x="206" y="213"/>
      <point x="206" y="358" type="curve" smooth="yes"/>
      <point x="206" y="505"/>
      <point x="247" y="564"/>
      <point x="362" y="564" type="curve" smooth="yes"/>
      <point x="479" y="564"/>
      <point x="516" y="502"/>
      <point x="516" y="359" type="curve" smooth="yes"/>
      <point x="516" y="217"/>
      <point x="479" y="150"/>
    </contour>
  </outline>
</glyph>
<glyph name="P" format="2">
  <advance width="720"/>
  <unicode hex="0050"/>
  <anchor x="361" y="0" name="bottom"/>
  <anchor x="363" y="714" name="top"/>
  <anchor x="744" y="714" name="topright"/>
  <outline>
    <contour>
      <point x="69" y="0" type="line"/>
      <point x="250" y="0" type="line"/>
      <point x="250" y="233" type="line"/>
      <point x="365" y="233" type="line" smooth="yes"/>
      <point x="605" y="233"/>
      <point x="695" y="344"/>
      <point x="695" y="483" type="curve" smooth="yes"/>
      <point x="695" y="632"/>
      <point x="592" y="714"/>
      <point x="375" y="714" type="curve" smooth="yes"/>
      <point x="69" y="714" type="line"/>
    </contour>
    <contour>
      <point x="250" y="385" type="line"/>
      <point x="250" y="562" type="line"/>
      <point x="356" y="562" type="line" smooth="yes"/>
      <point x="460" y="562"/>
      <point x="508" y="529"/>
      <point x="508" y="479" type="curve" smooth="yes"/>
      <point x="508" y="419"/>
      <point x="452" y="385"/>
      <point x="345" y="385" type="curve" smooth="yes"/>
    </contour>
  </outline>
</glyph>
<glyph name="R" format="2">
  <advance width="720"/>
  <unicode hex="0052"/>
  <anchor x="392" y="0" name="bottom"/>
  <anchor x="361" y="714" name="top"/>
  <anchor x="718" y="714" name="topright"/>
  <outline>
    <contour>
      <point x="69" y="0" type="line"/>
      <point x="249" y="0" type="line"/>
      <point x="249" y="254" type="line"/>
      <point x="353" y="254" type="line"/>
      <point x="523" y="0" type="line"/>
      <point x="726" y="0" type="line"/>
      <point x="512" y="307" type="line"/>
      <point x="608" y="356"/>
      <point x="663" y="419"/>
      <point x="663" y="504" type="curve" smooth="yes"/>
      <point x="663" y="642"/>
      <point x="554" y="714"/>
      <point x="327" y="714" type="curve" smooth="yes"/>
      <point x="69" y="714" type="line"/>
    </contour>
    <contour>
      <point x="249" y="407" type="line"/>
      <point x="249" y="560" type="line"/>
      <point x="328" y="560" type="line" smooth="yes"/>
      <point x="435" y="560"/>
      <point x="481" y="532"/>
      <point x="481" y="488" type="curve" smooth="yes"/>
      <point x="481" y="429"/>
      <point x="426" y="407"/>
      <point x="325" y="407" type="curve" smooth="yes"/>
    </contour>
  </outline>
</glyph>
<glyph name="S" format="2">
  <advance width="720"/>
  <unicode hex="0053"/>
  <anchor x="361" y="0" name="bottom"/>
  <anchor x="382" y="714" name="top"/>
  <anchor x="718" y="714" name="topright"/>
  <outline>
    <contour>
      <point x="331" y="-10" type="curve" smooth="yes"/>
      <point x="575" y="-10"/>
      <point x="674" y="87"/>
      <point x="674" y="200" type="curve" smooth="yes"/>
      <point x="674" y="317"/>
      <point x="578" y="363"/>
      <point x="441" y="421" type="curve" smooth="yes"/>
      <point x="310" y="471"/>
      <point x="270" y="487"/>
      <point x="270" y="518" type="curve" smooth="yes"/>
      <point x="270" y="553"/>
      <point x="321" y="566"/>
      <point x="400" y="566" type="curve" smooth="yes"/>
      <point x="461" y="566"/>
      <point x="533" y="556"/>
      <point x="604" y="524" type="curve"/>
      <point x="663" y="672" type="line"/>
      <point x="587" y="703"/>
      <point x="497" y="725"/>
      <point x="388" y="725" type="curve" smooth="yes"/>
      <point x="180" y="725"/>
      <point x="78" y="650"/>
      <point x="78" y="526" type="curve" smooth="yes"/>
      <point x="78" y="418"/>
      <point x="167" y="367"/>
      <point x="297" y="306" type="curve" smooth="yes"/>
      <point x="427" y="247"/>
      <point x="482" y="242"/>
      <point x="482" y="196" type="curve" smooth="yes"/>
      <point x="482" y="162"/>
      <point x="433" y="149"/>
      <point x="333" y="149" type="curve" smooth="yes"/>
      <point x="245" y="149"/>
      <point x="151" y="166"/>
      <point x="65" y="215" type="curve"/>
      <point x="65" y="36" type="line"/>
      <point x="147" y="1"/>
      <point x="235" y="-10"/>
    </contour>
  </outline>
</glyph>
<glyph name="T" format="2">
  <advance width="720"/>
  <unicode hex="0054"/>
  <anchor x="362" y="0" name="bottom"/>
  <anchor x="361" y="357" name="center"/>
  <anchor x="361" y="714" name="top"/>
  <anchor x="718" y="714" name="topright"/>
  <outline>
    <contour>
      <point x="267" y="0" type="line"/>
      <point x="455" y="0" type="line"/>
      <point x="455" y="556" type="line"/>
      <point x="708" y="556" type="line"/>
      <point x="708" y="714" type="line"/>
      <point x="14" y="714" type="line"/>
      <point x="14" y="556" type="line"/>
      <point x="267" y="556" type="line"/>
    </contour>
  </outline>
</glyph>
<glyph name="U" format="2">
  <advance width="720"/>
  <unicode hex="0055"/>
  <anchor x="360" y="0" name="bottom"/>
  <anchor x="667" y="10" name="ogonek"/>
  <anchor x="360" y="714" name="top"/>
  <anchor x="718" y="714" name="topright"/>
  <outline>
    <contour>
      <point x="359" y="-10" type="curve" smooth="yes"/>
      <point x="583" y="-10"/>
      <point x="681" y="89"/>
      <point x="681" y="269" type="curve" smooth="yes"/>
      <point x="681" y="714" type="line"/>
      <point x="493" y="714" type="line"/>
      <point x="493" y="281" type="line" smooth="yes"/>
      <point x="493" y="181"/>
      <point x="460" y="154"/>
      <point x="359" y="154" type="curve" smooth="yes"/>
      <point x="260" y="154"/>
      <point x="228" y="182"/>
      <point x="228" y="280" type="curve" smooth="yes"/>
      <point x="228" y="714" type="line"/>
      <point x="40" y="714" type="line"/>
      <point x="40" y="264" type="line" smooth="yes"/>
      <point x="40" y="82"/>
      <point x="145" y="-10"/>
    </contour>
  </outline>
</glyph>
<glyph name="V" format="2">
  <advance width="720"/>
  <unicode hex="0056"/>
  <anchor x="361" y="0" name="bottom"/>
  <anchor x="361" y="714" name="top"/>
  <anchor x="718" y="714" name="topright"/>
  <outline>
    <contour>
      <point x="246" y="0" type="line"/>
      <point x="478" y="0" type="line"/>
      <point x="728" y="714" type="line"/>
      <point x="538" y="714" type="line"/>
      <point x="406" y="308" type="line" smooth="yes"/>
      <point x="395" y="271"/>
      <point x="377" y="193"/>
      <point x="367" y="148" type="curve"/>
      <point x="361" y="148" type="line"/>
      <point x="351" y="193"/>
      <point x="333" y="269"/>
      <point x="320" y="308" type="curve" smooth="yes"/>
      <point x="183" y="714" type="line"/>
      <point x="-7" y="714" type="line"/>
    </contour>
  </outline>
</glyph>
<glyph name="W" format="2">
  <advance width="720"/>
  <unicode hex="0057"/>
  <anchor x="361" y="0" name="bottom"/>
  <anchor x="361" y="714" name="top"/>
  <anchor x="718" y="714" name="topright"/>
  <outline>
    <contour>
      <point x="61" y="0" type="line"/>
      <point x="286" y="0" type="line"/>
      <point x="328" y="128" type="line" smooth="yes"/>
      <point x="346" y="180"/>
      <point x="355" y="301"/>
      <point x="358" y="361" type="curve"/>
      <point x="363" y="361" type="line"/>
      <point x="368" y="301"/>
      <point x="376" y="180"/>
      <point x="397" y="128" type="curve" smooth="yes"/>
      <point x="441" y="0" type="line"/>
      <point x="662" y="0" type="line"/>
      <point x="728" y="714" type="line"/>
      <point x="567" y="714" type="line"/>
      <point x="553" y="501"/>
      <point x="547" y="476"/>
      <point x="541" y="387" type="curve" smooth="yes"/>
      <point x="537" y="335"/>
      <point x="533" y="258"/>
      <point x="532" y="147" type="curve"/>
      <point x="526" y="147" type="line"/>
      <point x="518" y="208"/>
      <point x="499" y="342"/>
      <point x="483" y="399" type="curve" smooth="yes"/>
      <point x="442" y="555" type="line"/>
      <point x="281" y="555" type="line"/>
      <point x="241" y="400" type="line" smooth="yes"/>
      <point x="225" y="346"/>
      <point x="202" y="210"/>
      <point x="194" y="148" type="curve"/>
      <point x="189" y="148" type="line"/>
      <point x="188" y="250"/>
      <point x="184" y="324"/>
      <point x="179" y="377" type="curve" smooth="yes"/>
      <point x="173" y="449"/>
      <point x="166" y="485"/>
      <point x="150" y="714" type="curve"/>
      <point x="-7" y="714" type="line"/>
    </contour>
  </outline>
</glyph>
<glyph name="X" format="2">
  <advance width="720"/>
  <unicode hex="0058"/>
  <anchor x="361" y="0" name="bottom"/>
  <anchor x="361" y="714" name="top"/>
  <anchor x="718" y="714" name="topright"/>
  <outline>
    <contour>
      <point x="4" y="0" type="line"/>
      <point x="202" y="0" type="line"/>
      <point x="360" y="198" type="line"/>
      <point x="517" y="0" type="line"/>
      <point x="718" y="0" type="line"/>
      <point x="456" y="367" type="line"/>
      <point x="699" y="714" type="line"/>
      <point x="499" y="714" type="line"/>
      <point x="361" y="536" type="line"/>
      <point x="219" y="714" type="line"/>
      <point x="21" y="714" type="line"/>
      <point x="265" y="366" type="line"/>
    </contour>
  </outline>
</glyph>
<glyph name="Z" format="2">
  <advance width="720"/>
  <unicode hex="005A"/>
  <anchor x="377" y="0" name="bottom"/>
  <anchor x="372" y="714" name="top"/>
  <anchor x="718" y="714" name="topright"/>
  <outline>
    <contour>
      <point x="69" y="0" type="line"/>
      <point x="661" y="0" type="line"/>
      <point x="661" y="159" type="line"/>
      <point x="281" y="159" type="line"/>
      <point x="656" y="588" type="line"/>
      <point x="656" y="714" type="line"/>
      <point x="88" y="714" type="line"/>
      <point x="88" y="559" type="line"/>
      <point x="455" y="559" type="line"/>
      <point x="69" y="126" type="line"/>
    </contour>
  </outline>
</glyph>
<glyph name="bracketleft" format="2">
  <advance width="720"/>
  <unicode hex="005B"/>
  <outline>
    <contour>
      <point x="264" y="-169" type="line"/>
      <point x="583" y="-169" type="line"/>
      <point x="583" y="-40" type="line"/>
      <point x="432" y="-40" type="line"/>
      <point x="432" y="607" type="line"/>
      <point x="583" y="607" type="line"/>
      <point x="583" y="736" type="line"/>
      <point x="264" y="736" type="line"/>
    </contour>
  </outline>
</glyph>
<glyph name="asciicircum" format="2">
  <advance width="720"/>
  <unicode hex="005E"/>
  <outline>
    <contour>
      <point x="21" y="246" type="line"/>
      <point x="180" y="246" type="line"/>
      <point x="353" y="496" type="line"/>
      <point x="540" y="246" type="line"/>
      <point x="701" y="246" type="line"/>
      <point x="397" y="715" type="line"/>
      <point x="305" y="715" type="line"/>
    </contour>
  </outline>
</glyph>
<glyph name="grave" format="2">
  <advance width="720"/>
  <unicode hex="0060"/>
  <outline>
    <contour>
      <point x="390" y="606" type="curve"/>
      <point x="518" y="606" type="line"/>
      <point x="518" y="620" type="line"/>
      <point x="484" y="652"/>
      <point x="422" y="725"/>
      <point x="391" y="766" type="curve"/>
      <point x="182" y="766" type="line"/>
      <point x="182" y="756" type="line"/>
      <point x="222" y="721"/>
      <point x="334" y="637"/>
    </contour>
  </outline>
</glyph>
<glyph name="a" format="2">
  <advance width="720"/>
  <unicode hex="0061"/>
  <anchor x="367" y="0" name="bottom"/>
  <anchor x="667" y="10" name="ogonek"/>
  <anchor x="372" y="556" name="top"/>
  <anchor x="722" y="556" name="topright"/>
  <outline>
    <contour>
      <point x="275" y="-10" type="curve" smooth="yes"/>
      <point x="348" y="-10"/>
      <point x="428" y="-2"/>
      <point x="491" y="66" type="curve"/>
      <point x="495" y="66" type="line"/>
      <point x="517" y="0" type="line"/>
      <point x="659" y="0" type="line"/>
      <point x="659" y="379" type="line" smooth="yes"/>
      <point x="659" y="502"/>
      <point x="561" y="566"/>
      <point x="367" y="566" type="curve" smooth="yes"/>
      <point x="263" y="566"/>
      <point x="175" y="551"/>
      <point x="95" y="515" type="curve"/>
      <point x="155" y="387" type="line"/>
      <point x="217" y="410"/>
      <point x="285" y="419"/>
      <point x="347" y="419" type="curve" smooth="yes"/>
      <point x="435" y="419"/>
      <point x="482" y="401"/>
      <point x="482" y="371" type="curve" smooth="yes"/>
      <point x="483" y="354" type="line"/>
      <point x="338" y="350" type="line" smooth="yes"/>
      <point x="158" y="346"/>
      <point x="44" y="296"/>
      <point x="44" y="168" type="curve" smooth="yes"/>
      <point x="44" y="64"/>
      <point x="126" y="-10"/>
    </contour>
    <contour>
      <point x="323" y="136" type="curve" smooth="yes"/>
      <point x="259" y="136"/>
      <point x="219" y="152"/>
      <point x="219" y="184" type="curve" smooth="yes"/>
      <point x="219" y="226"/>
      <point x="274" y="241"/>
      <point x="393" y="241" type="curve" smooth="yes"/>
      <point x="483" y="242" type="line"/>
      <point x="483" y="216" type="line" smooth="yes"/>
      <point x="483" y="162"/>
      <point x="408" y="136"/>
    </contour>
  </outline>
</glyph>
<glyph name="b" format="2">
  <advance width="720"/>
  <unicode hex="0062"/>
  <anchor x="361" y="0" name="bottom"/>
  <anchor x="361" y="760" name="top"/>
  <anchor x="718" y="760" name="topright"/>
  <outline>
    <contour>
      <point x="428" y="-10" type="curve" smooth="yes"/>
      <point x="604" y="-10"/>
      <point x="696" y="131"/>
      <point x="696" y="280" type="curve" smooth="yes"/>
      <point x="696" y="419"/>
      <point x="611" y="566"/>
      <point x="434" y="566" type="curve" smooth="yes"/>
      <point x="347" y="566"/>
      <point x="276" y="544"/>
      <point x="234" y="483" type="curve"/>
      <point x="226" y="483" type="line"/>
      <point x="232" y="537"/>
      <point x="234" y="569"/>
      <point x="234" y="585" type="curve" smooth="yes"/>
      <point x="234" y="760" type="line"/>
      <point x="51" y="760" type="line"/>
      <point x="51" y="0" type="line"/>
      <point x="195" y="0" type="line"/>
      <point x="221" y="54" type="line"/>
      <point x="234" y="54" type="line"/>
      <point x="282" y="4"/>
      <point x="350" y="-10"/>
    </contour>
    <contour>
      <point x="369" y="141" type="curve" smooth="yes"/>
      <point x="280" y="141"/>
      <point x="233" y="174"/>
      <point x="233" y="279" type="curve" smooth="yes"/>
      <point x="233" y="380"/>
      <point x="281" y="414"/>
      <point x="369" y="414" type="curve" smooth="yes"/>
      <point x="463" y="414"/>
      <point x="506" y="374"/>
      <point x="506" y="280" type="curve" smooth="yes"/>
      <point x="506" y="183"/>
      <point x="461" y="141"/>
    </contour>
  </outline>
</glyph>
<glyph name="c" format="2">
  <advance width="720"/>
  <unicode hex="0063"/>
  <anchor x="406" y="0" name="bottom"/>
  <anchor x="392" y="556" name="top"/>
  <anchor x="718" y="556" name="topright"/>
  <outline>
    <contour>
      <point x="408" y="-10" type="curve" smooth="yes"/>
      <point x="485" y="-10"/>
      <point x="567" y="1"/>
      <point x="630" y="33" type="curve"/>
      <point x="630" y="194" type="line"/>
      <point x="567" y="150"/>
      <point x="494" y="140"/>
      <point x="433" y="140" type="curve" smooth="yes"/>
      <point x="321" y="140"/>
      <point x="252" y="179"/>
      <point x="252" y="282" type="curve" smooth="yes"/>
      <point x="252" y="369"/>
      <point x="308" y="415"/>
      <point x="430" y="415" type="curve" smooth="yes"/>
      <point x="484" y="415"/>
      <point x="530" y="408"/>
      <point x="594" y="385" type="curve"/>
      <point x="650" y="522" type="line"/>
      <point x="581" y="552"/>
      <point x="502" y="566"/>
      <point x="416" y="566" type="curve" smooth="yes"/>
      <point x="183" y="566"/>
      <point x="64" y="442"/>
      <point x="64" y="272" type="curve" smooth="yes"/>
      <point x="64" y="88"/>
      <point x="190" y="-10"/>
    </contour>
  </outline>
</glyph>
<glyph name="d" format="2">
  <advance width="720"/>
  <unicode hex="0064"/>
  <anchor x="361" y="0" name="bottom"/>
  <anchor x="361" y="278" name="center"/>
  <anchor x="361" y="760" name="top"/>
  <anchor x="723" y="760" name="topright"/>
  <outline>
    <contour>
      <point x="290" y="-10" type="curve" smooth="yes"/>
      <point x="377" y="-10"/>
      <point x="444" y="13"/>
      <point x="488" y="71" type="curve"/>
      <point x="497" y="71" type="line"/>
      <point x="526" y="0" type="line"/>
      <point x="671" y="0" type="line"/>
      <point x="671" y="760" type="line"/>
      <point x="487" y="760" type="line"/>
      <point x="487" y="612" type="line" smooth="yes"/>
      <point x="487" y="572"/>
      <point x="491" y="545"/>
      <point x="500" y="483" type="curve"/>
      <point x="493" y="483" type="line"/>
      <point x="450" y="545"/>
      <point x="383" y="566"/>
      <point x="300" y="566" type="curve" smooth="yes"/>
      <point x="113" y="566"/>
      <point x="26" y="433"/>
      <point x="26" y="276" type="curve" smooth="yes"/>
      <point x="26" y="132"/>
      <point x="110" y="-10"/>
    </contour>
    <contour>
      <point x="356" y="141" type="curve" smooth="yes"/>
      <point x="264" y="141"/>
      <point x="215" y="180"/>
      <point x="215" y="275" type="curve" smooth="yes"/>
      <point x="215" y="363"/>
      <point x="266" y="414"/>
      <point x="361" y="414" type="curve" smooth="yes"/>
      <point x="465" y="414"/>
      <point x="497" y="366"/>
      <point x="497" y="274" type="curve" smooth="yes"/>
      <point x="497" y="261" type="line" smooth="yes"/>
      <point x="497" y="186"/>
      <point x="454" y="141"/>
    </contour>
  </outline>
</glyph>
<glyph name="e" format="2">
  <advance width="720"/>
  <unicode hex="0065"/>
  <anchor x="374" y="0" name="bottom"/>
  <anchor x="369" y="10" name="ogonek"/>
  <anchor x="368" y="556" name="top"/>
  <anchor x="722" y="556" name="topright"/>
  <outline>
    <contour>
      <point x="407" y="-10" type="curve" smooth="yes"/>
      <point x="487" y="-10"/>
      <point x="576" y="1"/>
      <point x="654" y="29" type="curve"/>
      <point x="654" y="179" type="line"/>
      <point x="587" y="148"/>
      <point x="510" y="134"/>
      <point x="430" y="134" type="curve" smooth="yes"/>
      <point x="311" y="134"/>
      <point x="223" y="162"/>
      <point x="218" y="217" type="curve"/>
      <point x="685" y="217" type="line"/>
      <point x="685" y="300" type="line" smooth="yes"/>
      <point x="685" y="469"/>
      <point x="569" y="566"/>
      <point x="374" y="566" type="curve" smooth="yes"/>
      <point x="158" y="566"/>
      <point x="35" y="451"/>
      <point x="35" y="278" type="curve" smooth="yes"/>
      <point x="35" y="95"/>
      <point x="166" y="-10"/>
    </contour>
    <contour>
      <point x="220" y="339" type="line"/>
      <point x="230" y="392"/>
      <point x="282" y="429"/>
      <point x="372" y="429" type="curve" smooth="yes"/>
      <point x="457" y="429"/>
      <point x="506" y="397"/>
      <point x="509" y="339" type="curve"/>
    </contour>
  </outline>
</glyph>
<glyph name="f" format="2">
  <advance width="720"/>
  <unicode hex="0066"/>
  <anchor x="361" y="0" name="bottom"/>
  <anchor x="488" y="764" name="top"/>
  <anchor x="718" y="765" name="topright"/>
  <outline>
    <contour>
      <point x="245" y="0" type="line"/>
      <point x="433" y="0" type="line"/>
      <point x="433" y="406" type="line"/>
      <point x="662" y="406" type="line"/>
      <point x="662" y="556" type="line"/>
      <point x="433" y="556" type="line"/>
      <point x="433" y="558" type="line" smooth="yes"/>
      <point x="433" y="595"/>
      <point x="470" y="612"/>
      <point x="549" y="612" type="curve" smooth="yes"/>
      <point x="585" y="612"/>
      <point x="631" y="611"/>
      <point x="675" y="596" type="curve"/>
      <point x="719" y="739" type="line"/>
      <point x="655" y="760"/>
      <point x="594" y="765"/>
      <point x="529" y="765" type="curve" smooth="yes"/>
      <point x="342" y="765"/>
      <point x="245" y="691"/>
      <point x="245" y="578" type="curve" smooth="yes"/>
      <point x="245" y="555" type="line"/>
      <point x="42" y="505" type="line"/>
      <point x="42" y="406" type="line"/>
      <point x="245" y="406" type="line"/>
    </contour>
  </outline>
</glyph>
<glyph name="g" format="2">
  <advance width="720"/>
  <unicode hex="0067"/>
  <anchor x="361" y="-245" name="bottom"/>
  <anchor x="361" y="556" name="top"/>
  <anchor x="722" y="556" name="topright"/>
  <outline>
    <contour>
      <point x="310" y="-245" type="curve" smooth="yes"/>
      <point x="564" y="-245"/>
      <point x="671" y="-150"/>
      <point x="671" y="30" type="curve" smooth="yes"/>
      <point x="671" y="555" type="line"/>
      <point x="529" y="555" type="line"/>
      <point x="496" y="485" type="line"/>
      <point x="489" y="485" type="line"/>
      <point x="439" y="541"/>
      <point x="379" y="566"/>
      <point x="296" y="566" type="curve" smooth="yes"/>
      <point x="132" y="566"/>
      <point x="26" y="467"/>
      <point x="26" y="276" type="curve" smooth="yes"/>
      <point x="26" y="95"/>
      <point x="126" y="-10"/>
      <point x="300" y="-10" type="curve" smooth="yes"/>
      <point x="379" y="-10"/>
      <point x="439" y="7"/>
      <point x="488" y="67" type="curve"/>
      <point x="494" y="67" type="line"/>
      <point x="492" y="47"/>
      <point x="492" y="30"/>
      <point x="492" y="4" type="curve" smooth="yes"/>
      <point x="492" y="-2" type="line" smooth="yes"/>
      <point x="492" y="-71"/>
      <point x="432" y="-96"/>
      <point x="305" y="-96" type="curve" smooth="yes"/>
      <point x="234" y="-96"/>
      <point x="151" y="-86"/>
      <point x="66" y="-57" type="curve"/>
      <point x="66" y="-213" type="line"/>
      <point x="146" y="-238"/>
      <point x="225" y="-245"/>
    </contour>
    <contour>
      <point x="361" y="141" type="curve" smooth="yes"/>
      <point x="259" y="141"/>
      <point x="216" y="191"/>
      <point x="216" y="272" type="curve" smooth="yes"/>
      <point x="216" y="369"/>
      <point x="261" y="414"/>
      <point x="360" y="414" type="curve" smooth="yes"/>
      <point x="454" y="414"/>
      <point x="499" y="367"/>
      <point x="499" y="274" type="curve" smooth="yes"/>
      <point x="499" y="259" type="line" smooth="yes"/>
      <point x="499" y="181"/>
      <point x="451" y="141"/>
    </contour>
  </outline>
</glyph>
<glyph name="h" format="2">
  <advance width="720"/>
  <unicode hex="0068"/>
  <anchor x="361" y="0" name="bottom"/>
  <anchor x="361" y="278" name="center"/>
  <anchor x="144" y="760" name="top"/>
  <anchor x="718" y="760" name="topright"/>
  <outline>
    <contour>
      <point x="51" y="0" type="line"/>
      <point x="239" y="0" type="line"/>
      <point x="239" y="245" type="line" smooth="yes"/>
      <point x="239" y="374"/>
      <point x="285" y="413"/>
      <point x="376" y="413" type="curve" smooth="yes"/>
      <point x="460" y="413"/>
      <point x="490" y="370"/>
      <point x="490" y="298" type="curve" smooth="yes"/>
      <point x="490" y="0" type="line"/>
      <point x="679" y="0" type="line"/>
      <point x="679" y="361" type="line" smooth="yes"/>
      <point x="679" y="485"/>
      <point x="593" y="566"/>
      <point x="440" y="566" type="curve" smooth="yes"/>
      <point x="347" y="566"/>
      <point x="281" y="539"/>
      <point x="239" y="488" type="curve"/>
      <point x="228" y="488" type="line"/>
      <point x="233" y="545"/>
      <point x="239" y="598"/>
      <point x="239" y="655" type="curve" smooth="yes"/>
      <point x="239" y="760" type="line"/>
      <point x="51" y="760" type="line"/>
    </contour>
  </outline>
</glyph>
<glyph name="i" format="2">
  <advance width="720"/>
  <unicode hex="0069"/>
  <anchor x="380" y="0" name="bottom"/>
  <anchor x="374" y="779" name="top"/>
  <anchor x="625" y="779" name="topright"/>
  <outline>
    <contour>
      <point x="47" y="0" type="line"/>
      <point x="683" y="0" type="line"/>
      <point x="683" y="132" type="line"/>
      <point x="472" y="148" type="line"/>
      <point x="472" y="556" type="line"/>
      <point x="88" y="556" type="line"/>
      <point x="88" y="421" type="line"/>
      <point x="286" y="406" type="line"/>
      <point x="286" y="148" type="line"/>
      <point x="47" y="132" type="line"/>
    </contour>
    <contour>
      <point x="374" y="598" type="curve" smooth="yes"/>
      <point x="450" y="598"/>
      <point x="489" y="633"/>
      <point x="489" y="690" type="curve" smooth="yes"/>
      <point x="489" y="746"/>
      <point x="449" y="779"/>
      <point x="374" y="779" type="curve" smooth="yes"/>
      <point x="300" y="779"/>
      <point x="259" y="746"/>
      <point x="259" y="690" type="curve" smooth="yes"/>
      <point x="259" y="629"/>
      <point x="302" y="598"/>
    </contour>
  </outline>
</glyph>
<glyph name="j" format="2">
  <advance width="720"/>
  <unicode hex="006A"/>
  <anchor x="260" y="-245" name="bottom"/>
  <anchor x="414" y="779" name="top"/>
  <anchor x="718" y="779" name="topright"/>
  <outline>
    <contour>
      <point x="236" y="-245" type="curve" smooth="yes"/>
      <point x="440" y="-245"/>
      <point x="527" y="-169"/>
      <point x="527" y="-13" type="curve" smooth="yes"/>
      <point x="527" y="556" type="line"/>
      <point x="118" y="556" type="line"/>
      <point x="118" y="419" type="line"/>
      <point x="339" y="406" type="line"/>
      <point x="339" y="29" type="line" smooth="yes"/>
      <point x="339" y="-67"/>
      <point x="307" y="-92"/>
      <point x="204" y="-92" type="curve" smooth="yes"/>
      <point x="160" y="-92"/>
      <point x="89" y="-88"/>
      <point x="29" y="-73" type="curve"/>
      <point x="29" y="-219" type="line"/>
      <point x="94" y="-238"/>
      <point x="174" y="-245"/>
    </contour>
    <contour>
      <point x="421" y="598" type="curve" smooth="yes"/>
      <point x="496" y="598"/>
      <point x="536" y="633"/>
      <point x="536" y="689" type="curve" smooth="yes"/>
      <point x="536" y="746"/>
      <point x="496" y="779"/>
      <point x="421" y="779" type="curve" smooth="yes"/>
      <point x="346" y="779"/>
      <point x="305" y="747"/>
      <point x="305" y="689" type="curve" smooth="yes"/>
      <point x="305" y="629"/>
      <point x="348" y="598"/>
    </contour>
  </outline>
</glyph>
<glyph name="k" format="2">
  <advance width="720"/>
  <unicode hex="006B"/>
  <anchor x="388" y="0" name="bottom"/>
  <anchor x="404" y="760" name="top"/>
  <anchor x="718" y="760" name="topright"/>
  <outline>
    <contour>
      <point x="58" y="0" type="line"/>
      <point x="245" y="0" type="line"/>
      <point x="245" y="144" type="line"/>
      <point x="344" y="199" type="line"/>
      <point x="515" y="0" type="line"/>
      <point x="726" y="0" type="line"/>
      <point x="472" y="321" type="line"/>
      <point x="714" y="556" type="line"/>
      <point x="502" y="556" type="line"/>
      <point x="330" y="403" type="line" smooth="yes"/>
      <point x="290" y="369"/>
      <point x="267" y="338"/>
      <point x="237" y="303" type="curve"/>
      <point x="233" y="303" type="line"/>
      <point x="240" y="349"/>
      <point x="245" y="421"/>
      <point x="245" y="470" type="curve" smooth="yes"/>
      <point x="245" y="760" type="line"/>
      <point x="58" y="760" type="line"/>
    </contour>
  </outline>
</glyph>
<glyph name="l" format="2">
  <advance width="720"/>
  <unicode hex="006C"/>
  <anchor x="383" y="0" name="bottom"/>
  <anchor x="383" y="392" name="center"/>
  <anchor x="360" y="760" name="top"/>
  <anchor x="619" y="760" name="topright"/>
  <outline>
    <contour>
      <point x="47" y="0" type="line"/>
      <point x="683" y="0" type="line"/>
      <point x="683" y="130" type="line"/>
      <point x="473" y="148" type="line"/>
      <point x="473" y="760" type="line"/>
      <point x="80" y="760" type="line"/>
      <point x="80" y="625" type="line"/>
      <point x="286" y="613" type="line"/>
      <point x="286" y="148" type="line"/>
      <point x="47" y="130" type="line"/>
    </contour>
  </outline>
</glyph>
<glyph name="m" format="2">
  <advance width="720"/>
  <unicode hex="006D"/>
  <anchor x="371" y="0" name="bottom"/>
  <anchor x="398" y="556" name="top"/>
  <anchor x="722" y="556" name="topright"/>
  <outline>
    <contour>
      <point x="16" y="0" type="line"/>
      <point x="175" y="0" type="line"/>
      <point x="175" y="377" type="line" smooth="yes"/>
      <point x="175" y="400"/>
      <point x="187" y="420"/>
      <point x="235" y="420" type="curve" smooth="yes"/>
      <point x="274" y="420"/>
      <point x="285" y="409"/>
      <point x="285" y="366" type="curve" smooth="yes"/>
      <point x="285" y="0" type="line"/>
      <point x="439" y="0" type="line"/>
      <point x="439" y="377" type="line" smooth="yes"/>
      <point x="439" y="399"/>
      <point x="455" y="420"/>
      <point x="500" y="420" type="curve" smooth="yes"/>
      <point x="540" y="420"/>
      <point x="548" y="409"/>
      <point x="548" y="367" type="curve" smooth="yes"/>
      <point x="548" y="0" type="line"/>
      <point x="706" y="0" type="line"/>
      <point x="706" y="359" type="line" smooth="yes"/>
      <point x="706" y="485"/>
      <point x="686" y="566"/>
      <point x="575" y="566" type="curve" smooth="yes"/>
      <point x="502" y="566"/>
      <point x="464" y="529"/>
      <point x="433" y="473" type="curve"/>
      <point x="428" y="473" type="line"/>
      <point x="413" y="528"/>
      <point x="381" y="566"/>
      <point x="306" y="566" type="curve" smooth="yes"/>
      <point x="242" y="566"/>
      <point x="203" y="539"/>
      <point x="175" y="485" type="curve"/>
      <point x="166" y="485" type="line"/>
      <point x="145" y="556" type="line"/>
      <point x="16" y="556" type="line"/>
    </contour>
  </outline>
</glyph>
<glyph name="o" format="2">
  <advance width="720"/>
  <unicode hex="006F"/>
  <anchor x="361" y="0" name="bottom"/>
  <anchor x="361" y="278" name="center"/>
  <anchor x="363" y="10" name="ogonek"/>
  <anchor x="361" y="556" name="top"/>
  <anchor x="722" y="556" name="topright"/>
  <outline>
    <contour>
      <point x="365" y="-10" type="curve" smooth="yes"/>
      <point x="584" y="-10"/>
      <point x="696" y="115"/>
      <point x="696" y="272" type="curve" smooth="yes"/>
      <point x="696" y="450"/>
      <point x="562" y="566"/>
      <point x="357" y="566" type="curve" smooth="yes"/>
      <point x="143" y="566"/>
      <point x="26" y="441"/>
      <point x="26" y="282" type="curve" smooth="yes"/>
      <point x="26" y="119"/>
      <point x="146" y="-10"/>
    </contour>
    <contour>
      <point x="361" y="141" type="curve" smooth="yes"/>
      <point x="259" y="141"/>
      <point x="212" y="193"/>
      <point x="212" y="277" type="curve" smooth="yes"/>
      <point x="212" y="357"/>
      <point x="257" y="414"/>
      <point x="360" y="414" type="curve" smooth="yes"/>
      <point x="463" y="414"/>
      <point x="510" y="361"/>
      <point x="510" y="277" type="curve" smooth="yes"/>
      <point x="510" y="194"/>
      <point x="464" y="141"/>
    </contour>
  </outline>
</glyph>
<glyph name="q" format="2">
  <advance width="720"/>
  <unicode hex="0071"/>
  <anchor x="328" y="-240" name="bottom"/>
  <anchor x="328" y="556" name="top"/>
  <anchor x="718" y="556" name="topright"/>
  <outline>
    <contour>
      <point x="487" y="-240" type="line"/>
      <point x="671" y="-240" type="line"/>
      <point x="671" y="556" type="line"/>
      <point x="530" y="556" type="line"/>
      <point x="499" y="486" type="line"/>
      <point x="493" y="486" type="line"/>
      <point x="445" y="550"/>
      <point x="375" y="566"/>
      <point x="296" y="566" type="curve" smooth="yes"/>
      <point x="116" y="566"/>
      <point x="26" y="421"/>
      <point x="26" y="277" type="curve" smooth="yes"/>
      <point x="26" y="136"/>
      <point x="112" y="-10"/>
      <point x="289" y="-10" type="curve" smooth="yes"/>
      <point x="376" y="-10"/>
      <point x="449" y="12"/>
      <point x="488" y="71" type="curve"/>
      <point x="496" y="71" type="line"/>
      <point x="490" y="19"/>
      <point x="487" y="4"/>
      <point x="487" y="-21" type="curve" smooth="yes"/>
    </contour>
    <contour>
      <point x="355" y="141" type="curve" smooth="yes"/>
      <point x="259" y="141"/>
      <point x="217" y="183"/>
      <point x="217" y="275" type="curve" smooth="yes"/>
      <point x="217" y="369"/>
      <point x="261" y="414"/>
      <point x="356" y="414" type="curve" smooth="yes"/>
      <point x="456" y="414"/>
      <point x="496" y="374"/>
      <point x="496" y="274" type="curve" smooth="yes"/>
      <point x="496" y="258" type="line" smooth="yes"/>
      <point x="496" y="190"/>
      <point x="453" y="141"/>
    </contour>
  </outline>
</glyph>
<glyph name="r" format="2">
  <advance width="720"/>
  <unicode hex="0072"/>
  <anchor x="320" y="0" name="bottom"/>
  <anchor x="392" y="556" name="top"/>
  <anchor x="718" y="556" name="topright"/>
  <outline>
    <contour>
      <point x="30" y="0" type="line"/>
      <point x="596" y="0" type="line"/>
      <point x="596" y="132" type="line"/>
      <point x="397" y="148" type="line"/>
      <point x="397" y="251" type="line" smooth="yes"/>
      <point x="397" y="347"/>
      <point x="464" y="386"/>
      <point x="565" y="386" type="curve" smooth="yes"/>
      <point x="599" y="386"/>
      <point x="645" y="382"/>
      <point x="674" y="372" type="curve"/>
      <point x="720" y="550" type="line"/>
      <point x="666" y="566"/>
      <point x="619" y="566"/>
      <point x="583" y="566" type="curve" smooth="yes"/>
      <point x="485" y="566"/>
      <point x="424" y="522"/>
      <point x="389" y="467" type="curve"/>
      <point x="380" y="467" type="line"/>
      <point x="354" y="556" type="line"/>
      <point x="55" y="556" type="line"/>
      <point x="55" y="421" type="line"/>
      <point x="220" y="406" type="line"/>
      <point x="220" y="148" type="line"/>
      <point x="30" y="132" type="line"/>
    </contour>
  </outline>
</glyph>
<glyph name="s" format="2">
  <advance width="720"/>
  <unicode hex="0073"/>
  <anchor x="370" y="0" name="bottom"/>
  <anchor x="370" y="556" name="top"/>
  <anchor x="718" y="556" name="topright"/>
  <outline>
    <contour>
      <point x="322" y="-10" type="curve" smooth="yes"/>
      <point x="541" y="-10"/>
      <point x="639" y="65"/>
      <point x="639" y="175" type="curve" smooth="yes"/>
      <point x="639" y="261"/>
      <point x="571" y="296"/>
      <point x="436" y="337" type="curve" smooth="yes"/>
      <point x="321" y="370"/>
      <point x="278" y="374"/>
      <point x="278" y="396" type="curve" smooth="yes"/>
      <point x="278" y="413"/>
      <point x="315" y="422"/>
      <point x="389" y="422" type="curve" smooth="yes"/>
      <point x="443" y="422"/>
      <point x="505" y="411"/>
      <point x="576" y="383" type="curve"/>
      <point x="634" y="522" type="line"/>
      <point x="545" y="554"/>
      <point x="467" y="566"/>
      <point x="383" y="566" type="curve" smooth="yes"/>
      <point x="200" y="566"/>
      <point x="93" y="509"/>
      <point x="93" y="396" type="curve" smooth="yes"/>
      <point x="93" y="317"/>
      <point x="163" y="270"/>
      <point x="288" y="233" type="curve" smooth="yes"/>
      <point x="403" y="199"/>
      <point x="453" y="192"/>
      <point x="453" y="163" type="curve" smooth="yes"/>
      <point x="453" y="141"/>
      <point x="412" y="135"/>
      <point x="332" y="135" type="curve" smooth="yes"/>
      <point x="246" y="135"/>
      <point x="160" y="150"/>
      <point x="83" y="184" type="curve"/>
      <point x="83" y="21" type="line"/>
      <point x="154" y="-1"/>
      <point x="237" y="-10"/>
    </contour>
  </outline>
</glyph>
<glyph name="t" format="2">
  <advance width="720"/>
  <unicode hex="0074"/>
  <anchor x="443" y="0" name="bottom"/>
  <anchor x="293" y="281" name="center"/>
  <anchor x="322" y="678" name="top"/>
  <anchor x="718" y="678" name="topright"/>
  <outline>
    <contour>
      <point x="468" y="-10" type="curve" smooth="yes"/>
      <point x="533" y="-10"/>
      <point x="597" y="-1"/>
      <point x="660" y="20" type="curve"/>
      <point x="660" y="169" type="line"/>
      <point x="605" y="150"/>
      <point x="558" y="146"/>
      <point x="515" y="146" type="curve" smooth="yes"/>
      <point x="450" y="146"/>
      <point x="389" y="146"/>
      <point x="389" y="235" type="curve" smooth="yes"/>
      <point x="389" y="406" type="line"/>
      <point x="651" y="406" type="line"/>
      <point x="651" y="556" type="line"/>
      <point x="390" y="556" type="line"/>
      <point x="390" y="678" type="line"/>
      <point x="252" y="678" type="line"/>
      <point x="216" y="554" type="line"/>
      <point x="20" y="492" type="line"/>
      <point x="20" y="406" type="line"/>
      <point x="202" y="406" type="line"/>
      <point x="202" y="207" type="line" smooth="yes"/>
      <point x="202" y="66"/>
      <point x="291" y="-10"/>
    </contour>
  </outline>
</glyph>
<glyph name="u" format="2">
  <advance width="720"/>
  <unicode hex="0075"/>
  <anchor x="360" y="0" name="bottom"/>
  <anchor x="667" y="10" name="ogonek"/>
  <anchor x="360" y="556" name="top"/>
  <anchor x="718" y="556" name="topright"/>
  <outline>
    <contour>
      <point x="281" y="-11" type="curve" smooth="yes"/>
      <point x="379" y="-11"/>
      <point x="447" y="18"/>
      <point x="491" y="68" type="curve"/>
      <point x="502" y="68" type="line"/>
      <point x="526" y="0" type="line"/>
      <point x="671" y="0" type="line"/>
      <point x="671" y="556" type="line"/>
      <point x="483" y="556" type="line"/>
      <point x="483" y="280" type="line" smooth="yes"/>
      <point x="483" y="198"/>
      <point x="457" y="141"/>
      <point x="348" y="141" type="curve" smooth="yes"/>
      <point x="262" y="141"/>
      <point x="232" y="180"/>
      <point x="232" y="254" type="curve" smooth="yes"/>
      <point x="232" y="556" type="line"/>
      <point x="43" y="556" type="line"/>
      <point x="43" y="195" type="line" smooth="yes"/>
      <point x="43" y="63"/>
      <point x="119" y="-11"/>
    </contour>
  </outline>
</glyph>
<glyph name="v" format="2">
  <advance width="720"/>
  <unicode hex="0076"/>
  <anchor x="360" y="0" name="bottom"/>
  <anchor x="360" y="556" name="top"/>
  <anchor x="718" y="556" name="topright"/>
  <outline>
    <contour>
      <point x="250" y="0" type="line"/>
      <point x="464" y="0" type="line"/>
      <point x="716" y="556" type="line"/>
      <point x="518" y="556" type="line"/>
      <point x="401" y="242" type="line" smooth="yes"/>
      <point x="386" y="203"/>
      <point x="375" y="194"/>
      <point x="362" y="161" type="curve"/>
      <point x="358" y="161" type="line"/>
      <point x="345" y="194"/>
      <point x="334" y="203"/>
      <point x="320" y="243" type="curve" smooth="yes"/>
      <point x="201" y="556" type="line"/>
      <point x="5" y="556" type="line"/>
    </contour>
  </outline>
</glyph>
<glyph name="w" format="2">
  <advance width="720"/>
  <unicode hex="0077"/>
  <anchor x="362" y="0" name="bottom"/>
  <anchor x="363" y="556" name="top"/>
  <anchor x="724" y="556" name="topright"/>
  <outline>
    <contour>
      <point x="78" y="0" type="line"/>
      <point x="280" y="0" type="line"/>
      <point x="323" y="157" type="line" smooth="yes"/>
      <point x="335" y="205"/>
      <point x="350" y="258"/>
      <point x="357" y="297" type="curve"/>
      <point x="363" y="297" type="line"/>
      <point x="371" y="257"/>
      <point x="382" y="205"/>
      <point x="394" y="157" type="curve" smooth="yes"/>
      <point x="435" y="0" type="line"/>
      <point x="643" y="0" type="line"/>
      <point x="737" y="556" type="line"/>
      <point x="572" y="556" type="line"/>
      <point x="543" y="288" type="line" smooth="yes"/>
      <point x="539" y="257"/>
      <point x="537" y="202"/>
      <point x="534" y="173" type="curve"/>
      <point x="528" y="173" type="line"/>
      <point x="522" y="206"/>
      <point x="510" y="226"/>
      <point x="501" y="261" type="curve" smooth="yes"/>
      <point x="442" y="492" type="line"/>
      <point x="282" y="492" type="line"/>
      <point x="219" y="261" type="line" smooth="yes"/>
      <point x="210" y="229"/>
      <point x="197" y="204"/>
      <point x="193" y="173" type="curve"/>
      <point x="187" y="173" type="line"/>
      <point x="185" y="200"/>
      <point x="182" y="261"/>
      <point x="179" y="290" type="curve" smooth="yes"/>
      <point x="152" y="556" type="line"/>
      <point x="-15" y="556" type="line"/>
    </contour>
  </outline>
</glyph>
<glyph name="x" format="2">
  <advance width="720"/>
  <unicode hex="0078"/>
  <anchor x="360" y="0" name="bottom"/>
  <anchor x="360" y="556" name="top"/>
  <anchor x="718" y="556" name="topright"/>
  <outline>
    <contour>
      <point x="5" y="0" type="line"/>
      <point x="219" y="0" type="line"/>
      <point x="357" y="151" type="line"/>
      <point x="501" y="0" type="line"/>
      <point x="716" y="0" type="line"/>
      <point x="481" y="283" type="line"/>
      <point x="705" y="556" type="line"/>
      <point x="492" y="556" type="line"/>
      <point x="360" y="415" type="line"/>
      <point x="229" y="556" type="line"/>
      <point x="15" y="556" type="line"/>
      <point x="237" y="283" type="line"/>
    </contour>
  </outline>
</glyph>
<glyph name="y" format="2">
  <advance width="720"/>
  <unicode hex="0079"/>
  <anchor x="360" y="-245" name="bottom"/>
  <anchor x="360" y="556" name="top"/>
  <anchor x="718" y="556" name="topright"/>
  <outline>
    <contour>
      <point x="138" y="-245" type="curve" smooth="yes"/>
      <point x="304" y="-245"/>
      <point x="386" y="-183"/>
      <point x="444" y="-50" type="curve" smooth="yes"/>
      <point x="716" y="556" type="line"/>
      <point x="521" y="556" type="line"/>
      <point x="411" y="282" type="line" smooth="yes"/>
      <point x="405" y="262"/>
      <point x="389" y="226"/>
      <point x="378" y="196" type="curve"/>
      <point x="374" y="196" type="line"/>
      <point x="363" y="231"/>
      <point x="348" y="253"/>
      <point x="336" y="281" type="curve" smooth="yes"/>
      <point x="204" y="556" type="line"/>
      <point x="5" y="556" type="line"/>
      <point x="292" y="7" type="line"/>
      <point x="272" y="-16" type="line" smooth="yes"/>
      <point x="235" y="-74"/>
      <point x="186" y="-101"/>
      <point x="112" y="-101" type="curve" smooth="yes"/>
      <point x="89" y="-101"/>
      <point x="63" y="-99"/>
      <point x="41" y="-95" type="curve"/>
      <point x="41" y="-237" type="line"/>
      <point x="72" y="-243"/>
      <point x="105" y="-245"/>
    </contour>
  </outline>
</glyph>
<glyph name="z" format="2">
  <advance width="720"/>
  <unicode hex="007A"/>
  <anchor x="369" y="0" name="bottom"/>
  <anchor x="369" y="556" name="top"/>
  <anchor x="718" y="556" name="topright"/>
  <outline>
    <contour>
      <point x="64" y="0" type="line"/>
      <point x="659" y="0" type="line"/>
      <point x="659" y="148" type="line"/>
      <point x="298" y="148" type="line"/>
      <point x="646" y="437" type="line"/>
      <point x="646" y="556" type="line"/>
      <point x="82" y="556" type="line"/>
      <point x="82" y="408" type="line"/>
      <point x="424" y="408" type="line"/>
      <point x="64" y="109" type="line"/>
    </contour>
  </outline>
</glyph>
<glyph name="braceleft" format="2">
  <advance width="720"/>
  <unicode hex="007B"/>
  <outline>
    <contour>
      <point x="581" y="-169" type="curve" smooth="yes"/>
      <point x="581" y="-32" type="line" smooth="yes"/>
      <point x="518" y="-30"/>
      <point x="458" y="-23"/>
      <point x="458" y="17" type="curve"/>
      <point x="458" y="155" type="line"/>
      <point x="458" y="228"/>
      <point x="398" y="263"/>
      <point x="322" y="275" type="curve" smooth="yes"/>
      <point x="322" y="281" type="line" smooth="yes"/>
      <point x="397" y="291"/>
      <point x="458" y="326"/>
      <point x="458" y="404" type="curve"/>
      <point x="458" y="540" type="line"/>
      <point x="458" y="587"/>
      <point x="523" y="586"/>
      <point x="581" y="588" type="curve" smooth="yes"/>
      <point x="581" y="725" type="line" smooth="yes"/>
      <point x="407" y="725"/>
      <point x="287" y="679"/>
      <point x="287" y="558" type="curve"/>
      <point x="287" y="431" type="line"/>
      <point x="287" y="376"/>
      <point x="215" y="349"/>
      <point x="140" y="349" type="curve" smooth="yes"/>
      <point x="140" y="207" type="line" smooth="yes"/>
      <point x="215" y="207"/>
      <point x="287" y="179"/>
      <point x="287" y="124" type="curve"/>
      <point x="287" y="0" type="line"/>
      <point x="287" y="-133"/>
      <point x="410" y="-169"/>
    </contour>
  </outline>
</glyph>
<glyph name="asciitilde" format="2">
  <advance width="720"/>
  <unicode hex="007E"/>
  <outline>
    <contour>
      <point x="65" y="253" type="line"/>
      <point x="109" y="291"/>
      <point x="161" y="312"/>
      <point x="208" y="312" type="curve" smooth="yes"/>
      <point x="246" y="312"/>
      <point x="284" y="306"/>
      <point x="338" y="286" type="curve" smooth="yes"/>
      <point x="404" y="262"/>
      <point x="449" y="255"/>
      <point x="499" y="255" type="curve" smooth="yes"/>
      <point x="562" y="255"/>
      <point x="615" y="272"/>
      <point x="657" y="307" type="curve"/>
      <point x="657" y="452" type="line"/>
      <point x="614" y="415"/>
      <point x="559" y="393"/>
      <point x="513" y="393" type="curve" smooth="yes"/>
      <point x="476" y="393"/>
      <point x="437" y="400"/>
      <point x="383" y="419" type="curve" smooth="yes"/>
      <point x="318" y="441"/>
      <point x="273" y="450"/>
      <point x="222" y="450" type="curve" smooth="yes"/>
      <point x="158" y="450"/>
      <point x="106" y="432"/>
      <point x="65" y="397" type="curve"/>
    </contour>
  </outline>
</glyph>
<glyph name="cent" format="2">
  <advance width="720"/>
  <unicode hex="00A2"/>
  <outline>
    <contour>
      <point x="356" y="-10" type="line"/>
      <point x="465" y="-10" type="line"/>
      <point x="465" y="79" type="line"/>
      <point x="532" y="86"/>
      <point x="599" y="104"/>
      <point x="642" y="127" type="curve"/>
      <point x="642" y="278" type="line"/>
      <point x="587" y="245"/>
      <point x="510" y="227"/>
      <point x="439" y="227" type="curve" smooth="yes"/>
      <point x="317" y="227"/>
      <point x="250" y="263"/>
      <point x="250" y="362" type="curve" smooth="yes"/>
      <point x="250" y="463"/>
      <point x="321" y="500"/>
      <point x="442" y="500" type="curve" smooth="yes"/>
      <point x="496" y="500"/>
      <point x="561" y="490"/>
      <point x="608" y="467" type="curve"/>
      <point x="659" y="607" type="line"/>
      <point x="612" y="631"/>
      <point x="533" y="645"/>
      <point x="465" y="649" type="curve"/>
      <point x="465" y="724" type="line"/>
      <point x="356" y="724" type="line"/>
      <point x="356" y="645" type="line"/>
      <point x="176" y="627"/>
      <point x="68" y="520"/>
      <point x="68" y="361" type="curve" smooth="yes"/>
      <point x="67" y="199"/>
      <point x="170" y="95"/>
      <point x="356" y="80" type="curve"/>
    </contour>
  </outline>
</glyph>
<glyph name="sterling" format="2">
  <advance width="720"/>
  <unicode hex="00A3"/>
  <outline>
    <contour>
      <point x="76" y="0" type="line"/>
      <point x="668" y="0" type="line"/>
      <point x="668" y="159" type="line"/>
      <point x="274" y="159" type="line"/>
      <point x="328" y="182"/>
      <point x="369" y="212"/>
      <point x="369" y="268" type="curve" smooth="yes"/>
      <point x="369" y="305" type="line"/>
      <point x="573" y="305" type="line"/>
      <point x="573" y="440" type="line"/>
      <point x="369" y="440" type="line"/>
      <point x="369" y="502" type="line" smooth="yes"/>
      <point x="369" y="551"/>
      <point x="410" y="567"/>
      <point x="481" y="567" type="curve" smooth="yes"/>
      <point x="525" y="567"/>
      <point x="563" y="558"/>
      <point x="614" y="540" type="curve"/>
      <point x="667" y="685" type="line"/>
      <point x="605" y="710"/>
      <point x="539" y="725"/>
      <point x="459" y="725" type="curve" smooth="yes"/>
      <point x="292" y="725"/>
      <point x="184" y="654"/>
      <point x="184" y="508" type="curve" smooth="yes"/>
      <point x="184" y="440" type="line"/>
      <point x="82" y="440" type="line"/>
      <point x="82" y="305" type="line"/>
      <point x="184" y="305" type="line"/>
      <point x="184" y="267" type="line" smooth="yes"/>
      <point x="184" y="204"/>
      <point x="145" y="186"/>
      <point x="76" y="153" type="curve"/>
    </contour>
  </outline>
</glyph>
<glyph name="currency" format="2">
  <advance width="720"/>
  <unicode hex="00A4"/>
  <outline>
    <contour>
      <point x="584" y="128" type="line"/>
      <point x="675" y="214" type="line"/>
      <point x="591" y="278" type="line"/>
      <point x="616" y="308"/>
      <point x="629" y="339"/>
      <point x="629" y="375" type="curve" smooth="yes"/>
      <point x="629" y="411"/>
      <point x="615" y="445"/>
      <point x="591" y="473" type="curve"/>
      <point x="678" y="539" type="line"/>
      <point x="584" y="624" type="line"/>
      <point x="497" y="557" type="line"/>
      <point x="455" y="574"/>
      <point x="410" y="582"/>
      <point x="360" y="582" type="curve" smooth="yes"/>
      <point x="311" y="582"/>
      <point x="263" y="575"/>
      <point x="223" y="559" type="curve"/>
      <point x="137" y="624" type="line"/>
      <point x="44" y="536" type="line"/>
      <point x="131" y="472" type="line"/>
      <point x="107" y="440"/>
      <point x="93" y="409"/>
      <point x="93" y="375" type="curve" smooth="yes"/>
      <point x="93" y="340"/>
      <point x="106" y="309"/>
      <point x="131" y="279" type="curve"/>
      <point x="45" y="215" type="line"/>
      <point x="137" y="129" type="line"/>
      <point x="222" y="190" type="line"/>
      <point x="260" y="176"/>
      <point x="308" y="169"/>
      <point x="360" y="169" type="curve" smooth="yes"/>
      <point x="409" y="169"/>
      <point x="456" y="177"/>
      <point x="497" y="193" type="curve"/>
    </contour>
    <contour>
      <point x="360" y="293" type="curve" smooth="yes"/>
      <point x="279" y="293"/>
      <point x="223" y="330"/>
      <point x="223" y="375" type="curve" smooth="yes"/>
      <point x="223" y="421"/>
      <point x="281" y="459"/>
      <point x="360" y="459" type="curve" smooth="yes"/>
      <point x="441" y="459"/>
      <point x="500" y="421"/>
      <point x="500" y="377" type="curve" smooth="yes"/>
      <point x="500" y="330"/>
      <point x="442" y="293"/>
    </contour>
  </outline>
</glyph>
<glyph name="yen" format="2">
  <advance width="720"/>
  <unicode hex="00A5"/>
  <outline>
    <contour>
      <point x="270" y="0" type="line"/>
      <point x="452" y="0" type="line"/>
      <point x="452" y="96" type="line"/>
      <point x="633" y="96" type="line"/>
      <point x="633" y="203" type="line"/>
      <point x="452" y="203" type="line"/>
      <point x="452" y="263" type="line"/>
      <point x="633" y="263" type="line"/>
      <point x="633" y="370" type="line"/>
      <point x="485" y="370" type="line"/>
      <point x="715" y="714" type="line"/>
      <point x="519" y="714" type="line"/>
      <point x="362" y="481" type="line"/>
      <point x="203" y="714" type="line"/>
      <point x="7" y="714" type="line"/>
      <point x="234" y="370" type="line"/>
      <point x="89" y="370" type="line"/>
      <point x="89" y="263" type="line"/>
      <point x="270" y="263" type="line"/>
      <point x="270" y="203" type="line"/>
      <point x="89" y="203" type="line"/>
      <point x="89" y="96" type="line"/>
      <point x="270" y="96" type="line"/>
    </contour>
  </outline>
</glyph>
<glyph name="brokenbar" format="2">
  <advance width="720"/>
  <unicode hex="00A6"/>
  <outline>
    <contour>
      <point x="286" y="354" type="line"/>
      <point x="435" y="354" type="line"/>
      <point x="435" y="759" type="line"/>
      <point x="286" y="759" type="line"/>
    </contour>
    <contour>
      <point x="286" y="-223" type="line"/>
      <point x="435" y="-223" type="line"/>
      <point x="435" y="182" type="line"/>
      <point x="286" y="182" type="line"/>
    </contour>
  </outline>
</glyph>
<glyph name="section" format="2">
  <advance width="720"/>
  <unicode hex="00A7"/>
  <outline>
    <contour>
      <point x="326" y="-10" type="curve" smooth="yes"/>
      <point x="506" y="-10"/>
      <point x="610" y="57"/>
      <point x="610" y="151" type="curve" smooth="yes"/>
      <point x="610" y="197"/>
      <point x="579" y="236"/>
      <point x="523" y="264" type="curve"/>
      <point x="582" y="297"/>
      <point x="624" y="332"/>
      <point x="624" y="388" type="curve" smooth="yes"/>
      <point x="624" y="462"/>
      <point x="553" y="506"/>
      <point x="412" y="550" type="curve" smooth="yes"/>
      <point x="320" y="577"/>
      <point x="282" y="593"/>
      <point x="282" y="618" type="curve" smooth="yes"/>
      <point x="282" y="641"/>
      <point x="313" y="652"/>
      <point x="380" y="652" type="curve" smooth="yes"/>
      <point x="444" y="652"/>
      <point x="503" y="634"/>
      <point x="560" y="608" type="curve"/>
      <point x="611" y="723" type="line"/>
      <point x="544" y="750"/>
      <point x="470" y="765"/>
      <point x="380" y="765" type="curve" smooth="yes"/>
      <point x="217" y="765"/>
      <point x="117" y="708"/>
      <point x="117" y="620" type="curve" smooth="yes"/>
      <point x="117" y="574"/>
      <point x="150" y="533"/>
      <point x="213" y="500" type="curve"/>
      <point x="150" y="471"/>
      <point x="104" y="431"/>
      <point x="104" y="383" type="curve" smooth="yes"/>
      <point x="104" y="297"/>
      <point x="182" y="256"/>
      <point x="318" y="210" type="curve" smooth="yes"/>
      <point x="423" y="175"/>
      <point x="447" y="172"/>
      <point x="447" y="147" type="curve" smooth="yes"/>
      <point x="447" y="118"/>
      <point x="410" y="105"/>
      <point x="326" y="105" type="curve" smooth="yes"/>
      <point x="258" y="105"/>
      <point x="165" y="128"/>
      <point x="102" y="159" type="curve"/>
      <point x="102" y="34" type="line"/>
      <point x="161" y="4"/>
      <point x="236" y="-10"/>
    </contour>
    <contour>
      <point x="419" y="316" type="curve"/>
      <point x="388" y="327" type="line" smooth="yes"/>
      <point x="294" y="359"/>
      <point x="255" y="375"/>
      <point x="255" y="404" type="curve" smooth="yes"/>
      <point x="255" y="426"/>
      <point x="283" y="440"/>
      <point x="318" y="450" type="curve"/>
      <point x="434" y="423"/>
      <point x="471" y="400"/>
      <point x="471" y="363" type="curve" smooth="yes"/>
      <point x="471" y="343"/>
      <point x="446" y="328"/>
    </contour>
  </outline>
</glyph>
<glyph name="dieresis" format="2">
  <advance width="720"/>
  <unicode hex="00A8"/>
  <anchor x="361" y="556" name="_top"/>
  <anchor x="361" y="666" name="top"/>
  <outline>
    <contour>
      <point x="512" y="608" type="curve" smooth="yes"/>
      <point x="566" y="608"/>
      <point x="606" y="637"/>
      <point x="606" y="690" type="curve" smooth="yes"/>
      <point x="606" y="744"/>
      <point x="566" y="775"/>
      <point x="512" y="775" type="curve" smooth="yes"/>
      <point x="458" y="775"/>
      <point x="419" y="746"/>
      <point x="419" y="690" type="curve" smooth="yes"/>
      <point x="419" y="637"/>
      <point x="458" y="608"/>
    </contour>
    <contour>
      <point x="210" y="608" type="curve" smooth="yes"/>
      <point x="263" y="608"/>
      <point x="305" y="637"/>
      <point x="305" y="690" type="curve" smooth="yes"/>
      <point x="305" y="744"/>
      <point x="263" y="775"/>
      <point x="210" y="775" type="curve" smooth="yes"/>
      <point x="157" y="775"/>
      <point x="118" y="746"/>
      <point x="118" y="690" type="curve" smooth="yes"/>
      <point x="118" y="636"/>
      <point x="157" y="608"/>
    </contour>
  </outline>
</glyph>
<glyph name="copyright" format="2">
  <advance width="720"/>
  <unicode hex="00A9"/>
  <outline>
    <contour>
      <point x="362" y="88" type="curve" smooth="yes"/>
      <point x="556" y="88"/>
      <point x="708" y="191"/>
      <point x="708" y="361" type="curve" smooth="yes"/>
      <point x="708" y="524"/>
      <point x="561" y="632"/>
      <point x="362" y="632" type="curve" smooth="yes"/>
      <point x="168" y="632"/>
      <point x="13" y="530"/>
      <point x="13" y="361" type="curve" smooth="yes"/>
      <point x="13" y="205"/>
      <point x="151" y="88"/>
    </contour>
    <contour>
      <point x="367" y="195" type="curve" smooth="yes"/>
      <point x="409" y="195"/>
      <point x="444" y="201"/>
      <point x="480" y="217" type="curve"/>
      <point x="480" y="302" type="line"/>
      <point x="444" y="286"/>
      <point x="408" y="277"/>
      <point x="371" y="277" type="curve" smooth="yes"/>
      <point x="306" y="277"/>
      <point x="272" y="302"/>
      <point x="272" y="361" type="curve" smooth="yes"/>
      <point x="272" y="413"/>
      <point x="311" y="442"/>
      <point x="370" y="442" type="curve" smooth="yes"/>
      <point x="400" y="442"/>
      <point x="431" y="436"/>
      <point x="463" y="425" type="curve"/>
      <point x="498" y="498" type="line"/>
      <point x="456" y="516"/>
      <point x="411" y="524"/>
      <point x="364" y="524" type="curve" smooth="yes"/>
      <point x="242" y="524"/>
      <point x="171" y="465"/>
      <point x="171" y="362" type="curve" smooth="yes"/>
      <point x="171" y="253"/>
      <point x="240" y="195"/>
    </contour>
    <contour>
      <point x="362" y="160" type="curve" smooth="yes"/>
      <point x="214" y="160"/>
      <point x="102" y="229"/>
      <point x="102" y="361" type="curve" smooth="yes"/>
      <point x="102" y="480"/>
      <point x="209" y="560"/>
      <point x="361" y="560" type="curve" smooth="yes"/>
      <point x="507" y="560"/>
      <point x="619" y="487"/>
      <point x="619" y="361" type="curve" smooth="yes"/>
      <point x="619" y="240"/>
      <point x="511" y="160"/>
    </contour>
  </outline>
</glyph>
<glyph name="ordfeminine" format="2">
  <advance width="720"/>
  <unicode hex="00AA"/>
  <outline>
    <contour>
      <point x="301" y="357" type="curve" smooth="yes"/>
      <point x="369" y="357"/>
      <point x="415" y="382"/>
      <point x="449" y="424" type="curve"/>
      <point x="471" y="363" type="line"/>
      <point x="556" y="363" type="line"/>
      <point x="556" y="581" type="line" smooth="yes"/>
      <point x="556" y="671"/>
      <point x="493" y="722"/>
      <point x="371" y="722" type="curve" smooth="yes"/>
      <point x="300" y="722"/>
      <point x="238" y="705"/>
      <point x="185" y="683" type="curve"/>
      <point x="223" y="603" type="line"/>
      <point x="270" y="622"/>
      <point x="311" y="632"/>
      <point x="354" y="632" type="curve" smooth="yes"/>
      <point x="404" y="632"/>
      <point x="442" y="613"/>
      <point x="433" y="592" type="curve" smooth="yes"/>
      <point x="433" y="589" type="line"/>
      <point x="369" y="587" type="line" smooth="yes"/>
      <point x="237" y="583"/>
      <point x="159" y="560"/>
      <point x="159" y="470" type="curve" smooth="yes"/>
      <point x="159" y="396"/>
      <point x="215" y="357"/>
    </contour>
    <contour>
      <point x="341" y="444" type="curve" smooth="yes"/>
      <point x="304" y="444"/>
      <point x="283" y="457"/>
      <point x="283" y="478" type="curve" smooth="yes"/>
      <point x="283" y="498"/>
      <point x="303" y="516"/>
      <point x="375" y="520" type="curve" smooth="yes"/>
      <point x="433" y="523" type="line"/>
      <point x="433" y="511" type="line" smooth="yes"/>
      <point x="433" y="476"/>
      <point x="400" y="444"/>
    </contour>
  </outline>
</glyph>
<glyph name="guillemotleft" format="2">
  <advance width="720"/>
  <unicode hex="00AB"/>
  <outline>
    <contour>
      <point x="556" y="37" type="line"/>
      <point x="685" y="105" type="line"/>
      <point x="526" y="279" type="line"/>
      <point x="685" y="453" type="line"/>
      <point x="556" y="521" type="line"/>
      <point x="334" y="286" type="line"/>
      <point x="334" y="272" type="line"/>
    </contour>
    <contour>
      <point x="259" y="36" type="line"/>
      <point x="387" y="105" type="line"/>
      <point x="229" y="279" type="line"/>
      <point x="388" y="454" type="line"/>
      <point x="259" y="521" type="line"/>
      <point x="38" y="286" type="line"/>
      <point x="38" y="272" type="line"/>
    </contour>
  </outline>
</glyph>
<glyph name="logicalnot" format="2">
  <advance width="720"/>
  <unicode hex="00AC"/>
  <outline>
    <contour>
      <point x="504" y="114" type="line"/>
      <point x="649" y="114" type="line"/>
      <point x="649" y="422" type="line"/>
      <point x="62" y="422" type="line"/>
      <point x="62" y="284" type="line"/>
      <point x="504" y="284" type="line"/>
    </contour>
  </outline>
</glyph>
<glyph name="registered" format="2">
  <advance width="720"/>
  <unicode hex="00AE"/>
  <outline>
    <contour>
      <point x="358" y="82" type="curve" smooth="yes"/>
      <point x="554" y="82"/>
      <point x="707" y="187"/>
      <point x="707" y="356" type="curve" smooth="yes"/>
      <point x="707" y="523"/>
      <point x="559" y="631"/>
      <point x="362" y="631" type="curve" smooth="yes"/>
      <point x="168" y="631"/>
      <point x="14" y="530"/>
      <point x="14" y="359" type="curve" smooth="yes"/>
      <point x="14" y="202"/>
      <point x="151" y="82"/>
    </contour>
    <contour>
      <point x="360" y="157" type="curve" smooth="yes"/>
      <point x="213" y="157"/>
      <point x="103" y="229"/>
      <point x="103" y="356" type="curve" smooth="yes"/>
      <point x="103" y="477"/>
      <point x="209" y="558"/>
      <point x="359" y="558" type="curve" smooth="yes"/>
      <point x="505" y="558"/>
      <point x="618" y="484"/>
      <point x="618" y="359" type="curve" smooth="yes"/>
      <point x="618" y="237"/>
      <point x="511" y="157"/>
    </contour>
    <contour>
      <point x="228" y="216" type="line"/>
      <point x="315" y="216" type="line"/>
      <point x="315" y="316" type="line"/>
      <point x="356" y="316" type="line"/>
      <point x="430" y="216" type="line"/>
      <point x="527" y="216" type="line"/>
      <point x="434" y="330" type="line"/>
      <point x="477" y="348"/>
      <point x="500" y="378"/>
      <point x="500" y="413" type="curve" smooth="yes"/>
      <point x="500" y="477"/>
      <point x="452" y="506"/>
      <point x="350" y="506" type="curve" smooth="yes"/>
      <point x="228" y="506" type="line"/>
    </contour>
    <contour>
      <point x="315" y="377" type="line"/>
      <point x="315" y="441" type="line"/>
      <point x="343" y="441" type="line" smooth="yes"/>
      <point x="391" y="441"/>
      <point x="412" y="434"/>
      <point x="412" y="410" type="curve" smooth="yes"/>
      <point x="412" y="386"/>
      <point x="385" y="377"/>
      <point x="343" y="377" type="curve" smooth="yes"/>
    </contour>
  </outline>
</glyph>
<glyph name="overscore" format="2">
  <advance width="720"/>
  <unicode hex="00AF"/>
  <outline>
    <contour>
      <point x="155" y="629" type="line"/>
      <point x="562" y="629" type="line"/>
      <point x="562" y="748" type="line"/>
      <point x="155" y="748" type="line"/>
    </contour>
  </outline>
</glyph>
<glyph name="degree" format="2">
  <advance width="720"/>
  <unicode hex="00B0"/>
  <outline>
    <contour>
      <point x="361" y="393" type="curve" smooth="yes"/>
      <point x="480" y="393"/>
      <point x="571" y="461"/>
      <point x="571" y="559" type="curve" smooth="yes"/>
      <point x="571" y="657"/>
      <point x="478" y="724"/>
      <point x="361" y="724" type="curve" smooth="yes"/>
      <point x="244" y="724"/>
      <point x="151" y="657"/>
      <point x="151" y="559" type="curve" smooth="yes"/>
      <point x="151" y="460"/>
      <point x="240" y="393"/>
    </contour>
    <contour>
      <point x="362" y="500" type="curve" smooth="yes"/>
      <point x="308" y="500"/>
      <point x="266" y="524"/>
      <point x="266" y="559" type="curve" smooth="yes"/>
      <point x="266" y="596"/>
      <point x="307" y="618"/>
      <point x="362" y="618" type="curve" smooth="yes"/>
      <point x="415" y="618"/>
      <point x="458" y="597"/>
      <point x="458" y="559" type="curve" smooth="yes"/>
      <point x="458" y="527"/>
      <point x="418" y="500"/>
    </contour>
  </outline>
</glyph>
<glyph name="plusminus" format="2">
  <advance width="720"/>
  <unicode hex="00B1"/>
  <outline>
    <contour>
      <point x="288" y="170" type="line"/>
      <point x="433" y="170" type="line"/>
      <point x="433" y="344" type="line"/>
      <point x="655" y="344" type="line"/>
      <point x="655" y="481" type="line"/>
      <point x="433" y="481" type="line"/>
      <point x="433" y="658" type="line"/>
      <point x="288" y="658" type="line"/>
      <point x="288" y="481" type="line"/>
      <point x="65" y="481" type="line"/>
      <point x="65" y="344" type="line"/>
      <point x="288" y="344" type="line"/>
    </contour>
    <contour>
      <point x="67" y="0" type="line"/>
      <point x="655" y="0" type="line"/>
      <point x="655" y="137" type="line"/>
      <point x="67" y="137" type="line"/>
    </contour>
  </outline>
</glyph>
<glyph name="twosuperior" format="2">
  <advance width="720"/>
  <unicode hex="00B2"/>
  <outline>
    <contour>
      <point x="171" y="416" type="line"/>
      <point x="570" y="416" type="line"/>
      <point x="570" y="524" type="line"/>
      <point x="331" y="524" type="line"/>
      <point x="375" y="540" type="line" smooth="yes"/>
      <point x="496" y="594"/>
      <point x="548" y="663"/>
      <point x="548" y="735" type="curve" smooth="yes"/>
      <point x="548" y="807"/>
      <point x="484" y="857"/>
      <point x="366" y="857" type="curve" smooth="yes"/>
      <point x="278" y="857"/>
      <point x="211" y="825"/>
      <point x="167" y="788" type="curve"/>
      <point x="233" y="707" type="line"/>
      <point x="272" y="737"/>
      <point x="304" y="748"/>
      <point x="345" y="748" type="curve" smooth="yes"/>
      <point x="388" y="748"/>
      <point x="412" y="737"/>
      <point x="412" y="718" type="curve" smooth="yes"/>
      <point x="412" y="695"/>
      <point x="388" y="677"/>
      <point x="308" y="621" type="curve" smooth="yes"/>
      <point x="171" y="523" type="line"/>
    </contour>
  </outline>
</glyph>
<glyph name="threesuperior" format="2">
  <advance width="720"/>
  <unicode hex="00B3"/>
  <outline>
    <contour>
      <point x="342" y="408" type="curve" smooth="yes"/>
      <point x="478" y="408"/>
      <point x="559" y="452"/>
      <point x="559" y="531" type="curve" smooth="yes"/>
      <point x="559" y="588"/>
      <point x="520" y="620"/>
      <point x="453" y="637" type="curve"/>
      <point x="453" y="641" type="line"/>
      <point x="510" y="663"/>
      <point x="542" y="699"/>
      <point x="542" y="748" type="curve" smooth="yes"/>
      <point x="542" y="814"/>
      <point x="473" y="853"/>
      <point x="360" y="853" type="curve" smooth="yes"/>
      <point x="282" y="853"/>
      <point x="220" y="831"/>
      <point x="166" y="795" type="curve"/>
      <point x="226" y="713" type="line"/>
      <point x="268" y="740"/>
      <point x="305" y="750"/>
      <point x="347" y="750" type="curve" smooth="yes"/>
      <point x="392" y="750"/>
      <point x="415" y="734"/>
      <point x="415" y="715" type="curve" smooth="yes"/>
      <point x="415" y="692"/>
      <point x="387" y="679"/>
      <point x="318" y="679" type="curve" smooth="yes"/>
      <point x="260" y="679" type="line"/>
      <point x="260" y="584" type="line"/>
      <point x="327" y="584" type="line" smooth="yes"/>
      <point x="398" y="584"/>
      <point x="428" y="569"/>
      <point x="428" y="551" type="curve" smooth="yes"/>
      <point x="428" y="526"/>
      <point x="399" y="516"/>
      <point x="335" y="516" type="curve" smooth="yes"/>
      <point x="279" y="516"/>
      <point x="220" y="529"/>
      <point x="170" y="559" type="curve"/>
      <point x="170" y="442" type="line"/>
      <point x="218" y="419"/>
      <point x="275" y="408"/>
    </contour>
  </outline>
</glyph>
<glyph name="acute" format="2">
  <advance width="720"/>
  <unicode hex="00B4"/>
  <outline>
    <contour>
      <point x="248" y="606" type="line"/>
      <point x="376" y="606" type="line"/>
      <point x="442" y="649"/>
      <point x="543" y="720"/>
      <point x="584" y="756" type="curve"/>
      <point x="584" y="766" type="line"/>
      <point x="375" y="766" type="line"/>
      <point x="342" y="722"/>
      <point x="290" y="668"/>
      <point x="248" y="620" type="curve"/>
    </contour>
  </outline>
</glyph>
<glyph name="micro" format="2">
  <advance width="720"/>
  <unicode hex="00B5"/>
  <anchor x="338" y="556" name="top"/>
  <anchor x="645" y="10" name="ogonek"/>
  <anchor x="696" y="556" name="topright"/>
  <anchor x="338" y="0" name="bottom"/>
  <outline>
    <contour>
      <point x="43" y="-240" type="line"/>
      <point x="230" y="-240" type="line"/>
      <point x="230" y="227" type="line"/>
      <point x="43" y="227" type="line"/>
    </contour>
    <component base="u" xOffset="-22"/>
  </outline>
</glyph>
<glyph name="paragraph" format="2">
  <advance width="720"/>
  <unicode hex="00B6"/>
  <outline>
    <contour>
      <point x="375" y="-127" type="line"/>
      <point x="475" y="-127" type="line"/>
      <point x="475" y="664" type="line"/>
      <point x="578" y="664" type="line"/>
      <point x="578" y="-127" type="line"/>
      <point x="678" y="-127" type="line"/>
      <point x="678" y="760" type="line"/>
      <point x="312" y="760" type="line" smooth="yes"/>
      <point x="132" y="760"/>
      <point x="29" y="682"/>
      <point x="29" y="509" type="curve" smooth="yes"/>
      <point x="29" y="340"/>
      <point x="124" y="264"/>
      <point x="294" y="264" type="curve" smooth="yes"/>
      <point x="325" y="264"/>
      <point x="351" y="267"/>
      <point x="375" y="273" type="curve"/>
    </contour>
  </outline>
</glyph>
<glyph name="cedilla" format="2">
  <advance width="720"/>
  <unicode hex="00B8"/>
  <outline>
    <contour>
      <point x="316" y="-240" type="curve" smooth="yes"/>
      <point x="437" y="-240"/>
      <point x="501" y="-194"/>
      <point x="501" y="-127" type="curve" smooth="yes"/>
      <point x="501" y="-70"/>
      <point x="454" y="-41"/>
      <point x="383" y="-30" type="curve"/>
      <point x="406" y="4" type="line"/>
      <point x="308" y="4" type="line"/>
      <point x="261" y="-76" type="line"/>
      <point x="326" y="-80"/>
      <point x="361" y="-93"/>
      <point x="361" y="-116" type="curve" smooth="yes"/>
      <point x="361" y="-131"/>
      <point x="336" y="-142"/>
      <point x="292" y="-142" type="curve" smooth="yes"/>
      <point x="269" y="-142"/>
      <point x="242" y="-138"/>
      <point x="219" y="-132" type="curve"/>
      <point x="219" y="-227" type="line"/>
      <point x="244" y="-235"/>
      <point x="282" y="-240"/>
    </contour>
  </outline>
</glyph>
<glyph name="onesuperior" format="2">
  <advance width="720"/>
  <unicode hex="00B9"/>
  <outline>
    <contour>
      <point x="325" y="416" type="line"/>
      <point x="453" y="416" type="line"/>
      <point x="453" y="844" type="line"/>
      <point x="346" y="844" type="line"/>
      <point x="152" y="749" type="line"/>
      <point x="214" y="655" type="line"/>
      <point x="278" y="682" type="line" smooth="yes"/>
      <point x="292" y="688"/>
      <point x="313" y="696"/>
      <point x="330" y="705" type="curve"/>
      <point x="326" y="668"/>
      <point x="325" y="613"/>
      <point x="325" y="584" type="curve" smooth="yes"/>
    </contour>
    <contour>
      <point x="192" y="416" type="line"/>
      <point x="581" y="416" type="line"/>
      <point x="581" y="509" type="line"/>
      <point x="424" y="521" type="line"/>
      <point x="359" y="521" type="line"/>
      <point x="192" y="509" type="line"/>
    </contour>
  </outline>
</glyph>
<glyph name="ordmasculine" format="2">
  <advance width="720"/>
  <unicode hex="00BA"/>
  <outline>
    <contour>
      <point x="359" y="357" type="curve" smooth="yes"/>
      <point x="488" y="357"/>
      <point x="570" y="425"/>
      <point x="570" y="539" type="curve" smooth="yes"/>
      <point x="570" y="655"/>
      <point x="483" y="722"/>
      <point x="362" y="722" type="curve" smooth="yes"/>
      <point x="232" y="722"/>
      <point x="152" y="656"/>
      <point x="152" y="539" type="curve" smooth="yes"/>
      <point x="152" y="427"/>
      <point x="234" y="357"/>
    </contour>
    <contour>
      <point x="360" y="454" type="curve" smooth="yes"/>
      <point x="301" y="454"/>
      <point x="276" y="482"/>
      <point x="276" y="539" type="curve" smooth="yes"/>
      <point x="276" y="599"/>
      <point x="302" y="627"/>
      <point x="360" y="627" type="curve" smooth="yes"/>
      <point x="418" y="627"/>
      <point x="443" y="597"/>
      <point x="443" y="539" type="curve" smooth="yes"/>
      <point x="443" y="482"/>
      <point x="418" y="454"/>
    </contour>
  </outline>
</glyph>
<glyph name="AE" format="2">
  <advance width="720"/>
  <unicode hex="00C6"/>
  <anchor x="361" y="0" name="bottom"/>
  <anchor x="398" y="714" name="top"/>
  <outline>
    <contour>
      <point x="-9" y="0" type="line"/>
      <point x="171" y="0" type="line"/>
      <point x="325" y="558" type="line"/>
      <point x="359" y="558" type="line"/>
      <point x="359" y="0" type="line"/>
      <point x="708" y="0" type="line"/>
      <point x="708" y="159" type="line"/>
      <point x="532" y="159" type="line"/>
      <point x="532" y="289" type="line"/>
      <point x="684" y="289" type="line"/>
      <point x="684" y="448" type="line"/>
      <point x="532" y="448" type="line"/>
      <point x="532" y="556" type="line"/>
      <point x="708" y="556" type="line"/>
      <point x="708" y="714" type="line"/>
      <point x="197" y="714" type="line"/>
    </contour>
    <contour>
      <point x="186" y="140" type="line"/>
      <point x="396" y="140" type="line"/>
      <point x="390" y="298" type="line"/>
      <point x="220" y="298" type="line"/>
    </contour>
  </outline>
</glyph>
<glyph name="Eth" format="2">
  <advance width="720"/>
  <unicode hex="00D0"/>
  <anchor x="361" y="0" name="bottom"/>
  <anchor x="361" y="714" name="top"/>
  <anchor x="728" y="714" name="topright"/>
  <anchor x="351" y="357" name="center"/>
  <outline>
    <contour>
      <point x="-22" y="282" type="line"/>
      <point x="356" y="282" type="line"/>
      <point x="356" y="428" type="line"/>
      <point x="-22" y="428" type="line"/>
    </contour>
    <component base="D" xOffset="-15"/>
  </outline>
</glyph>
<glyph name="multiply" format="2">
  <advance width="720"/>
  <unicode hex="00D7"/>
  <outline>
    <contour>
      <point x="172" y="132" type="line"/>
      <point x="358" y="256" type="line"/>
      <point x="547" y="133" type="line"/>
      <point x="646" y="229" type="line"/>
      <point x="460" y="353" type="line"/>
      <point x="649" y="479" type="line"/>
      <point x="547" y="574" type="line"/>
      <point x="359" y="453" type="line"/>
      <point x="172" y="574" type="line"/>
      <point x="73" y="475" type="line"/>
      <point x="258" y="353" type="line"/>
      <point x="74" y="231" type="line"/>
    </contour>
  </outline>
</glyph>
<glyph name="Oslash" format="2">
  <advance width="720"/>
  <unicode hex="00D8"/>
  <anchor x="361" y="0" name="bottom"/>
  <anchor x="361" y="714" name="top"/>
  <anchor x="-18" y="714" name="topleft"/>
  <anchor x="340" y="10" name="ogonek"/>
  <anchor x="339" y="357" name="center"/>
  <anchor x="722" y="714" name="topright"/>
  <outline>
    <contour>
      <point x="117" y="-48" type="line"/>
      <point x="713" y="702" type="line"/>
      <point x="608" y="761" type="line"/>
      <point x="11" y="12" type="line"/>
    </contour>
    <component base="O" xOffset="-22"/>
  </outline>
</glyph>
<glyph name="Thorn" format="2">
  <advance width="720"/>
  <unicode hex="00DE"/>
  <anchor x="361" y="0" name="bottom"/>
  <anchor x="361" y="714" name="top"/>
  <outline>
    <contour>
      <point x="69" y="0" type="line"/>
      <point x="250" y="0" type="line"/>
      <point x="250" y="115" type="line"/>
      <point x="365" y="115" type="line" smooth="yes"/>
      <point x="605" y="115"/>
      <point x="695" y="226"/>
      <point x="695" y="365" type="curve" smooth="yes"/>
      <point x="695" y="513"/>
      <point x="592" y="595"/>
      <point x="375" y="595" type="curve" smooth="yes"/>
      <point x="250" y="595" type="line"/>
      <point x="250" y="714" type="line"/>
      <point x="69" y="714" type="line"/>
    </contour>
    <contour>
      <point x="250" y="267" type="line"/>
      <point x="250" y="443" type="line"/>
      <point x="356" y="443" type="line" smooth="yes"/>
      <point x="460" y="443"/>
      <point x="508" y="412"/>
      <point x="508" y="362" type="curve" smooth="yes"/>
      <point x="508" y="301"/>
      <point x="452" y="267"/>
      <point x="345" y="267" type="curve" smooth="yes"/>
    </contour>
  </outline>
</glyph>
<glyph name="germandbls" format="2">
  <advance width="720"/>
  <unicode hex="00DF"/>
  <anchor x="361" y="0" name="bottom"/>
  <anchor x="361" y="765" name="top"/>
  <outline>
    <contour>
      <point x="474" y="-10" type="curve" smooth="yes"/>
      <point x="637" y="-10"/>
      <point x="726" y="53"/>
      <point x="726" y="167" type="curve" smooth="yes"/>
      <point x="726" y="251"/>
      <point x="674" y="289"/>
      <point x="598" y="325" type="curve" smooth="yes"/>
      <point x="533" y="358"/>
      <point x="502" y="374"/>
      <point x="502" y="394" type="curve" smooth="yes"/>
      <point x="502" y="432"/>
      <point x="649" y="460"/>
      <point x="649" y="578" type="curve" smooth="yes"/>
      <point x="649" y="699"/>
      <point x="528" y="765"/>
      <point x="356" y="765" type="curve" smooth="yes"/>
      <point x="169" y="765"/>
      <point x="47" y="675"/>
      <point x="47" y="531" type="curve" smooth="yes"/>
      <point x="47" y="0" type="line"/>
      <point x="223" y="0" type="line"/>
      <point x="223" y="507" type="line" smooth="yes"/>
      <point x="223" y="576"/>
      <point x="267" y="616"/>
      <point x="350" y="616" type="curve" smooth="yes"/>
      <point x="425" y="616"/>
      <point x="469" y="594"/>
      <point x="469" y="560" type="curve" smooth="yes"/>
      <point x="469" y="488"/>
      <point x="321" y="475"/>
      <point x="321" y="369" type="curve" smooth="yes"/>
      <point x="321" y="304"/>
      <point x="367" y="271"/>
      <point x="445" y="232" type="curve" smooth="yes"/>
      <point x="528" y="192"/>
      <point x="545" y="184"/>
      <point x="545" y="170" type="curve" smooth="yes"/>
      <point x="545" y="143"/>
      <point x="515" y="134"/>
      <point x="456" y="134" type="curve" smooth="yes"/>
      <point x="402" y="134"/>
      <point x="340" y="149"/>
      <point x="296" y="172" type="curve"/>
      <point x="296" y="18" type="line"/>
      <point x="347" y="-4"/>
      <point x="412" y="-10"/>
    </contour>
  </outline>
</glyph>
<glyph name="ae" format="2">
  <advance width="720"/>
  <unicode hex="00E6"/>
  <anchor x="361" y="0" name="bottom"/>
  <anchor x="361" y="556" name="top"/>
  <outline>
    <contour>
      <point x="177" y="-10" type="curve" smooth="yes"/>
      <point x="264" y="-10"/>
      <point x="312" y="16"/>
      <point x="358" y="62" type="curve"/>
      <point x="401" y="17"/>
      <point x="462" y="-10"/>
      <point x="548" y="-10" type="curve" smooth="yes"/>
      <point x="610" y="-10"/>
      <point x="663" y="4"/>
      <point x="702" y="30" type="curve"/>
      <point x="702" y="165" type="line"/>
      <point x="661" y="143"/>
      <point x="626" y="133"/>
      <point x="580" y="133" type="curve" smooth="yes"/>
      <point x="496" y="133"/>
      <point x="447" y="170"/>
      <point x="445" y="229" type="curve"/>
      <point x="730" y="229" type="line"/>
      <point x="730" y="300" type="line" smooth="yes"/>
      <point x="730" y="443"/>
      <point x="677" y="565"/>
      <point x="524" y="565" type="curve" smooth="yes"/>
      <point x="464" y="565"/>
      <point x="419" y="556"/>
      <point x="377" y="532" type="curve"/>
      <point x="340" y="554"/>
      <point x="287" y="565"/>
      <point x="215" y="565" type="curve" smooth="yes"/>
      <point x="153" y="565"/>
      <point x="87" y="555"/>
      <point x="30" y="528" type="curve"/>
      <point x="89" y="405" type="line"/>
      <point x="122" y="414"/>
      <point x="160" y="420"/>
      <point x="199" y="420" type="curve" smooth="yes"/>
      <point x="254" y="420"/>
      <point x="288" y="409"/>
      <point x="288" y="367" type="curve" smooth="yes"/>
      <point x="288" y="342" type="line"/>
      <point x="204" y="338" type="line" smooth="yes"/>
      <point x="77" y="332"/>
      <point x="-9" y="284"/>
      <point x="-9" y="160" type="curve" smooth="yes"/>
      <point x="-9" y="57"/>
      <point x="64" y="-10"/>
    </contour>
    <contour>
      <point x="212" y="128" type="curve" smooth="yes"/>
      <point x="175" y="128"/>
      <point x="152" y="147"/>
      <point x="152" y="174" type="curve" smooth="yes"/>
      <point x="152" y="212"/>
      <point x="186" y="244"/>
      <point x="249" y="242" type="curve" smooth="yes"/>
      <point x="288" y="242" type="line"/>
      <point x="288" y="202" type="line" smooth="yes"/>
      <point x="288" y="162"/>
      <point x="262" y="128"/>
    </contour>
    <contour>
      <point x="445" y="337" type="line"/>
      <point x="448" y="389"/>
      <point x="470" y="417"/>
      <point x="516" y="417" type="curve" smooth="yes"/>
      <point x="563" y="417"/>
      <point x="581" y="394"/>
      <point x="582" y="337" type="curve"/>
    </contour>
  </outline>
</glyph>
<glyph name="eth" format="2">
  <advance width="720"/>
  <unicode hex="00F0"/>
  <anchor x="361" y="0" name="bottom"/>
  <anchor x="361" y="278" name="center"/>
  <anchor x="361" y="767" name="top"/>
  <anchor x="718" y="760" name="topright"/>
  <outline>
    <contour>
      <point x="360" y="-10" type="curve" smooth="yes"/>
      <point x="570" y="-10"/>
      <point x="696" y="100"/>
      <point x="696" y="284" type="curve" smooth="yes"/>
      <point x="696" y="490"/>
      <point x="532" y="677"/>
      <point x="248" y="767" type="curve"/>
      <point x="185" y="676" type="line"/>
      <point x="315" y="630"/>
      <point x="442" y="535"/>
      <point x="489" y="462" type="curve"/>
      <point x="484" y="460" type="line"/>
      <point x="456" y="482"/>
      <point x="404" y="495"/>
      <point x="329" y="495" type="curve" smooth="yes"/>
      <point x="152" y="495"/>
      <point x="26" y="406"/>
      <point x="26" y="247" type="curve" smooth="yes"/>
      <point x="26" y="81"/>
      <point x="163" y="-10"/>
    </contour>
    <contour>
      <point x="363" y="124" type="curve" smooth="yes"/>
      <point x="258" y="124"/>
      <point x="214" y="169"/>
      <point x="214" y="246" type="curve" smooth="yes"/>
      <point x="214" y="320"/>
      <point x="257" y="360"/>
      <point x="361" y="360" type="curve" smooth="yes"/>
      <point x="465" y="360"/>
      <point x="508" y="315"/>
      <point x="508" y="237" type="curve" smooth="yes"/>
      <point x="508" y="170"/>
      <point x="467" y="124"/>
    </contour>
    <contour>
      <point x="236" y="502" type="line"/>
      <point x="603" y="683" type="line"/>
      <point x="538" y="768" type="line"/>
      <point x="171" y="587" type="line"/>
    </contour>
  </outline>
</glyph>
<glyph name="divide" format="2">
  <advance width="720"/>
  <unicode hex="00F7"/>
  <outline>
    <contour>
      <point x="61" y="284" type="line"/>
      <point x="661" y="284" type="line"/>
      <point x="661" y="422" type="line"/>
      <point x="61" y="422" type="line"/>
    </contour>
    <contour>
      <point x="361" y="68" type="curve" smooth="yes"/>
      <point x="414" y="68"/>
      <point x="452" y="98"/>
      <point x="452" y="155" type="curve" smooth="yes"/>
      <point x="452" y="214"/>
      <point x="415" y="242"/>
      <point x="361" y="242" type="curve" smooth="yes"/>
      <point x="306" y="242"/>
      <point x="269" y="214"/>
      <point x="269" y="155" type="curve" smooth="yes"/>
      <point x="269" y="97"/>
      <point x="308" y="68"/>
    </contour>
    <contour>
      <point x="361" y="463" type="curve" smooth="yes"/>
      <point x="414" y="463"/>
      <point x="452" y="493"/>
      <point x="452" y="550" type="curve" smooth="yes"/>
      <point x="452" y="609"/>
      <point x="415" y="638"/>
      <point x="361" y="638" type="curve" smooth="yes"/>
      <point x="306" y="638"/>
      <point x="269" y="609"/>
      <point x="269" y="550" type="curve" smooth="yes"/>
      <point x="269" y="493"/>
      <point x="308" y="463"/>
    </contour>
  </outline>
</glyph>
<glyph name="oslash" format="2">
  <advance width="720"/>
  <unicode hex="00F8"/>
  <anchor x="361" y="0" name="bottom"/>
  <anchor x="361" y="556" name="top"/>
  <anchor x="341" y="10" name="ogonek"/>
  <anchor x="700" y="556" name="topright"/>
  <anchor x="339" y="278" name="center"/>
  <outline>
    <contour>
      <point x="161" y="-48" type="line"/>
      <point x="654" y="550" type="line"/>
      <point x="561" y="599" type="line"/>
      <point x="68" y="1" type="line"/>
    </contour>
    <component base="o" xOffset="-22"/>
  </outline>
</glyph>
<glyph name="thorn" format="2">
  <advance width="720"/>
  <unicode hex="00FE"/>
  <anchor x="394" y="-240" name="bottom"/>
  <anchor x="394" y="748" name="top"/>
  <outline>
    <contour>
      <point x="51" y="-240" type="line"/>
      <point x="235" y="-240" type="line"/>
      <point x="235" y="-45" type="line" smooth="yes"/>
      <point x="235" y="-15"/>
      <point x="228" y="37"/>
      <point x="224" y="54" type="curve"/>
      <point x="235" y="54" type="line"/>
      <point x="282" y="5"/>
      <point x="346" y="-10"/>
      <point x="427" y="-10" type="curve" smooth="yes"/>
      <point x="592" y="-10"/>
      <point x="696" y="110"/>
      <point x="696" y="284" type="curve" smooth="yes"/>
      <point x="696" y="421"/>
      <point x="614" y="566"/>
      <point x="434" y="566" type="curve" smooth="yes"/>
      <point x="344" y="566"/>
      <point x="277" y="543"/>
      <point x="234" y="483" type="curve"/>
      <point x="225" y="483" type="line"/>
      <point x="232" y="540"/>
      <point x="236" y="576"/>
      <point x="236" y="624" type="curve" smooth="yes"/>
      <point x="236" y="748" type="line"/>
      <point x="51" y="748" type="line"/>
    </contour>
    <contour>
      <point x="373" y="141" type="curve" smooth="yes"/>
      <point x="279" y="141"/>
      <point x="235" y="177"/>
      <point x="235" y="279" type="curve" smooth="yes"/>
      <point x="235" y="293" type="line" smooth="yes"/>
      <point x="235" y="378"/>
      <point x="282" y="414"/>
      <point x="371" y="414" type="curve" smooth="yes"/>
      <point x="468" y="414"/>
      <point x="506" y="370"/>
      <point x="506" y="280" type="curve" smooth="yes"/>
      <point x="506" y="190"/>
      <point x="466" y="141"/>
    </contour>
  </outline>
</glyph>
<glyph name="dcaron" format="2">
  <advance width="720"/>
  <unicode hex="010F"/>
  <anchor x="334" y="0" name="bottom"/>
  <anchor x="316" y="278" name="center"/>
  <anchor x="362" y="760" name="top"/>
  <anchor x="691" y="760" name="topright"/>
  <outline>
    <contour>
      <point x="257" y="-10" type="curve" smooth="yes"/>
      <point x="336" y="-10"/>
      <point x="393" y="13"/>
      <point x="436" y="71" type="curve"/>
      <point x="445" y="71" type="line"/>
      <point x="473" y="0" type="line"/>
      <point x="619" y="0" type="line"/>
      <point x="619" y="760" type="line"/>
      <point x="435" y="760" type="line"/>
      <point x="435" y="612" type="line" smooth="yes"/>
      <point x="435" y="573"/>
      <point x="439" y="544"/>
      <point x="448" y="483" type="curve"/>
      <point x="440" y="483" type="line"/>
      <point x="398" y="546"/>
      <point x="345" y="566"/>
      <point x="265" y="566" type="curve" smooth="yes"/>
      <point x="96" y="566"/>
      <point x="13" y="432"/>
      <point x="13" y="275" type="curve" smooth="yes"/>
      <point x="13" y="132"/>
      <point x="93" y="-10"/>
    </contour>
    <contour>
      <point x="314" y="141" type="curve" smooth="yes"/>
      <point x="232" y="141"/>
      <point x="197" y="176"/>
      <point x="197" y="274" type="curve" smooth="yes"/>
      <point x="197" y="368"/>
      <point x="233" y="414"/>
      <point x="319" y="414" type="curve" smooth="yes"/>
      <point x="413" y="414"/>
      <point x="444" y="364"/>
      <point x="444" y="277" type="curve" smooth="yes"/>
      <point x="444" y="264" type="line" smooth="yes"/>
      <point x="444" y="185"/>
      <point x="402" y="141"/>
    </contour>
    <component base="caroncommaaccent" xOffset="378" yOffset="-7"/>
  </outline>
</glyph>
<glyph name="dcroat" format="2">
  <advance width="720"/>
  <unicode hex="0111"/>
  <anchor x="361" y="0" name="bottom"/>
  <anchor x="361" y="278" name="center"/>
  <anchor x="361" y="760" name="top"/>
  <anchor x="717" y="760" name="topright"/>
  <outline>
    <contour>
      <point x="290" y="-10" type="curve" smooth="yes"/>
      <point x="377" y="-10"/>
      <point x="444" y="13"/>
      <point x="488" y="71" type="curve"/>
      <point x="497" y="71" type="line"/>
      <point x="526" y="0" type="line"/>
      <point x="671" y="0" type="line"/>
      <point x="671" y="760" type="line"/>
      <point x="487" y="760" type="line"/>
      <point x="487" y="613" type="line" smooth="yes"/>
      <point x="487" y="550"/>
      <point x="491" y="521"/>
      <point x="500" y="460" type="curve"/>
      <point x="493" y="460" type="line"/>
      <point x="450" y="523"/>
      <point x="383" y="543"/>
      <point x="300" y="543" type="curve" smooth="yes"/>
      <point x="113" y="543"/>
      <point x="26" y="415"/>
      <point x="26" y="265" type="curve" smooth="yes"/>
      <point x="26" y="127"/>
      <point x="110" y="-10"/>
    </contour>
    <contour>
      <point x="356" y="141" type="curve" smooth="yes"/>
      <point x="264" y="141"/>
      <point x="215" y="177"/>
      <point x="215" y="263" type="curve" smooth="yes"/>
      <point x="215" y="345"/>
      <point x="266" y="391"/>
      <point x="361" y="391" type="curve" smooth="yes"/>
      <point x="465" y="391"/>
      <point x="497" y="348"/>
      <point x="497" y="264" type="curve" smooth="yes"/>
      <point x="497" y="250" type="line" smooth="yes"/>
      <point x="497" y="181"/>
      <point x="454" y="141"/>
    </contour>
    <contour>
      <point x="306" y="572" type="line"/>
      <point x="744" y="572" type="line"/>
      <point x="744" y="687" type="line"/>
      <point x="306" y="687" type="line"/>
    </contour>
  </outline>
</glyph>
<glyph name="eogonek" format="2">
  <advance width="720"/>
  <unicode hex="0119"/>
  <anchor x="385" y="-243" name="bottom"/>
  <anchor x="361" y="556" name="top"/>
  <anchor x="347" y="10" name="ogonek"/>
  <anchor x="700" y="556" name="topright"/>
  <outline>
    <contour>
      <point x="551" y="-243" type="curve" smooth="yes"/>
      <point x="590" y="-243"/>
      <point x="620" y="-236"/>
      <point x="644" y="-228" type="curve"/>
      <point x="644" y="-120" type="line"/>
      <point x="629" y="-125"/>
      <point x="606" y="-131"/>
      <point x="587" y="-131" type="curve" smooth="yes"/>
      <point x="549" y="-131"/>
      <point x="528" y="-117"/>
      <point x="528" y="-91" type="curve" smooth="yes"/>
      <point x="528" y="-57"/>
      <point x="572" y="-18"/>
      <point x="655" y="30" type="curve"/>
      <point x="564" y="53" type="line"/>
      <point x="474" y="2"/>
      <point x="392" y="-41"/>
      <point x="392" y="-125" type="curve" smooth="yes"/>
      <point x="392" y="-202"/>
      <point x="448" y="-243"/>
    </contour>
    <component base="e" xOffset="-22"/>
  </outline>
</glyph>
<glyph name="Hbar" format="2">
  <advance width="720"/>
  <unicode hex="0126"/>
  <anchor x="361" y="0" name="bottom"/>
  <anchor x="361" y="357" name="center"/>
  <anchor x="361" y="714" name="top"/>
  <anchor x="4" y="714" name="topleft"/>
  <outline>
    <contour>
      <point x="-22" y="522" type="line"/>
      <point x="744" y="522" type="line"/>
      <point x="744" y="634" type="line"/>
      <point x="-22" y="634" type="line"/>
    </contour>
    <contour>
      <point x="49" y="0" type="line"/>
      <point x="238" y="0" type="line"/>
      <point x="238" y="291" type="line"/>
      <point x="484" y="291" type="line"/>
      <point x="484" y="0" type="line"/>
      <point x="673" y="0" type="line"/>
      <point x="673" y="714" type="line"/>
      <point x="484" y="714" type="line"/>
      <point x="484" y="450" type="line"/>
      <point x="238" y="450" type="line"/>
      <point x="238" y="714" type="line"/>
      <point x="49" y="714" type="line"/>
    </contour>
  </outline>
</glyph>
<glyph name="hbar" format="2">
  <advance width="720"/>
  <unicode hex="0127"/>
  <anchor x="361" y="0" name="bottom"/>
  <anchor x="361" y="278" name="center"/>
  <anchor x="144" y="760" name="top"/>
  <outline>
    <contour>
      <point x="-22" y="572" type="line"/>
      <point x="443" y="572" type="line"/>
      <point x="443" y="687" type="line"/>
      <point x="-22" y="687" type="line"/>
    </contour>
    <contour>
      <point x="51" y="0" type="line"/>
      <point x="238" y="0" type="line"/>
      <point x="238" y="206" type="line" smooth="yes"/>
      <point x="238" y="335"/>
      <point x="285" y="374"/>
      <point x="375" y="374" type="curve" smooth="yes"/>
      <point x="460" y="374"/>
      <point x="490" y="331"/>
      <point x="490" y="259" type="curve" smooth="yes"/>
      <point x="490" y="0" type="line"/>
      <point x="678" y="0" type="line"/>
      <point x="678" y="322" type="line" smooth="yes"/>
      <point x="678" y="446"/>
      <point x="593" y="527"/>
      <point x="440" y="527" type="curve" smooth="yes"/>
      <point x="346" y="527"/>
      <point x="281" y="501"/>
      <point x="239" y="450" type="curve"/>
      <point x="227" y="450" type="line"/>
      <point x="232" y="506"/>
      <point x="238" y="583"/>
      <point x="238" y="652" type="curve" smooth="yes"/>
      <point x="238" y="760" type="line"/>
      <point x="51" y="760" type="line"/>
    </contour>
  </outline>
</glyph>
<glyph name="idotless" format="2">
  <advance width="722"/>
  <unicode hex="0131"/>
  <anchor x="360" y="0" name="bottom"/>
  <anchor x="667" y="10" name="ogonek"/>
  <anchor x="360" y="556" name="top"/>
  <outline>
    <contour>
      <point x="47" y="0" type="line"/>
      <point x="683" y="0" type="line"/>
      <point x="683" y="132" type="line"/>
      <point x="472" y="148" type="line"/>
      <point x="472" y="556" type="line"/>
      <point x="88" y="556" type="line"/>
      <point x="88" y="421" type="line"/>
      <point x="286" y="406" type="line"/>
      <point x="286" y="148" type="line"/>
      <point x="47" y="132" type="line"/>
    </contour>
  </outline>
</glyph>
<glyph name="IJ" format="2">
  <advance width="720"/>
  <unicode hex="0132"/>
  <anchor x="361" y="0" name="bottom"/>
  <anchor x="-22" y="0" name="caret_1"/>
  <anchor x="361" y="714" name="top"/>
  <anchor x="4" y="714" name="topleft"/>
  <outline>
    <contour>
      <point x="309" y="-10" type="curve" smooth="yes"/>
      <point x="541" y="-10"/>
      <point x="640" y="109"/>
      <point x="640" y="311" type="curve" smooth="yes"/>
      <point x="640" y="714" type="line"/>
      <point x="454" y="714" type="line"/>
      <point x="454" y="341" type="line" smooth="yes"/>
      <point x="454" y="187"/>
      <point x="392" y="154"/>
      <point x="270" y="154" type="curve" smooth="yes"/>
      <point x="212" y="154"/>
      <point x="149" y="157"/>
      <point x="83" y="169" type="curve"/>
      <point x="83" y="9" type="line"/>
      <point x="152" y="-4"/>
      <point x="246" y="-10"/>
    </contour>
    <contour>
      <point x="82" y="252" type="line"/>
      <point x="266" y="252" type="line"/>
      <point x="266" y="714" type="line"/>
      <point x="82" y="714" type="line"/>
    </contour>
  </outline>
</glyph>
<glyph name="ij" format="2">
  <advance width="720"/>
  <unicode hex="0133"/>
  <anchor x="372" y="-245" name="bottom"/>
  <anchor x="-22" y="0" name="caret_1"/>
  <anchor x="363" y="779" name="top"/>
  <outline>
    <contour>
      <point x="340" y="-245" type="curve" smooth="yes"/>
      <point x="545" y="-245"/>
      <point x="633" y="-168"/>
      <point x="633" y="-13" type="curve" smooth="yes"/>
      <point x="633" y="556" type="line"/>
      <point x="446" y="556" type="line"/>
      <point x="446" y="29" type="line" smooth="yes"/>
      <point x="446" y="-66"/>
      <point x="413" y="-92"/>
      <point x="306" y="-92" type="curve" smooth="yes"/>
      <point x="262" y="-92"/>
      <point x="200" y="-88"/>
      <point x="145" y="-73" type="curve"/>
      <point x="145" y="-219" type="line"/>
      <point x="206" y="-238"/>
      <point x="280" y="-245"/>
    </contour>
    <contour>
      <point x="89" y="0" type="line"/>
      <point x="276" y="0" type="line"/>
      <point x="276" y="556" type="line"/>
      <point x="89" y="556" type="line"/>
    </contour>
    <contour>
      <point x="185" y="598" type="curve" smooth="yes"/>
      <point x="260" y="598"/>
      <point x="300" y="633"/>
      <point x="300" y="689" type="curve" smooth="yes"/>
      <point x="300" y="746"/>
      <point x="260" y="779"/>
      <point x="185" y="779" type="curve" smooth="yes"/>
      <point x="110" y="779"/>
      <point x="69" y="747"/>
      <point x="69" y="689" type="curve" smooth="yes"/>
      <point x="69" y="629"/>
      <point x="113" y="598"/>
    </contour>
    <contour>
      <point x="537" y="598" type="curve" smooth="yes"/>
      <point x="612" y="598"/>
      <point x="653" y="633"/>
      <point x="653" y="689" type="curve" smooth="yes"/>
      <point x="653" y="746"/>
      <point x="612" y="779"/>
      <point x="537" y="779" type="curve" smooth="yes"/>
      <point x="463" y="779"/>
      <point x="422" y="747"/>
      <point x="422" y="689" type="curve" smooth="yes"/>
      <point x="422" y="629"/>
      <point x="465" y="598"/>
    </contour>
  </outline>
</glyph>
<glyph name="kgreenlandic" format="2">
  <advance width="720"/>
  <unicode hex="0138"/>
  <anchor x="360" y="0" name="bottom"/>
  <anchor x="360" y="556" name="top"/>
  <outline>
    <contour>
      <point x="58" y="0" type="line"/>
      <point x="245" y="0" type="line"/>
      <point x="245" y="144" type="line"/>
      <point x="344" y="199" type="line"/>
      <point x="515" y="0" type="line"/>
      <point x="726" y="0" type="line"/>
      <point x="472" y="321" type="line"/>
      <point x="714" y="556" type="line"/>
      <point x="502" y="556" type="line"/>
      <point x="329" y="403" type="line" smooth="yes"/>
      <point x="290" y="369"/>
      <point x="267" y="338"/>
      <point x="237" y="303" type="curve"/>
      <point x="233" y="303" type="line"/>
      <point x="240" y="349"/>
      <point x="245" y="421"/>
      <point x="245" y="470" type="curve" smooth="yes"/>
      <point x="245" y="556" type="line"/>
      <point x="58" y="556" type="line"/>
    </contour>
  </outline>
</glyph>
<glyph name="Lslash" format="2">
  <advance width="720"/>
  <unicode hex="0141"/>
  <anchor x="428" y="0" name="bottom"/>
  <anchor x="230" y="714" name="top"/>
  <anchor x="562" y="714" name="topright"/>
  <anchor x="361" y="357" name="center"/>
  <outline>
    <contour>
      <point x="-3" y="240" type="line"/>
      <point x="566" y="443" type="line"/>
      <point x="566" y="559" type="line"/>
      <point x="-3" y="356" type="line"/>
    </contour>
    <component base="L"/>
  </outline>
</glyph>
<glyph name="lslash" format="2">
  <advance width="720"/>
  <unicode hex="0142"/>
  <anchor x="361" y="0" name="bottom"/>
  <anchor x="361" y="760" name="top"/>
  <anchor x="619" y="760" name="topright"/>
  <anchor x="383" y="392" name="center"/>
  <outline>
    <contour>
      <point x="97" y="240" type="line"/>
      <point x="666" y="443" type="line"/>
      <point x="666" y="559" type="line"/>
      <point x="97" y="356" type="line"/>
    </contour>
    <component base="l"/>
  </outline>
</glyph>
<glyph name="napostrophe" format="2">
  <advance width="720"/>
  <unicode hex="0149"/>
  <anchor x="377" y="0" name="bottom"/>
  <anchor x="383" y="556" name="top"/>
  <outline>
    <contour>
      <point x="66" y="0" type="line"/>
      <point x="254" y="0" type="line"/>
      <point x="254" y="239" type="line" smooth="yes"/>
      <point x="254" y="351"/>
      <point x="289" y="413"/>
      <point x="384" y="413" type="curve" smooth="yes"/>
      <point x="455" y="413"/>
      <point x="490" y="372"/>
      <point x="490" y="296" type="curve" smooth="yes"/>
      <point x="490" y="0" type="line"/>
      <point x="678" y="0" type="line"/>
      <point x="678" y="359" type="line" smooth="yes"/>
      <point x="678" y="491"/>
      <point x="598" y="566"/>
      <point x="450" y="566" type="curve" smooth="yes"/>
      <point x="352" y="566"/>
      <point x="287" y="537"/>
      <point x="246" y="488" type="curve"/>
      <point x="235" y="488" type="line"/>
      <point x="210" y="556" type="line"/>
      <point x="66" y="556" type="line"/>
    </contour>
    <component base="quoteright" xOffset="-430"/>
  </outline>
</glyph>
<glyph name="Eng" format="2">
  <advance width="720"/>
  <unicode hex="014A"/>
  <anchor x="390" y="-231" name="bottom"/>
  <anchor x="390" y="714" name="top"/>
  <anchor x="743" y="714" name="topright"/>
  <outline>
    <contour>
      <point x="401" y="-231" type="curve" smooth="yes"/>
      <point x="577" y="-231"/>
      <point x="681" y="-152"/>
      <point x="681" y="-4" type="curve" smooth="yes"/>
      <point x="681" y="138" type="line"/>
      <point x="526" y="130" type="line"/>
      <point x="526" y="0" type="line" smooth="yes"/>
      <point x="526" y="-68"/>
      <point x="471" y="-100"/>
      <point x="384" y="-100" type="curve" smooth="yes"/>
      <point x="348" y="-100"/>
      <point x="316" y="-94"/>
      <point x="287" y="-90" type="curve"/>
      <point x="287" y="-221" type="line"/>
      <point x="316" y="-227"/>
      <point x="357" y="-231"/>
    </contour>
    <component base="N"/>
  </outline>
</glyph>
<glyph name="eng" format="2">
  <advance width="720"/>
  <unicode hex="014B"/>
  <anchor x="371" y="-240" name="bottom"/>
  <anchor x="378" y="556" name="top"/>
  <anchor x="724" y="556" name="topright"/>
  <outline>
    <contour>
      <point x="445" y="-240" type="curve" smooth="yes"/>
      <point x="610" y="-240"/>
      <point x="678" y="-146"/>
      <point x="678" y="-45" type="curve" smooth="yes"/>
      <point x="678" y="168" type="line"/>
      <point x="510" y="157" type="line" smooth="yes"/>
      <point x="488" y="46" type="line" smooth="yes"/>
      <point x="456" y="-55"/>
      <point x="450" y="-92"/>
      <point x="406" y="-92" type="curve" smooth="yes"/>
      <point x="379" y="-92"/>
      <point x="358" y="-89"/>
      <point x="333" y="-83" type="curve"/>
      <point x="333" y="-228" type="line"/>
      <point x="362" y="-236"/>
      <point x="406" y="-240"/>
    </contour>
    <component base="n"/>
  </outline>
</glyph>
<glyph name="OE" format="2">
  <advance width="720"/>
  <unicode hex="0152"/>
  <anchor x="361" y="0" name="bottom"/>
  <anchor x="361" y="714" name="top"/>
  <outline>
    <contour>
      <point x="293" y="-10" type="curve" smooth="yes"/>
      <point x="327" y="-10"/>
      <point x="359" y="-8"/>
      <point x="393" y="0" type="curve"/>
      <point x="721" y="0" type="line"/>
      <point x="721" y="159" type="line"/>
      <point x="532" y="159" type="line"/>
      <point x="532" y="290" type="line"/>
      <point x="697" y="290" type="line"/>
      <point x="697" y="448" type="line"/>
      <point x="532" y="448" type="line"/>
      <point x="532" y="556" type="line"/>
      <point x="721" y="556" type="line"/>
      <point x="721" y="714" type="line"/>
      <point x="395" y="714" type="line"/>
      <point x="356" y="722"/>
      <point x="320" y="724"/>
      <point x="289" y="724" type="curve" smooth="yes"/>
      <point x="89" y="724"/>
      <point x="12" y="584"/>
      <point x="12" y="360" type="curve" smooth="yes"/>
      <point x="12" y="129"/>
      <point x="88" y="-10"/>
    </contour>
    <contour>
      <point x="313" y="151" type="curve" smooth="yes"/>
      <point x="221" y="151"/>
      <point x="194" y="214"/>
      <point x="194" y="357" type="curve" smooth="yes"/>
      <point x="194" y="498"/>
      <point x="230" y="564"/>
      <point x="316" y="564" type="curve" smooth="yes"/>
      <point x="334" y="564"/>
      <point x="352" y="563"/>
      <point x="365" y="559" type="curve"/>
      <point x="365" y="156" type="line"/>
      <point x="351" y="152"/>
      <point x="335" y="151"/>
    </contour>
  </outline>
</glyph>
<glyph name="oe" format="2">
  <advance width="720"/>
  <unicode hex="0153"/>
  <anchor x="361" y="0" name="bottom"/>
  <anchor x="361" y="556" name="top"/>
  <outline>
    <contour>
      <point x="218" y="-10" type="curve" smooth="yes"/>
      <point x="290" y="-10"/>
      <point x="343" y="10"/>
      <point x="381" y="51" type="curve"/>
      <point x="419" y="11"/>
      <point x="474" y="-10"/>
      <point x="551" y="-10" type="curve" smooth="yes"/>
      <point x="604" y="-10"/>
      <point x="656" y="2"/>
      <point x="704" y="29" type="curve"/>
      <point x="704" y="156" type="line"/>
      <point x="654" y="127"/>
      <point x="610" y="116"/>
      <point x="569" y="116" type="curve" smooth="yes"/>
      <point x="488" y="116"/>
      <point x="450" y="148"/>
      <point x="448" y="227" type="curve"/>
      <point x="731" y="227" type="line"/>
      <point x="731" y="299" type="line" smooth="yes"/>
      <point x="731" y="463"/>
      <point x="668" y="562"/>
      <point x="528" y="562" type="curve" smooth="yes"/>
      <point x="460" y="562"/>
      <point x="414" y="542"/>
      <point x="378" y="502" type="curve"/>
      <point x="342" y="543"/>
      <point x="291" y="563"/>
      <point x="217" y="563" type="curve" smooth="yes"/>
      <point x="60" y="563"/>
      <point x="-7" y="439"/>
      <point x="-7" y="281" type="curve" smooth="yes"/>
      <point x="-7" y="109"/>
      <point x="68" y="-10"/>
    </contour>
    <contour>
      <point x="223" y="121" type="curve" smooth="yes"/>
      <point x="165" y="121"/>
      <point x="139" y="174"/>
      <point x="139" y="279" type="curve" smooth="yes"/>
      <point x="139" y="384"/>
      <point x="164" y="434"/>
      <point x="222" y="434" type="curve" smooth="yes"/>
      <point x="281" y="434"/>
      <point x="303" y="384"/>
      <point x="303" y="280" type="curve" smooth="yes"/>
      <point x="303" y="174"/>
      <point x="282" y="121"/>
    </contour>
    <contour>
      <point x="447" y="337" type="line"/>
      <point x="448" y="419"/>
      <point x="483" y="439"/>
      <point x="525" y="439" type="curve" smooth="yes"/>
      <point x="571" y="439"/>
      <point x="595" y="414"/>
      <point x="595" y="337" type="curve"/>
    </contour>
  </outline>
</glyph>
<glyph name="Tbar" format="2">
  <advance width="720"/>
  <unicode hex="0166"/>
  <anchor x="361" y="0" name="bottom"/>
  <anchor x="361" y="714" name="top"/>
  <anchor x="718" y="714" name="topright"/>
  <anchor x="361" y="357" name="center"/>
  <outline>
    <contour>
      <point x="111" y="272" type="line"/>
      <point x="611" y="272" type="line"/>
      <point x="611" y="422" type="line"/>
      <point x="111" y="422" type="line"/>
    </contour>
    <component base="T"/>
  </outline>
</glyph>
<glyph name="tbar" format="2">
  <advance width="720"/>
  <unicode hex="0167"/>
  <anchor x="398" y="0" name="bottom"/>
  <anchor x="321" y="678" name="top"/>
  <anchor x="718" y="678" name="topright"/>
  <anchor x="293" y="281" name="center"/>
  <outline>
    <contour>
      <point x="28" y="219" type="line"/>
      <point x="652" y="219" type="line"/>
      <point x="652" y="335" type="line"/>
      <point x="28" y="335" type="line"/>
    </contour>
    <component base="t"/>
  </outline>
</glyph>
<glyph name="Uogonek" format="2">
  <advance width="720"/>
  <unicode hex="0172"/>
  <anchor x="403" y="-243" name="bottom"/>
  <anchor x="361" y="714" name="top"/>
  <anchor x="667" y="10" name="ogonek"/>
  <anchor x="718" y="714" name="topright"/>
  <outline>
    <contour>
      <point x="408" y="-243" type="curve" smooth="yes"/>
      <point x="449" y="-243"/>
      <point x="479" y="-236"/>
      <point x="503" y="-228" type="curve"/>
      <point x="503" y="-120" type="line"/>
      <point x="488" y="-125"/>
      <point x="466" y="-131"/>
      <point x="446" y="-131" type="curve" smooth="yes"/>
      <point x="407" y="-131"/>
      <point x="387" y="-116"/>
      <point x="387" y="-92" type="curve" smooth="yes"/>
      <point x="387" y="-59"/>
      <point x="429" y="-23"/>
      <point x="528" y="20" type="curve"/>
      <point x="436" y="41" type="line"/>
      <point x="317" y="-11"/>
      <point x="251" y="-62"/>
      <point x="251" y="-127" type="curve" smooth="yes"/>
      <point x="251" y="-204"/>
      <point x="307" y="-243"/>
    </contour>
    <component base="U"/>
  </outline>
</glyph>
<glyph name="longs" format="2">
  <advance width="720"/>
  <unicode hex="017F"/>
  <anchor x="361" y="0" name="bottom"/>
  <anchor x="478" y="765" name="top"/>
  <outline>
    <contour>
      <point x="233" y="0" type="line"/>
      <point x="420" y="0" type="line"/>
      <point x="420" y="553" type="line" smooth="yes"/>
      <point x="420" y="597"/>
      <point x="453" y="617"/>
      <point x="523" y="617" type="curve" smooth="yes"/>
      <point x="560" y="617"/>
      <point x="600" y="613"/>
      <point x="629" y="604" type="curve"/>
      <point x="669" y="740" type="line"/>
      <point x="624" y="755"/>
      <point x="567" y="765"/>
      <point x="494" y="765" type="curve" smooth="yes"/>
      <point x="331" y="765"/>
      <point x="233" y="712"/>
      <point x="233" y="566" type="curve" smooth="yes"/>
    </contour>
  </outline>
</glyph>
<glyph name="uni0181" format="2">
  <advance width="720"/>
  <unicode hex="0181"/>
  <anchor x="418" y="0" name="bottom"/>
  <anchor x="418" y="714" name="top"/>
  <outline>
    <contour>
      <point x="202" y="0" type="line"/>
      <point x="448" y="0" type="line" smooth="yes"/>
      <point x="618" y="0"/>
      <point x="718" y="79"/>
      <point x="718" y="212" type="curve" smooth="yes"/>
      <point x="718" y="309"/>
      <point x="653" y="355"/>
      <point x="564" y="374" type="curve"/>
      <point x="564" y="379" type="line"/>
      <point x="642" y="396"/>
      <point x="698" y="440"/>
      <point x="698" y="535" type="curve" smooth="yes"/>
      <point x="698" y="650"/>
      <point x="610" y="714"/>
      <point x="415" y="714" type="curve" smooth="yes"/>
      <point x="202" y="714" type="line"/>
    </contour>
    <contour>
      <point x="375" y="145" type="line"/>
      <point x="375" y="301" type="line"/>
      <point x="424" y="301" type="line" smooth="yes"/>
      <point x="518" y="301"/>
      <point x="545" y="268"/>
      <point x="545" y="226" type="curve" smooth="yes"/>
      <point x="545" y="184"/>
      <point x="515" y="145"/>
      <point x="430" y="145" type="curve" smooth="yes"/>
    </contour>
    <contour>
      <point x="-4" y="454" type="curve"/>
      <point x="138" y="454" type="line"/>
      <point x="134" y="465"/>
      <point x="128" y="487"/>
      <point x="128" y="510" type="curve" smooth="yes"/>
      <point x="128" y="544"/>
      <point x="151" y="570"/>
      <point x="193" y="570" type="curve" smooth="yes"/>
      <point x="227" y="570" type="line"/>
      <point x="227" y="714" type="line"/>
      <point x="190" y="714" type="line"/>
      <point x="48" y="714"/>
      <point x="-16" y="629"/>
      <point x="-16" y="523" type="curve" smooth="yes"/>
      <point x="-16" y="493"/>
      <point x="-10" y="463"/>
    </contour>
    <contour>
      <point x="375" y="437" type="line"/>
      <point x="375" y="570" type="line"/>
      <point x="410" y="570" type="line" smooth="yes"/>
      <point x="499" y="570"/>
      <point x="527" y="545"/>
      <point x="527" y="508" type="curve" smooth="yes"/>
      <point x="527" y="471"/>
      <point x="496" y="437"/>
      <point x="419" y="437" type="curve" smooth="yes"/>
    </contour>
  </outline>
</glyph>
<glyph name="uni0184" format="2">
  <advance width="720"/>
  <unicode hex="0184"/>
  <anchor x="361" y="0" name="bottom"/>
  <anchor x="361" y="760" name="top"/>
  <outline>
    <contour>
      <point x="373" y="-10" type="curve"/>
      <point x="582" y="-10"/>
      <point x="695" y="83"/>
      <point x="695" y="232" type="curve" smooth="yes"/>
      <point x="695" y="376"/>
      <point x="610" y="461"/>
      <point x="379" y="461" type="curve" smooth="yes"/>
      <point x="256" y="461" type="line"/>
      <point x="256" y="714" type="line"/>
      <point x="69" y="714" type="line"/>
      <point x="69" y="223" type="line" smooth="yes"/>
      <point x="69" y="57"/>
      <point x="168" y="-10"/>
    </contour>
    <contour>
      <point x="379" y="140" type="curve"/>
      <point x="294" y="140"/>
      <point x="256" y="168"/>
      <point x="256" y="228" type="curve" smooth="yes"/>
      <point x="256" y="309" type="line"/>
      <point x="352" y="309" type="line" smooth="yes"/>
      <point x="460" y="309"/>
      <point x="506" y="292"/>
      <point x="506" y="226" type="curve" smooth="yes"/>
      <point x="506" y="161"/>
      <point x="461" y="140"/>
    </contour>
  </outline>
</glyph>
<glyph name="uni0185" format="2">
  <advance width="720"/>
  <unicode hex="0185"/>
  <anchor x="360" y="0" name="bottom"/>
  <anchor x="360" y="760" name="top"/>
  <outline>
    <contour>
      <point x="369" y="-10" type="curve" smooth="yes"/>
      <point x="553" y="-10"/>
      <point x="695" y="73"/>
      <point x="695" y="277" type="curve" smooth="yes"/>
      <point x="695" y="475"/>
      <point x="594" y="565"/>
      <point x="435" y="565" type="curve" smooth="yes"/>
      <point x="329" y="565"/>
      <point x="269" y="527"/>
      <point x="234" y="489" type="curve"/>
      <point x="225" y="489" type="line"/>
      <point x="230" y="516"/>
      <point x="234" y="548"/>
      <point x="234" y="593" type="curve" smooth="yes"/>
      <point x="234" y="760" type="line"/>
      <point x="51" y="760" type="line"/>
      <point x="51" y="266" type="line" smooth="yes"/>
      <point x="51" y="92"/>
      <point x="158" y="-10"/>
    </contour>
    <contour>
      <point x="369" y="141" type="curve"/>
      <point x="280" y="141"/>
      <point x="234" y="177"/>
      <point x="234" y="266" type="curve" smooth="yes"/>
      <point x="234" y="306" type="line" smooth="yes"/>
      <point x="234" y="373"/>
      <point x="276" y="415"/>
      <point x="372" y="415" type="curve" smooth="yes"/>
      <point x="461" y="415"/>
      <point x="505" y="372"/>
      <point x="505" y="277" type="curve" smooth="yes"/>
      <point x="505" y="179"/>
      <point x="459" y="141"/>
    </contour>
  </outline>
</glyph>
<glyph name="uni0187" format="2">
  <advance width="720"/>
  <unicode hex="0187"/>
  <anchor x="425" y="0" name="bottom"/>
  <anchor x="425" y="892" name="top"/>
  <anchor x="696" y="714" name="topright"/>
  <outline>
    <contour>
      <point x="538" y="683" type="line"/>
      <point x="697" y="683" type="line"/>
      <point x="697" y="686" type="line" smooth="yes"/>
      <point x="697" y="725"/>
      <point x="719" y="741"/>
      <point x="757" y="741" type="curve" smooth="yes"/>
      <point x="785" y="741"/>
      <point x="810" y="736"/>
      <point x="823" y="732" type="curve"/>
      <point x="823" y="880" type="line"/>
      <point x="807" y="886"/>
      <point x="773" y="892"/>
      <point x="733" y="892" type="curve" smooth="yes"/>
      <point x="622" y="892"/>
      <point x="538" y="840"/>
      <point x="538" y="715" type="curve" smooth="yes"/>
    </contour>
    <component base="C" xOffset="-22"/>
  </outline>
</glyph>
<glyph name="uni0188" format="2">
  <advance width="720"/>
  <unicode hex="0188"/>
  <anchor x="361" y="0" name="bottom"/>
  <anchor x="361" y="764" name="top"/>
  <anchor x="696" y="556" name="topright"/>
  <outline>
    <contour>
      <point x="493" y="522" type="line"/>
      <point x="651" y="522" type="line"/>
      <point x="651" y="562" type="line" smooth="yes"/>
      <point x="651" y="600"/>
      <point x="674" y="618"/>
      <point x="713" y="618" type="curve" smooth="yes"/>
      <point x="743" y="618"/>
      <point x="763" y="613"/>
      <point x="778" y="609" type="curve"/>
      <point x="778" y="747" type="line"/>
      <point x="763" y="753"/>
      <point x="727" y="764"/>
      <point x="687" y="764" type="curve" smooth="yes"/>
      <point x="564" y="764"/>
      <point x="493" y="711"/>
      <point x="493" y="561" type="curve" smooth="yes"/>
    </contour>
    <component base="c" xOffset="-22"/>
  </outline>
</glyph>
<glyph name="uni018A" format="2">
  <advance width="720"/>
  <unicode hex="018A"/>
  <anchor x="361" y="0" name="bottom"/>
  <anchor x="361" y="714" name="top"/>
  <outline>
    <contour>
      <point x="190" y="0" type="line"/>
      <point x="373" y="0" type="line" smooth="yes"/>
      <point x="607" y="0"/>
      <point x="711" y="125"/>
      <point x="711" y="373" type="curve" smooth="yes"/>
      <point x="711" y="598"/>
      <point x="624" y="714"/>
      <point x="391" y="714" type="curve" smooth="yes"/>
      <point x="190" y="714" type="line"/>
    </contour>
    <contour>
      <point x="365" y="155" type="line"/>
      <point x="365" y="559" type="line"/>
      <point x="385" y="559" type="line" smooth="yes"/>
      <point x="492" y="559"/>
      <point x="531" y="528"/>
      <point x="531" y="364" type="curve" smooth="yes"/>
      <point x="531" y="179"/>
      <point x="487" y="155"/>
      <point x="383" y="155" type="curve" smooth="yes"/>
    </contour>
    <contour>
      <point x="-4" y="454" type="curve"/>
      <point x="134" y="454" type="line"/>
      <point x="130" y="465"/>
      <point x="124" y="485"/>
      <point x="124" y="511" type="curve" smooth="yes"/>
      <point x="124" y="547"/>
      <point x="146" y="570"/>
      <point x="189" y="570" type="curve" smooth="yes"/>
      <point x="224" y="570" type="line"/>
      <point x="224" y="714" type="line"/>
      <point x="187" y="714" type="line"/>
      <point x="48" y="714"/>
      <point x="-16" y="629"/>
      <point x="-16" y="523" type="curve" smooth="yes"/>
      <point x="-16" y="493"/>
      <point x="-10" y="463"/>
    </contour>
  </outline>
</glyph>
<glyph name="uni018C" format="2">
  <advance width="720"/>
  <unicode hex="018C"/>
  <anchor x="361" y="0" name="bottom"/>
  <anchor x="380" y="760" name="top"/>
  <anchor x="701" y="760" name="topright"/>
  <anchor x="339" y="278" name="center"/>
  <outline>
    <contour>
      <point x="97" y="611" type="line"/>
      <point x="568" y="611" type="line"/>
      <point x="568" y="760" type="line"/>
      <point x="97" y="760" type="line"/>
    </contour>
    <component base="d" xOffset="-22"/>
  </outline>
</glyph>
<glyph name="uni0191" format="2">
  <advance width="720"/>
  <unicode hex="0191"/>
  <anchor x="372" y="-248" name="bottom"/>
  <anchor x="376" y="714" name="top"/>
  <outline>
    <contour>
      <point x="26" y="-267" type="curve" smooth="yes"/>
      <point x="161" y="-267"/>
      <point x="254" y="-211"/>
      <point x="254" y="-54" type="curve" smooth="yes"/>
      <point x="254" y="259" type="line"/>
      <point x="638" y="259" type="line"/>
      <point x="638" y="418" type="line"/>
      <point x="254" y="418" type="line"/>
      <point x="254" y="556" type="line"/>
      <point x="658" y="556" type="line"/>
      <point x="658" y="714" type="line"/>
      <point x="69" y="714" type="line"/>
      <point x="69" y="-49" type="line" smooth="yes"/>
      <point x="69" y="-92"/>
      <point x="41" y="-112"/>
      <point x="-8" y="-112" type="curve" smooth="yes"/>
      <point x="-35" y="-112"/>
      <point x="-61" y="-105"/>
      <point x="-76" y="-102" type="curve"/>
      <point x="-76" y="-251" type="line"/>
      <point x="-55" y="-257"/>
      <point x="-15" y="-267"/>
    </contour>
  </outline>
</glyph>
<glyph name="florin" format="2">
  <advance width="720"/>
  <unicode hex="0192"/>
  <anchor x="339" y="-244" name="bottom"/>
  <anchor x="470" y="743" name="top"/>
  <outline>
    <contour>
      <point x="212" y="-244" type="curve" smooth="yes"/>
      <point x="390" y="-244"/>
      <point x="439" y="-155"/>
      <point x="439" y="-5" type="curve" smooth="yes"/>
      <point x="439" y="388" type="line"/>
      <point x="607" y="388" type="line"/>
      <point x="607" y="533" type="line"/>
      <point x="439" y="533" type="line"/>
      <point x="439" y="541" type="line" smooth="yes"/>
      <point x="439" y="581"/>
      <point x="474" y="598"/>
      <point x="541" y="598" type="curve" smooth="yes"/>
      <point x="574" y="598"/>
      <point x="607" y="594"/>
      <point x="634" y="587" type="curve"/>
      <point x="672" y="717" type="line"/>
      <point x="621" y="735"/>
      <point x="570" y="743"/>
      <point x="502" y="743" type="curve" smooth="yes"/>
      <point x="337" y="743"/>
      <point x="257" y="684"/>
      <point x="257" y="539" type="curve" smooth="yes"/>
      <point x="257" y="530" type="line"/>
      <point x="115" y="500" type="line"/>
      <point x="115" y="388" type="line"/>
      <point x="256" y="388" type="line"/>
      <point x="256" y="-37" type="line" smooth="yes"/>
      <point x="256" y="-75"/>
      <point x="230" y="-96"/>
      <point x="164" y="-96" type="curve" smooth="yes"/>
      <point x="136" y="-96"/>
      <point x="110" y="-93"/>
      <point x="84" y="-85" type="curve"/>
      <point x="84" y="-230" type="line"/>
      <point x="113" y="-238"/>
      <point x="150" y="-244"/>
    </contour>
  </outline>
</glyph>
<glyph name="uni0193" format="2">
  <advance width="720"/>
  <unicode hex="0193"/>
  <anchor x="365" y="0" name="bottom"/>
  <anchor x="365" y="892" name="top"/>
  <anchor x="696" y="714" name="topright"/>
  <outline>
    <contour>
      <point x="515" y="679" type="line"/>
      <point x="676" y="679" type="line"/>
      <point x="676" y="679" type="line" smooth="yes"/>
      <point x="676" y="720"/>
      <point x="697" y="734"/>
      <point x="734" y="734" type="curve" smooth="yes"/>
      <point x="763" y="734"/>
      <point x="789" y="728"/>
      <point x="803" y="724" type="curve"/>
      <point x="803" y="876" type="line"/>
      <point x="787" y="882"/>
      <point x="750" y="892"/>
      <point x="711" y="892" type="curve" smooth="yes"/>
      <point x="598" y="892"/>
      <point x="515" y="842"/>
      <point x="515" y="717" type="curve" smooth="yes"/>
    </contour>
    <component base="G" xOffset="-22"/>
  </outline>
</glyph>
<glyph name="uni0194" format="2">
  <advance width="720"/>
  <unicode hex="0194"/>
  <anchor x="361" y="-240" name="bottom"/>
  <anchor x="361" y="714" name="top"/>
  <outline>
    <contour>
      <point x="360" y="-240" type="curve" smooth="yes"/>
      <point x="496" y="-240"/>
      <point x="559" y="-163"/>
      <point x="559" y="-66" type="curve" smooth="yes"/>
      <point x="559" y="9"/>
      <point x="512" y="57"/>
      <point x="452" y="141" type="curve"/>
      <point x="718" y="714" type="line"/>
      <point x="533" y="714" type="line"/>
      <point x="415" y="469" type="line" smooth="yes"/>
      <point x="390" y="417"/>
      <point x="371" y="331"/>
      <point x="363" y="283" type="curve"/>
      <point x="355" y="330"/>
      <point x="335" y="418"/>
      <point x="309" y="469" type="curve" smooth="yes"/>
      <point x="190" y="714" type="line"/>
      <point x="4" y="714" type="line"/>
      <point x="269" y="145" type="line"/>
      <point x="214" y="62"/>
      <point x="165" y="10"/>
      <point x="165" y="-66" type="curve" smooth="yes"/>
      <point x="165" y="-168"/>
      <point x="227" y="-240"/>
    </contour>
    <contour>
      <point x="363" y="-141" type="curve" smooth="yes"/>
      <point x="334" y="-141"/>
      <point x="312" y="-121"/>
      <point x="312" y="-77" type="curve" smooth="yes"/>
      <point x="312" y="-50"/>
      <point x="326" y="-5"/>
      <point x="361" y="37" type="curve"/>
      <point x="395" y="-7"/>
      <point x="414" y="-51"/>
      <point x="414" y="-80" type="curve" smooth="yes"/>
      <point x="414" y="-122"/>
      <point x="393" y="-141"/>
    </contour>
  </outline>
</glyph>
<glyph name="uni0195" format="2">
  <advance width="720"/>
  <unicode hex="0195"/>
  <anchor x="365" y="0" name="bottom"/>
  <anchor x="120" y="760" name="top"/>
  <outline>
    <contour>
      <point x="491" y="-15" type="curve" smooth="yes"/>
      <point x="620" y="-15"/>
      <point x="690" y="51"/>
      <point x="690" y="146" type="curve" smooth="yes"/>
      <point x="690" y="556" type="line"/>
      <point x="536" y="556" type="line"/>
      <point x="536" y="151" type="line" smooth="yes"/>
      <point x="536" y="134"/>
      <point x="519" y="128"/>
      <point x="490" y="128" type="curve" smooth="yes"/>
      <point x="461" y="128"/>
      <point x="445" y="135"/>
      <point x="445" y="149" type="curve" smooth="yes"/>
      <point x="445" y="447" type="line" smooth="yes"/>
      <point x="445" y="532"/>
      <point x="395" y="566"/>
      <point x="313" y="566" type="curve" smooth="yes"/>
      <point x="253" y="566"/>
      <point x="214" y="540"/>
      <point x="193" y="499" type="curve"/>
      <point x="185" y="499" type="line"/>
      <point x="193" y="545"/>
      <point x="195" y="582"/>
      <point x="195" y="631" type="curve" smooth="yes"/>
      <point x="195" y="760" type="line"/>
      <point x="40" y="760" type="line"/>
      <point x="40" y="0" type="line"/>
      <point x="194" y="0" type="line"/>
      <point x="194" y="401" type="line" smooth="yes"/>
      <point x="194" y="418"/>
      <point x="211" y="424"/>
      <point x="248" y="424" type="curve" smooth="yes"/>
      <point x="275" y="424"/>
      <point x="292" y="418"/>
      <point x="292" y="403" type="curve" smooth="yes"/>
      <point x="292" y="143" type="line" smooth="yes"/>
      <point x="292" y="50"/>
      <point x="360" y="-15"/>
    </contour>
  </outline>
</glyph>
<glyph name="uni0196" format="2">
  <advance width="720"/>
  <unicode hex="0196"/>
  <anchor x="412" y="0" name="bottom"/>
  <anchor x="295" y="714" name="top"/>
  <outline>
    <contour>
      <point x="456" y="-10" type="curve" smooth="yes"/>
      <point x="523" y="-10"/>
      <point x="590" y="3"/>
      <point x="629" y="22" type="curve"/>
      <point x="629" y="183" type="line"/>
      <point x="596" y="170"/>
      <point x="549" y="162"/>
      <point x="507" y="162" type="curve" smooth="yes"/>
      <point x="432" y="162"/>
      <point x="384" y="174"/>
      <point x="384" y="258" type="curve" smooth="yes"/>
      <point x="384" y="714" type="line"/>
      <point x="195" y="714" type="line"/>
      <point x="195" y="194" type="line" smooth="yes"/>
      <point x="195" y="35"/>
      <point x="308" y="-10"/>
    </contour>
  </outline>
</glyph>
<glyph name="uni0197" format="2">
  <advance width="720"/>
  <unicode hex="0197"/>
  <anchor x="362" y="0" name="bottom"/>
  <anchor x="362" y="714" name="top"/>
  <anchor x="-18" y="714" name="topleft"/>
  <anchor x="455" y="10" name="ogonek"/>
  <anchor x="696" y="714" name="topright"/>
  <outline>
    <contour>
      <point x="115" y="297" type="line"/>
      <point x="607" y="297" type="line"/>
      <point x="607" y="450" type="line"/>
      <point x="115" y="450" type="line"/>
    </contour>
    <component base="I" xOffset="-22"/>
  </outline>
</glyph>
<glyph name="uni0198" format="2">
  <advance width="720"/>
  <unicode hex="0198"/>
  <anchor x="360" y="0" name="bottom"/>
  <anchor x="360" y="714" name="top"/>
  <outline>
    <contour>
      <point x="40" y="0" type="line"/>
      <point x="224" y="0" type="line"/>
      <point x="224" y="214" type="line"/>
      <point x="302" y="252" type="line"/>
      <point x="491" y="0" type="line"/>
      <point x="703" y="0" type="line"/>
      <point x="435" y="394" type="line"/>
      <point x="565" y="515" type="line" smooth="yes"/>
      <point x="602" y="548"/>
      <point x="627" y="567"/>
      <point x="662" y="567" type="curve" smooth="yes"/>
      <point x="684" y="567"/>
      <point x="711" y="561"/>
      <point x="724" y="556" type="curve"/>
      <point x="724" y="708" type="line"/>
      <point x="703" y="717"/>
      <point x="672" y="728"/>
      <point x="626" y="728" type="curve" smooth="yes"/>
      <point x="528" y="728"/>
      <point x="484" y="636"/>
      <point x="394" y="559" type="curve" smooth="yes"/>
      <point x="299" y="481" type="line" smooth="yes"/>
      <point x="273" y="462"/>
      <point x="246" y="427"/>
      <point x="224" y="395" type="curve"/>
      <point x="224" y="714" type="line"/>
      <point x="40" y="714" type="line"/>
    </contour>
  </outline>
</glyph>
<glyph name="uni0199" format="2">
  <advance width="720"/>
  <unicode hex="0199"/>
  <anchor x="360" y="0" name="bottom"/>
  <anchor x="360" y="768" name="top"/>
  <outline>
    <contour>
      <point x="58" y="0" type="line"/>
      <point x="245" y="0" type="line"/>
      <point x="245" y="144" type="line"/>
      <point x="344" y="199" type="line"/>
      <point x="515" y="0" type="line"/>
      <point x="726" y="0" type="line"/>
      <point x="472" y="321" type="line"/>
      <point x="714" y="556" type="line"/>
      <point x="502" y="556" type="line"/>
      <point x="330" y="403" type="line" smooth="yes"/>
      <point x="290" y="369"/>
      <point x="267" y="338"/>
      <point x="237" y="303" type="curve"/>
      <point x="233" y="303" type="line"/>
      <point x="240" y="349"/>
      <point x="245" y="421"/>
      <point x="245" y="470" type="curve" smooth="yes"/>
      <point x="245" y="557" type="line" smooth="yes"/>
      <point x="245" y="593"/>
      <point x="266" y="606"/>
      <point x="304" y="606" type="curve" smooth="yes"/>
      <point x="331" y="606"/>
      <point x="359" y="601"/>
      <point x="372" y="596" type="curve"/>
      <point x="372" y="751" type="line"/>
      <point x="352" y="758"/>
      <point x="310" y="768"/>
      <point x="268" y="768" type="curve" smooth="yes"/>
      <point x="136" y="768"/>
      <point x="58" y="710"/>
      <point x="58" y="563" type="curve" smooth="yes"/>
    </contour>
  </outline>
</glyph>
<glyph name="uni019A" format="2">
  <advance width="720"/>
  <unicode hex="019A"/>
  <anchor x="360" y="0" name="bottom"/>
  <anchor x="360" y="760" name="top"/>
  <anchor x="597" y="760" name="topright"/>
  <anchor x="361" y="392" name="center"/>
  <outline>
    <contour>
      <point x="111" y="292" type="line"/>
      <point x="642" y="292" type="line"/>
      <point x="642" y="431" type="line"/>
      <point x="111" y="431" type="line"/>
    </contour>
    <component base="l" xOffset="-22"/>
  </outline>
</glyph>
<glyph name="uni019C" format="2">
  <advance width="720"/>
  <unicode hex="019C"/>
  <anchor x="361" y="0" name="bottom"/>
  <anchor x="361" y="357" name="center"/>
  <anchor x="361" y="714" name="top"/>
  <anchor x="4" y="714" name="topleft"/>
  <outline>
    <contour>
      <point x="152" y="-10" type="curve" smooth="yes"/>
      <point x="224" y="-10"/>
      <point x="260" y="20"/>
      <point x="289" y="74" type="curve"/>
      <point x="294" y="74" type="line"/>
      <point x="311" y="24"/>
      <point x="343" y="-10"/>
      <point x="416" y="-10" type="curve" smooth="yes"/>
      <point x="477" y="-10"/>
      <point x="514" y="18"/>
      <point x="540" y="71" type="curve"/>
      <point x="550" y="71" type="line"/>
      <point x="571" y="0" type="line"/>
      <point x="701" y="0" type="line"/>
      <point x="701" y="714" type="line"/>
      <point x="542" y="714" type="line"/>
      <point x="542" y="178" type="line" smooth="yes"/>
      <point x="542" y="146"/>
      <point x="530" y="132"/>
      <point x="487" y="132" type="curve" smooth="yes"/>
      <point x="445" y="132"/>
      <point x="437" y="150"/>
      <point x="437" y="188" type="curve" smooth="yes"/>
      <point x="437" y="714" type="line"/>
      <point x="283" y="714" type="line"/>
      <point x="283" y="178" type="line" smooth="yes"/>
      <point x="283" y="151"/>
      <point x="270" y="132"/>
      <point x="226" y="132" type="curve" smooth="yes"/>
      <point x="185" y="132"/>
      <point x="179" y="148"/>
      <point x="179" y="188" type="curve" smooth="yes"/>
      <point x="179" y="714" type="line"/>
      <point x="21" y="714" type="line"/>
      <point x="21" y="157" type="line" smooth="yes"/>
      <point x="21" y="60"/>
      <point x="46" y="-10"/>
    </contour>
  </outline>
</glyph>
<glyph name="uni019D" format="2">
  <advance width="720"/>
  <unicode hex="019D"/>
  <anchor x="361" y="-265" name="bottom"/>
  <anchor x="361" y="714" name="top"/>
  <anchor x="721" y="714" name="topright"/>
  <outline>
    <contour>
      <point x="-4" y="-265" type="curve" smooth="yes"/>
      <point x="129" y="-265"/>
      <point x="212" y="-205"/>
      <point x="212" y="-48" type="curve" smooth="yes"/>
      <point x="212" y="227" type="line"/>
      <point x="41" y="222" type="line"/>
      <point x="41" y="-53" type="line" smooth="yes"/>
      <point x="41" y="-110"/>
      <point x="13" y="-133"/>
      <point x="-32" y="-133" type="curve" smooth="yes"/>
      <point x="-60" y="-133"/>
      <point x="-85" y="-126"/>
      <point x="-100" y="-123" type="curve"/>
      <point x="-100" y="-249" type="line"/>
      <point x="-78" y="-255"/>
      <point x="-45" y="-265"/>
    </contour>
    <component base="N" xOffset="-22"/>
  </outline>
</glyph>
<glyph name="uni01A2" format="2">
  <advance width="720"/>
  <unicode hex="01A2"/>
  <anchor x="123" y="0" name="bottom"/>
  <anchor x="129" y="10" name="ogonek"/>
  <anchor x="407" y="714" name="top"/>
  <anchor x="-221" y="714" name="topleft"/>
  <anchor x="1047" y="714" name="topright"/>
  <outline>
    <contour>
      <point x="126" y="-10" type="curve" smooth="yes"/>
      <point x="401" y="-10"/>
      <point x="532" y="131"/>
      <point x="532" y="355" type="curve" smooth="yes"/>
      <point x="532" y="559"/>
      <point x="418" y="725"/>
      <point x="126" y="725" type="curve" smooth="yes"/>
      <point x="-150" y="725"/>
      <point x="-281" y="586"/>
      <point x="-281" y="358" type="curve" smooth="yes"/>
      <point x="-281" y="130"/>
      <point x="-151" y="-10"/>
    </contour>
    <contour>
      <point x="126" y="147" type="curve" smooth="yes"/>
      <point x="-18" y="147"/>
      <point x="-82" y="222"/>
      <point x="-82" y="358" type="curve" smooth="yes"/>
      <point x="-82" y="495"/>
      <point x="-18" y="570"/>
      <point x="127" y="570" type="curve" smooth="yes"/>
      <point x="274" y="570"/>
      <point x="333" y="491"/>
      <point x="333" y="359" type="curve" smooth="yes"/>
      <point x="333" y="221"/>
      <point x="271" y="147"/>
    </contour>
    <contour>
      <point x="813" y="0" type="line"/>
      <point x="1003" y="0" type="line"/>
      <point x="1003" y="472" type="line" smooth="yes"/>
      <point x="1003" y="655"/>
      <point x="884" y="725"/>
      <point x="706" y="725" type="curve" smooth="yes"/>
      <point x="573" y="725"/>
      <point x="468" y="683"/>
      <point x="392" y="628" type="curve"/>
      <point x="459" y="533" type="line"/>
      <point x="497" y="550"/>
      <point x="563" y="570"/>
      <point x="647" y="570" type="curve" smooth="yes"/>
      <point x="761" y="570"/>
      <point x="813" y="533"/>
      <point x="813" y="440" type="curve" smooth="yes"/>
    </contour>
  </outline>
</glyph>
<glyph name="uni01A3" format="2">
  <advance width="720"/>
  <unicode hex="01A3"/>
  <anchor x="228" y="0" name="bottom"/>
  <anchor x="228" y="277" name="center"/>
  <anchor x="233" y="10" name="ogonek"/>
  <anchor x="373" y="556" name="top"/>
  <outline>
    <contour>
      <point x="534" y="-240" type="line"/>
      <point x="697" y="-240" type="line"/>
      <point x="697" y="401" type="line" smooth="yes"/>
      <point x="697" y="510"/>
      <point x="643" y="567"/>
      <point x="543" y="567" type="curve" smooth="yes"/>
      <point x="462" y="567"/>
      <point x="420" y="538"/>
      <point x="395" y="495" type="curve"/>
      <point x="361" y="547"/>
      <point x="312" y="567"/>
      <point x="231" y="567" type="curve" smooth="yes"/>
      <point x="72" y="567"/>
      <point x="9" y="473"/>
      <point x="9" y="279" type="curve" smooth="yes"/>
      <point x="9" y="103"/>
      <point x="74" y="-10"/>
      <point x="228" y="-10" type="curve" smooth="yes"/>
      <point x="395" y="-10"/>
      <point x="448" y="104"/>
      <point x="448" y="279" type="curve" smooth="yes"/>
      <point x="448" y="335"/>
      <point x="440" y="388"/>
      <point x="432" y="409" type="curve"/>
      <point x="443" y="415"/>
      <point x="458" y="420"/>
      <point x="486" y="420" type="curve" smooth="yes"/>
      <point x="518" y="420"/>
      <point x="534" y="406"/>
      <point x="534" y="379" type="curve" smooth="yes"/>
    </contour>
    <contour>
      <point x="229" y="132" type="curve" smooth="yes"/>
      <point x="192" y="132"/>
      <point x="173" y="145"/>
      <point x="173" y="277" type="curve" smooth="yes"/>
      <point x="173" y="413"/>
      <point x="189" y="424"/>
      <point x="229" y="424" type="curve" smooth="yes"/>
      <point x="267" y="424"/>
      <point x="284" y="412"/>
      <point x="284" y="279" type="curve" smooth="yes"/>
      <point x="284" y="144"/>
      <point x="269" y="132"/>
    </contour>
  </outline>
</glyph>
<glyph name="uni01A4" format="2">
  <advance width="720"/>
  <unicode hex="01A4"/>
  <anchor x="398" y="0" name="bottom"/>
  <anchor x="398" y="714" name="top"/>
  <outline>
    <contour>
      <point x="163" y="0" type="line"/>
      <point x="344" y="0" type="line"/>
      <point x="344" y="233" type="line"/>
      <point x="403" y="233" type="line" smooth="yes"/>
      <point x="618" y="233"/>
      <point x="698" y="344"/>
      <point x="698" y="483" type="curve" smooth="yes"/>
      <point x="698" y="632"/>
      <point x="607" y="714"/>
      <point x="413" y="714" type="curve" smooth="yes"/>
      <point x="174" y="714" type="line" smooth="yes"/>
      <point x="36" y="714"/>
      <point x="-29" y="643"/>
      <point x="-29" y="530" type="curve" smooth="yes"/>
      <point x="-29" y="501"/>
      <point x="-22" y="459"/>
      <point x="-17" y="450" type="curve"/>
      <point x="118" y="450" type="line"/>
      <point x="114" y="462"/>
      <point x="109" y="482"/>
      <point x="109" y="505" type="curve" smooth="yes"/>
      <point x="109" y="544"/>
      <point x="127" y="561"/>
      <point x="163" y="563" type="curve"/>
    </contour>
    <contour>
      <point x="344" y="385" type="line"/>
      <point x="344" y="562" type="line"/>
      <point x="395" y="562" type="line" smooth="yes"/>
      <point x="475" y="562"/>
      <point x="511" y="533"/>
      <point x="511" y="479" type="curve" smooth="yes"/>
      <point x="511" y="418"/>
      <point x="468" y="385"/>
      <point x="385" y="385" type="curve" smooth="yes"/>
    </contour>
  </outline>
</glyph>
<glyph name="uni01A5" format="2">
  <advance width="720"/>
  <unicode hex="01A5"/>
  <anchor x="388" y="-240" name="bottom"/>
  <anchor x="388" y="765" name="top"/>
  <outline>
    <contour>
      <point x="51" y="-240" type="line"/>
      <point x="235" y="-240" type="line"/>
      <point x="235" y="-45" type="line" smooth="yes"/>
      <point x="235" y="-15"/>
      <point x="228" y="37"/>
      <point x="224" y="54" type="curve"/>
      <point x="235" y="54" type="line"/>
      <point x="282" y="5"/>
      <point x="346" y="-10"/>
      <point x="427" y="-10" type="curve" smooth="yes"/>
      <point x="592" y="-10"/>
      <point x="696" y="110"/>
      <point x="696" y="284" type="curve" smooth="yes"/>
      <point x="696" y="421"/>
      <point x="614" y="566"/>
      <point x="434" y="566" type="curve" smooth="yes"/>
      <point x="344" y="566"/>
      <point x="277" y="543"/>
      <point x="234" y="483" type="curve"/>
      <point x="225" y="483" type="line"/>
      <point x="232" y="521"/>
      <point x="235" y="547"/>
      <point x="235" y="578" type="curve" smooth="yes"/>
      <point x="235" y="578" type="line" smooth="yes"/>
      <point x="235" y="608"/>
      <point x="256" y="616"/>
      <point x="290" y="616" type="curve" smooth="yes"/>
      <point x="317" y="616"/>
      <point x="345" y="609"/>
      <point x="356" y="607" type="curve"/>
      <point x="356" y="749" type="line"/>
      <point x="338" y="755"/>
      <point x="293" y="765"/>
      <point x="253" y="765" type="curve" smooth="yes"/>
      <point x="125" y="765"/>
      <point x="51" y="710"/>
      <point x="51" y="569" type="curve" smooth="yes"/>
    </contour>
    <contour>
      <point x="373" y="141" type="curve" smooth="yes"/>
      <point x="279" y="141"/>
      <point x="235" y="177"/>
      <point x="235" y="279" type="curve" smooth="yes"/>
      <point x="235" y="293" type="line" smooth="yes"/>
      <point x="235" y="378"/>
      <point x="282" y="414"/>
      <point x="371" y="414" type="curve" smooth="yes"/>
      <point x="468" y="414"/>
      <point x="506" y="370"/>
      <point x="506" y="280" type="curve" smooth="yes"/>
      <point x="506" y="190"/>
      <point x="466" y="141"/>
    </contour>
  </outline>
</glyph>
<glyph name="uni01A6" format="2">
  <advance width="720"/>
  <unicode hex="01A6"/>
  <anchor x="393" y="-97" name="bottom"/>
  <anchor x="393" y="714" name="top"/>
  <outline>
    <contour>
      <point x="518" y="-99" type="line"/>
      <point x="722" y="-99" type="line"/>
      <point x="508" y="208" type="line"/>
      <point x="603" y="258"/>
      <point x="663" y="320"/>
      <point x="663" y="406" type="curve" smooth="yes"/>
      <point x="663" y="543"/>
      <point x="554" y="615"/>
      <point x="324" y="615" type="curve" smooth="yes"/>
      <point x="249" y="615" type="line"/>
      <point x="249" y="714" type="line"/>
      <point x="69" y="714" type="line"/>
      <point x="69" y="0" type="line"/>
      <point x="249" y="0" type="line"/>
      <point x="249" y="154" type="line"/>
      <point x="349" y="154" type="line"/>
    </contour>
    <contour>
      <point x="249" y="308" type="line"/>
      <point x="249" y="461" type="line"/>
      <point x="323" y="461" type="line" smooth="yes"/>
      <point x="432" y="461"/>
      <point x="481" y="433"/>
      <point x="481" y="389" type="curve" smooth="yes"/>
      <point x="481" y="331"/>
      <point x="423" y="308"/>
      <point x="322" y="308" type="curve" smooth="yes"/>
    </contour>
  </outline>
</glyph>
<glyph name="uni01AA" format="2">
  <advance width="720"/>
  <unicode hex="01AA"/>
  <anchor x="365" y="-240" name="bottom"/>
  <anchor x="365" y="770" name="top"/>
  <outline>
    <contour>
      <point x="502" y="-240" type="curve" smooth="yes"/>
      <point x="574" y="-240"/>
      <point x="636" y="-226"/>
      <point x="679" y="-208" type="curve"/>
      <point x="679" y="-58" type="line"/>
      <point x="638" y="-71"/>
      <point x="603" y="-78"/>
      <point x="553" y="-78" type="curve" smooth="yes"/>
      <point x="486" y="-78"/>
      <point x="453" y="-63"/>
      <point x="453" y="-11" type="curve" smooth="yes"/>
      <point x="453" y="567" type="line" smooth="yes"/>
      <point x="453" y="689"/>
      <point x="393" y="773"/>
      <point x="239" y="773" type="curve" smooth="yes"/>
      <point x="96" y="773"/>
      <point x="37" y="719"/>
      <point x="37" y="650" type="curve" smooth="yes"/>
      <point x="37" y="579"/>
      <point x="89" y="524"/>
      <point x="231" y="524" type="curve" smooth="yes"/>
      <point x="267" y="524" type="line"/>
      <point x="267" y="-32" type="line" smooth="yes"/>
      <point x="267" y="-195"/>
      <point x="361" y="-240"/>
    </contour>
    <contour>
      <point x="233" y="620" type="line" smooth="yes"/>
      <point x="186" y="620"/>
      <point x="164" y="632"/>
      <point x="164" y="650" type="curve" smooth="yes"/>
      <point x="164" y="661"/>
      <point x="181" y="670"/>
      <point x="212" y="670" type="curve" smooth="yes"/>
      <point x="249" y="670"/>
      <point x="267" y="662"/>
      <point x="267" y="645" type="curve" smooth="yes"/>
      <point x="267" y="620" type="line"/>
    </contour>
  </outline>
</glyph>
<glyph name="uni01AB" format="2">
  <advance width="720"/>
  <unicode hex="01AB"/>
  <anchor x="456" y="-240" name="bottom"/>
  <anchor x="361" y="678" name="top"/>
  <anchor x="696" y="678" name="topright"/>
  <anchor x="271" y="281" name="center"/>
  <outline>
    <contour>
      <point x="468" y="-240" type="curve" smooth="yes"/>
      <point x="595" y="-240"/>
      <point x="660" y="-181"/>
      <point x="660" y="-41" type="curve" smooth="yes"/>
      <point x="660" y="101" type="line"/>
      <point x="493" y="51" type="line"/>
      <point x="493" y="-41" type="line" smooth="yes"/>
      <point x="493" y="-86"/>
      <point x="466" y="-100"/>
      <point x="426" y="-100" type="curve" smooth="yes"/>
      <point x="402" y="-100"/>
      <point x="381" y="-96"/>
      <point x="365" y="-92" type="curve"/>
      <point x="365" y="-227" type="line"/>
      <point x="389" y="-235"/>
      <point x="430" y="-240"/>
    </contour>
    <component base="t" xOffset="-22"/>
  </outline>
</glyph>
<glyph name="uni01AC" format="2">
  <advance width="720"/>
  <unicode hex="01AC"/>
  <anchor x="381" y="0" name="bottom"/>
  <anchor x="381" y="714" name="top"/>
  <outline>
    <contour>
      <point x="290" y="0" type="line"/>
      <point x="477" y="0" type="line"/>
      <point x="477" y="555" type="line"/>
      <point x="712" y="555" type="line"/>
      <point x="712" y="714" type="line"/>
      <point x="224" y="714" type="line" smooth="yes"/>
      <point x="53" y="714"/>
      <point x="-6" y="618"/>
      <point x="-6" y="519" type="curve" smooth="yes"/>
      <point x="-6" y="480"/>
      <point x="4" y="456"/>
      <point x="10" y="447" type="curve"/>
      <point x="163" y="447" type="line"/>
      <point x="158" y="459"/>
      <point x="150" y="473"/>
      <point x="150" y="497" type="curve" smooth="yes"/>
      <point x="150" y="527"/>
      <point x="173" y="551"/>
      <point x="226" y="551" type="curve" smooth="yes"/>
      <point x="290" y="551" type="line"/>
    </contour>
  </outline>
</glyph>
